<mxfile host="app.diagrams.net" agent="Mozilla/5.0 (Macintosh; Intel Mac OS X 10.15; rv:131.0) Gecko/20100101 Firefox/131.0" version="24.8.2">
  <diagram name="Page-1" id="oKNqAVHGO5KNwWtNN7nH">
    <mxGraphModel dx="584" dy="333" grid="1" gridSize="10" guides="1" tooltips="1" connect="1" arrows="1" fold="1" page="1" pageScale="1" pageWidth="850" pageHeight="1100" math="0" shadow="0">
      <root>
        <mxCell id="0" />
        <mxCell id="1" parent="0" />
        <mxCell id="gBEdq5ZTxUluI_XgzyKd-1" value="" style="endArrow=none;html=1;rounded=0;" parent="1" edge="1">
          <mxGeometry width="50" height="50" relative="1" as="geometry">
            <mxPoint x="40" y="80" as="sourcePoint" />
            <mxPoint x="450" y="80" as="targetPoint" />
          </mxGeometry>
        </mxCell>
        <mxCell id="gBEdq5ZTxUluI_XgzyKd-2" value="" style="endArrow=none;html=1;rounded=0;entryX=0;entryY=0;entryDx=0;entryDy=0;" parent="1" target="gBEdq5ZTxUluI_XgzyKd-691" edge="1">
          <mxGeometry width="50" height="50" relative="1" as="geometry">
            <mxPoint x="40" y="160" as="sourcePoint" />
            <mxPoint x="800" y="160" as="targetPoint" />
          </mxGeometry>
        </mxCell>
        <mxCell id="gBEdq5ZTxUluI_XgzyKd-3" value="" style="endArrow=none;html=1;rounded=0;entryX=0;entryY=0;entryDx=0;entryDy=0;" parent="1" edge="1">
          <mxGeometry width="50" height="50" relative="1" as="geometry">
            <mxPoint x="40" y="240" as="sourcePoint" />
            <mxPoint x="439.94999999999993" y="239.99999999999994" as="targetPoint" />
          </mxGeometry>
        </mxCell>
        <mxCell id="gBEdq5ZTxUluI_XgzyKd-90" value="" style="endArrow=none;html=1;strokeWidth=1;rounded=0;jumpSize=0;opacity=10;flowAnimation=0;shadow=0;jumpStyle=none;dashed=1;dashPattern=1 1;" parent="1" edge="1">
          <mxGeometry width="50" height="50" relative="1" as="geometry">
            <mxPoint x="60" y="160" as="sourcePoint" />
            <mxPoint x="40" y="80" as="targetPoint" />
          </mxGeometry>
        </mxCell>
        <mxCell id="gBEdq5ZTxUluI_XgzyKd-92" value="" style="endArrow=none;html=1;strokeWidth=1;rounded=0;jumpSize=0;opacity=10;flowAnimation=0;shadow=0;jumpStyle=none;dashed=1;dashPattern=1 1;curved=0;" parent="1" edge="1">
          <mxGeometry width="50" height="50" relative="1" as="geometry">
            <mxPoint x="60" y="160" as="sourcePoint" />
            <mxPoint x="80" y="80" as="targetPoint" />
          </mxGeometry>
        </mxCell>
        <mxCell id="gBEdq5ZTxUluI_XgzyKd-93" value="&lt;font style=&quot;font-size: 5px;&quot;&gt;0&lt;/font&gt;" style="text;html=1;align=center;verticalAlign=middle;whiteSpace=wrap;rounded=0;fontColor=#3399FF;" parent="1" vertex="1">
          <mxGeometry x="60" y="155" as="geometry" />
        </mxCell>
        <mxCell id="gBEdq5ZTxUluI_XgzyKd-96" value="&lt;font style=&quot;font-size: 5px;&quot;&gt;0&lt;/font&gt;" style="text;html=1;align=center;verticalAlign=middle;whiteSpace=wrap;rounded=0;fontColor=#3399FF;" parent="1" vertex="1">
          <mxGeometry x="80" y="155" as="geometry" />
        </mxCell>
        <mxCell id="gBEdq5ZTxUluI_XgzyKd-97" value="&lt;font style=&quot;font-size: 5px;&quot;&gt;0&lt;/font&gt;" style="text;html=1;align=center;verticalAlign=middle;whiteSpace=wrap;rounded=0;fontColor=#3399FF;" parent="1" vertex="1">
          <mxGeometry x="100" y="155" as="geometry" />
        </mxCell>
        <mxCell id="gBEdq5ZTxUluI_XgzyKd-98" value="&lt;font style=&quot;font-size: 5px;&quot;&gt;p2x&lt;/font&gt;" style="text;html=1;align=center;verticalAlign=middle;whiteSpace=wrap;rounded=0;fontColor=#00CC00;" parent="1" vertex="1">
          <mxGeometry x="30" y="80" as="geometry" />
        </mxCell>
        <mxCell id="gBEdq5ZTxUluI_XgzyKd-99" value="&lt;font style=&quot;font-size: 5px;&quot;&gt;p1x&lt;/font&gt;" style="text;html=1;align=center;verticalAlign=middle;whiteSpace=wrap;rounded=0;fontColor=#3399FF;" parent="1" vertex="1">
          <mxGeometry x="30" y="75" as="geometry" />
        </mxCell>
        <mxCell id="gBEdq5ZTxUluI_XgzyKd-100" value="&lt;font style=&quot;font-size: 5px;&quot;&gt;0&lt;/font&gt;" style="text;html=1;align=center;verticalAlign=middle;whiteSpace=wrap;rounded=0;fontColor=#3399FF;" parent="1" vertex="1">
          <mxGeometry x="80" y="75" as="geometry" />
        </mxCell>
        <mxCell id="gBEdq5ZTxUluI_XgzyKd-101" value="&lt;font style=&quot;font-size: 5px;&quot;&gt;1&lt;/font&gt;" style="text;html=1;align=center;verticalAlign=middle;whiteSpace=wrap;rounded=0;fontColor=#3399FF;" parent="1" vertex="1">
          <mxGeometry x="90" y="75" as="geometry" />
        </mxCell>
        <mxCell id="gBEdq5ZTxUluI_XgzyKd-102" value="&lt;font style=&quot;font-size: 5px;&quot;&gt;2&lt;/font&gt;" style="text;html=1;align=center;verticalAlign=middle;whiteSpace=wrap;rounded=0;fontColor=#3399FF;" parent="1" vertex="1">
          <mxGeometry x="100" y="75" as="geometry" />
        </mxCell>
        <mxCell id="gBEdq5ZTxUluI_XgzyKd-103" value="&lt;font style=&quot;font-size: 5px;&quot;&gt;3&lt;/font&gt;" style="text;html=1;align=center;verticalAlign=middle;whiteSpace=wrap;rounded=0;fontColor=#3399FF;" parent="1" vertex="1">
          <mxGeometry x="110" y="75" as="geometry" />
        </mxCell>
        <mxCell id="gBEdq5ZTxUluI_XgzyKd-104" value="&lt;font style=&quot;font-size: 5px;&quot;&gt;4&lt;/font&gt;" style="text;html=1;align=center;verticalAlign=middle;whiteSpace=wrap;rounded=0;fontColor=#3399FF;" parent="1" vertex="1">
          <mxGeometry x="120" y="75" as="geometry" />
        </mxCell>
        <mxCell id="gBEdq5ZTxUluI_XgzyKd-105" value="&lt;font style=&quot;font-size: 5px;&quot;&gt;5&lt;/font&gt;" style="text;html=1;align=center;verticalAlign=middle;whiteSpace=wrap;rounded=0;fontColor=#3399FF;" parent="1" vertex="1">
          <mxGeometry x="130" y="75" as="geometry" />
        </mxCell>
        <mxCell id="gBEdq5ZTxUluI_XgzyKd-106" value="&lt;font style=&quot;font-size: 5px;&quot;&gt;6&lt;/font&gt;" style="text;html=1;align=center;verticalAlign=middle;whiteSpace=wrap;rounded=0;fontColor=#3399FF;" parent="1" vertex="1">
          <mxGeometry x="140" y="75" as="geometry" />
        </mxCell>
        <mxCell id="gBEdq5ZTxUluI_XgzyKd-107" value="&lt;font style=&quot;font-size: 5px;&quot;&gt;7&lt;/font&gt;" style="text;html=1;align=center;verticalAlign=middle;whiteSpace=wrap;rounded=0;fontColor=#3399FF;" parent="1" vertex="1">
          <mxGeometry x="150" y="75" as="geometry" />
        </mxCell>
        <mxCell id="gBEdq5ZTxUluI_XgzyKd-108" value="&lt;font style=&quot;font-size: 5px;&quot;&gt;8&lt;/font&gt;" style="text;html=1;align=center;verticalAlign=middle;whiteSpace=wrap;rounded=0;fontColor=#3399FF;" parent="1" vertex="1">
          <mxGeometry x="160" y="75" as="geometry" />
        </mxCell>
        <mxCell id="gBEdq5ZTxUluI_XgzyKd-109" value="&lt;font style=&quot;font-size: 5px;&quot;&gt;9&lt;/font&gt;" style="text;html=1;align=center;verticalAlign=middle;whiteSpace=wrap;rounded=0;fontColor=#3399FF;" parent="1" vertex="1">
          <mxGeometry x="170" y="75" as="geometry" />
        </mxCell>
        <mxCell id="gBEdq5ZTxUluI_XgzyKd-110" value="&lt;font style=&quot;font-size: 5px;&quot;&gt;10&lt;/font&gt;" style="text;html=1;align=center;verticalAlign=middle;whiteSpace=wrap;rounded=0;fontColor=#3399FF;" parent="1" vertex="1">
          <mxGeometry x="180" y="75" as="geometry" />
        </mxCell>
        <mxCell id="gBEdq5ZTxUluI_XgzyKd-111" value="&lt;font style=&quot;font-size: 5px;&quot;&gt;11&lt;/font&gt;" style="text;html=1;align=center;verticalAlign=middle;whiteSpace=wrap;rounded=0;fontColor=#3399FF;" parent="1" vertex="1">
          <mxGeometry x="190" y="75" as="geometry" />
        </mxCell>
        <mxCell id="gBEdq5ZTxUluI_XgzyKd-112" value="&lt;font style=&quot;font-size: 5px;&quot;&gt;12&lt;/font&gt;" style="text;html=1;align=center;verticalAlign=middle;whiteSpace=wrap;rounded=0;fontColor=#3399FF;" parent="1" vertex="1">
          <mxGeometry x="200" y="75" as="geometry" />
        </mxCell>
        <mxCell id="gBEdq5ZTxUluI_XgzyKd-113" value="&lt;font style=&quot;font-size: 5px;&quot;&gt;13&lt;/font&gt;" style="text;html=1;align=center;verticalAlign=middle;whiteSpace=wrap;rounded=0;fontColor=#3399FF;" parent="1" vertex="1">
          <mxGeometry x="210" y="75" as="geometry" />
        </mxCell>
        <mxCell id="gBEdq5ZTxUluI_XgzyKd-117" value="&lt;font style=&quot;font-size: 5px;&quot;&gt;0&lt;/font&gt;" style="text;html=1;align=center;verticalAlign=middle;whiteSpace=wrap;rounded=0;fontColor=#00CC00;" parent="1" vertex="1">
          <mxGeometry x="110" y="240" as="geometry" />
        </mxCell>
        <mxCell id="gBEdq5ZTxUluI_XgzyKd-118" value="&lt;font style=&quot;font-size: 5px;&quot;&gt;1&lt;/font&gt;" style="text;html=1;align=center;verticalAlign=middle;whiteSpace=wrap;rounded=0;fontColor=#00CC00;" parent="1" vertex="1">
          <mxGeometry x="120" y="240" as="geometry" />
        </mxCell>
        <mxCell id="gBEdq5ZTxUluI_XgzyKd-119" value="&lt;font style=&quot;font-size: 5px;&quot;&gt;2&lt;/font&gt;" style="text;html=1;align=center;verticalAlign=middle;whiteSpace=wrap;rounded=0;fontColor=#00CC00;" parent="1" vertex="1">
          <mxGeometry x="130" y="240" as="geometry" />
        </mxCell>
        <mxCell id="gBEdq5ZTxUluI_XgzyKd-120" value="&lt;font style=&quot;font-size: 5px;&quot;&gt;3&lt;/font&gt;" style="text;html=1;align=center;verticalAlign=middle;whiteSpace=wrap;rounded=0;fontColor=#00CC00;" parent="1" vertex="1">
          <mxGeometry x="140" y="240" as="geometry" />
        </mxCell>
        <mxCell id="gBEdq5ZTxUluI_XgzyKd-121" value="&lt;font style=&quot;font-size: 5px;&quot;&gt;4&lt;/font&gt;" style="text;html=1;align=center;verticalAlign=middle;whiteSpace=wrap;rounded=0;fontColor=#00CC00;" parent="1" vertex="1">
          <mxGeometry x="150" y="240" as="geometry" />
        </mxCell>
        <mxCell id="gBEdq5ZTxUluI_XgzyKd-122" value="&lt;font style=&quot;font-size: 5px;&quot;&gt;5&lt;/font&gt;" style="text;html=1;align=center;verticalAlign=middle;whiteSpace=wrap;rounded=0;fontColor=#00CC00;" parent="1" vertex="1">
          <mxGeometry x="160" y="240" as="geometry" />
        </mxCell>
        <mxCell id="gBEdq5ZTxUluI_XgzyKd-123" value="&lt;font style=&quot;font-size: 5px;&quot;&gt;6&lt;/font&gt;" style="text;html=1;align=center;verticalAlign=middle;whiteSpace=wrap;rounded=0;fontColor=#00CC00;" parent="1" vertex="1">
          <mxGeometry x="170" y="240" as="geometry" />
        </mxCell>
        <mxCell id="gBEdq5ZTxUluI_XgzyKd-124" value="&lt;font style=&quot;font-size: 5px;&quot;&gt;7&lt;/font&gt;" style="text;html=1;align=center;verticalAlign=middle;whiteSpace=wrap;rounded=0;fontColor=#00CC00;" parent="1" vertex="1">
          <mxGeometry x="180" y="240" as="geometry" />
        </mxCell>
        <mxCell id="gBEdq5ZTxUluI_XgzyKd-125" value="&lt;font style=&quot;font-size: 5px;&quot;&gt;8&lt;/font&gt;" style="text;html=1;align=center;verticalAlign=middle;whiteSpace=wrap;rounded=0;fontColor=#00CC00;" parent="1" vertex="1">
          <mxGeometry x="190" y="240" as="geometry" />
        </mxCell>
        <mxCell id="gBEdq5ZTxUluI_XgzyKd-126" value="&lt;font style=&quot;font-size: 5px;&quot;&gt;9&lt;/font&gt;" style="text;html=1;align=center;verticalAlign=middle;whiteSpace=wrap;rounded=0;fontColor=#00CC00;" parent="1" vertex="1">
          <mxGeometry x="200" y="240" as="geometry" />
        </mxCell>
        <mxCell id="gBEdq5ZTxUluI_XgzyKd-127" value="&lt;font style=&quot;font-size: 5px;&quot;&gt;10&lt;/font&gt;" style="text;html=1;align=center;verticalAlign=middle;whiteSpace=wrap;rounded=0;fontColor=#00CC00;" parent="1" vertex="1">
          <mxGeometry x="210" y="240" as="geometry" />
        </mxCell>
        <mxCell id="gBEdq5ZTxUluI_XgzyKd-128" value="&lt;font style=&quot;font-size: 5px;&quot;&gt;11&lt;/font&gt;" style="text;html=1;align=center;verticalAlign=middle;whiteSpace=wrap;rounded=0;fontColor=#00CC00;" parent="1" vertex="1">
          <mxGeometry x="220" y="240" as="geometry" />
        </mxCell>
        <mxCell id="gBEdq5ZTxUluI_XgzyKd-129" value="&lt;font style=&quot;font-size: 5px;&quot;&gt;12&lt;/font&gt;" style="text;html=1;align=center;verticalAlign=middle;whiteSpace=wrap;rounded=0;fontColor=#00CC00;" parent="1" vertex="1">
          <mxGeometry x="230" y="240" as="geometry" />
        </mxCell>
        <mxCell id="gBEdq5ZTxUluI_XgzyKd-130" value="&lt;font style=&quot;font-size: 5px;&quot;&gt;13&lt;/font&gt;" style="text;html=1;align=center;verticalAlign=middle;whiteSpace=wrap;rounded=0;fontColor=#00CC00;" parent="1" vertex="1">
          <mxGeometry x="240" y="240" as="geometry" />
        </mxCell>
        <mxCell id="gBEdq5ZTxUluI_XgzyKd-131" value="" style="endArrow=none;html=1;strokeWidth=1;rounded=0;jumpSize=0;opacity=10;flowAnimation=0;shadow=0;jumpStyle=none;dashed=1;dashPattern=1 1;fontColor=#00CC00;" parent="1" source="gBEdq5ZTxUluI_XgzyKd-182" edge="1">
          <mxGeometry width="50" height="50" relative="1" as="geometry">
            <mxPoint x="110" y="240" as="sourcePoint" />
            <mxPoint x="100" y="160" as="targetPoint" />
          </mxGeometry>
        </mxCell>
        <mxCell id="gBEdq5ZTxUluI_XgzyKd-133" value="" style="endArrow=none;html=1;strokeWidth=1;rounded=0;jumpSize=0;opacity=10;flowAnimation=0;shadow=0;jumpStyle=none;dashed=1;dashPattern=1 1;" parent="1" edge="1">
          <mxGeometry width="50" height="50" relative="1" as="geometry">
            <mxPoint x="120" y="240" as="sourcePoint" />
            <mxPoint x="130" y="160" as="targetPoint" />
          </mxGeometry>
        </mxCell>
        <mxCell id="gBEdq5ZTxUluI_XgzyKd-134" value="" style="endArrow=none;html=1;strokeWidth=1;rounded=0;jumpSize=0;opacity=10;flowAnimation=0;shadow=0;jumpStyle=none;dashed=1;dashPattern=1 1;" parent="1" edge="1">
          <mxGeometry width="50" height="50" relative="1" as="geometry">
            <mxPoint x="130" y="235" as="sourcePoint" />
            <mxPoint x="140" y="160" as="targetPoint" />
          </mxGeometry>
        </mxCell>
        <mxCell id="gBEdq5ZTxUluI_XgzyKd-135" value="" style="endArrow=none;html=1;strokeWidth=1;rounded=0;jumpSize=0;opacity=10;flowAnimation=0;shadow=0;jumpStyle=none;dashed=1;dashPattern=1 1;" parent="1" edge="1">
          <mxGeometry width="50" height="50" relative="1" as="geometry">
            <mxPoint x="140" y="240" as="sourcePoint" />
            <mxPoint x="150" y="160" as="targetPoint" />
          </mxGeometry>
        </mxCell>
        <mxCell id="gBEdq5ZTxUluI_XgzyKd-136" value="" style="endArrow=none;html=1;strokeWidth=1;rounded=0;jumpSize=0;opacity=10;flowAnimation=0;shadow=0;jumpStyle=none;dashed=1;dashPattern=1 1;fontColor=#00CC00;" parent="1" source="gBEdq5ZTxUluI_XgzyKd-284" edge="1">
          <mxGeometry width="50" height="50" relative="1" as="geometry">
            <mxPoint x="150" y="240" as="sourcePoint" />
            <mxPoint x="160" y="160" as="targetPoint" />
          </mxGeometry>
        </mxCell>
        <mxCell id="gBEdq5ZTxUluI_XgzyKd-137" value="" style="endArrow=none;html=1;strokeWidth=1;rounded=0;jumpSize=0;opacity=10;flowAnimation=0;shadow=0;jumpStyle=none;dashed=1;dashPattern=1 1;fontColor=#00CC00;" parent="1" edge="1">
          <mxGeometry width="50" height="50" relative="1" as="geometry">
            <mxPoint x="170" y="160" as="sourcePoint" />
            <mxPoint x="170" y="160" as="targetPoint" />
          </mxGeometry>
        </mxCell>
        <mxCell id="gBEdq5ZTxUluI_XgzyKd-138" value="" style="endArrow=none;html=1;strokeWidth=1;rounded=0;jumpSize=0;opacity=10;flowAnimation=0;shadow=0;jumpStyle=none;dashed=1;dashPattern=1 1;" parent="1" edge="1">
          <mxGeometry width="50" height="50" relative="1" as="geometry">
            <mxPoint x="170" y="235" as="sourcePoint" />
            <mxPoint x="180" y="160" as="targetPoint" />
          </mxGeometry>
        </mxCell>
        <mxCell id="gBEdq5ZTxUluI_XgzyKd-139" value="" style="endArrow=none;html=1;strokeWidth=1;rounded=0;jumpSize=0;opacity=10;flowAnimation=0;shadow=0;jumpStyle=none;dashed=1;dashPattern=1 1;" parent="1" edge="1">
          <mxGeometry width="50" height="50" relative="1" as="geometry">
            <mxPoint x="180" y="240" as="sourcePoint" />
            <mxPoint x="190" y="160" as="targetPoint" />
          </mxGeometry>
        </mxCell>
        <mxCell id="gBEdq5ZTxUluI_XgzyKd-140" value="" style="endArrow=none;html=1;strokeWidth=1;rounded=0;jumpSize=0;opacity=10;flowAnimation=0;shadow=0;jumpStyle=none;dashed=1;dashPattern=1 1;fontColor=#00CC00;" parent="1" source="gBEdq5ZTxUluI_XgzyKd-288" edge="1">
          <mxGeometry width="50" height="50" relative="1" as="geometry">
            <mxPoint x="190" y="240" as="sourcePoint" />
            <mxPoint x="200" y="160" as="targetPoint" />
          </mxGeometry>
        </mxCell>
        <mxCell id="gBEdq5ZTxUluI_XgzyKd-141" value="" style="endArrow=none;html=1;strokeWidth=1;rounded=0;jumpSize=0;opacity=10;flowAnimation=0;shadow=0;jumpStyle=none;dashed=1;dashPattern=1 1;" parent="1" edge="1">
          <mxGeometry width="50" height="50" relative="1" as="geometry">
            <mxPoint x="200" y="240" as="sourcePoint" />
            <mxPoint x="210" y="160" as="targetPoint" />
          </mxGeometry>
        </mxCell>
        <mxCell id="gBEdq5ZTxUluI_XgzyKd-142" value="" style="endArrow=none;html=1;strokeWidth=1;rounded=0;jumpSize=0;opacity=10;flowAnimation=0;shadow=0;jumpStyle=none;dashed=1;dashPattern=1 1;" parent="1" source="VE2V3sf3IiLMLohbHc8v-154" edge="1">
          <mxGeometry width="50" height="50" relative="1" as="geometry">
            <mxPoint x="210" y="240" as="sourcePoint" />
            <mxPoint x="220" y="160" as="targetPoint" />
          </mxGeometry>
        </mxCell>
        <mxCell id="gBEdq5ZTxUluI_XgzyKd-143" value="" style="endArrow=none;html=1;strokeWidth=1;rounded=0;jumpSize=0;opacity=10;flowAnimation=0;shadow=0;jumpStyle=none;dashed=1;dashPattern=1 1;" parent="1" edge="1">
          <mxGeometry width="50" height="50" relative="1" as="geometry">
            <mxPoint x="220" y="240" as="sourcePoint" />
            <mxPoint x="230" y="160" as="targetPoint" />
          </mxGeometry>
        </mxCell>
        <mxCell id="gBEdq5ZTxUluI_XgzyKd-144" value="" style="endArrow=none;html=1;strokeWidth=1;rounded=0;jumpSize=0;opacity=10;flowAnimation=0;shadow=0;jumpStyle=none;dashed=1;dashPattern=1 1;fontColor=#00CC00;" parent="1" source="gBEdq5ZTxUluI_XgzyKd-292" edge="1">
          <mxGeometry width="50" height="50" relative="1" as="geometry">
            <mxPoint x="230" y="240" as="sourcePoint" />
            <mxPoint x="240" y="160" as="targetPoint" />
          </mxGeometry>
        </mxCell>
        <mxCell id="gBEdq5ZTxUluI_XgzyKd-145" value="" style="endArrow=none;html=1;strokeWidth=1;rounded=0;jumpSize=0;opacity=10;flowAnimation=0;shadow=0;jumpStyle=none;dashed=1;dashPattern=1 1;" parent="1" edge="1">
          <mxGeometry width="50" height="50" relative="1" as="geometry">
            <mxPoint x="130" y="240" as="sourcePoint" />
            <mxPoint x="120" y="160" as="targetPoint" />
          </mxGeometry>
        </mxCell>
        <mxCell id="gBEdq5ZTxUluI_XgzyKd-146" value="" style="endArrow=none;html=1;strokeWidth=1;rounded=0;jumpSize=0;opacity=10;flowAnimation=0;shadow=0;jumpStyle=none;dashed=1;dashPattern=1 1;" parent="1" edge="1">
          <mxGeometry width="50" height="50" relative="1" as="geometry">
            <mxPoint x="150" y="240" as="sourcePoint" />
            <mxPoint x="140" y="160" as="targetPoint" />
          </mxGeometry>
        </mxCell>
        <mxCell id="gBEdq5ZTxUluI_XgzyKd-147" value="" style="endArrow=none;html=1;strokeWidth=1;rounded=0;jumpSize=0;opacity=10;flowAnimation=0;shadow=0;jumpStyle=none;dashed=1;dashPattern=1 1;" parent="1" edge="1">
          <mxGeometry width="50" height="50" relative="1" as="geometry">
            <mxPoint x="170" y="240" as="sourcePoint" />
            <mxPoint x="160" y="160" as="targetPoint" />
          </mxGeometry>
        </mxCell>
        <mxCell id="gBEdq5ZTxUluI_XgzyKd-148" value="" style="endArrow=none;html=1;strokeWidth=1;rounded=0;jumpSize=0;opacity=10;flowAnimation=0;shadow=0;jumpStyle=none;dashed=1;dashPattern=1 1;fontColor=#00CC00;" parent="1" source="gBEdq5ZTxUluI_XgzyKd-286" edge="1">
          <mxGeometry width="50" height="50" relative="1" as="geometry">
            <mxPoint x="190" y="240" as="sourcePoint" />
            <mxPoint x="180" y="160" as="targetPoint" />
          </mxGeometry>
        </mxCell>
        <mxCell id="gBEdq5ZTxUluI_XgzyKd-150" value="" style="endArrow=none;html=1;strokeWidth=1;rounded=0;jumpSize=0;opacity=10;flowAnimation=0;shadow=0;jumpStyle=none;dashed=1;dashPattern=1 1;fontColor=#00CC00;" parent="1" source="gBEdq5ZTxUluI_XgzyKd-290" edge="1">
          <mxGeometry width="50" height="50" relative="1" as="geometry">
            <mxPoint x="230" y="240" as="sourcePoint" />
            <mxPoint x="220" y="160" as="targetPoint" />
          </mxGeometry>
        </mxCell>
        <mxCell id="gBEdq5ZTxUluI_XgzyKd-151" value="" style="endArrow=none;html=1;strokeWidth=1;rounded=0;jumpSize=0;opacity=10;flowAnimation=0;shadow=0;jumpStyle=none;dashed=1;dashPattern=1 1;" parent="1" edge="1">
          <mxGeometry width="50" height="50" relative="1" as="geometry">
            <mxPoint x="250" y="240" as="sourcePoint" />
            <mxPoint x="240" y="160" as="targetPoint" />
          </mxGeometry>
        </mxCell>
        <mxCell id="gBEdq5ZTxUluI_XgzyKd-152" value="&lt;font style=&quot;font-size: 5px;&quot;&gt;p2x&lt;/font&gt;" style="text;html=1;align=center;verticalAlign=middle;whiteSpace=wrap;rounded=0;fontColor=#00CC00;" parent="1" vertex="1">
          <mxGeometry x="30" y="240" as="geometry" />
        </mxCell>
        <mxCell id="gBEdq5ZTxUluI_XgzyKd-153" value="&lt;font style=&quot;font-size: 5px;&quot;&gt;p1x&lt;/font&gt;" style="text;html=1;align=center;verticalAlign=middle;whiteSpace=wrap;rounded=0;fontColor=#3399FF;" parent="1" vertex="1">
          <mxGeometry x="30" y="235" as="geometry" />
        </mxCell>
        <mxCell id="gBEdq5ZTxUluI_XgzyKd-154" value="" style="endArrow=none;html=1;strokeWidth=1;rounded=0;jumpSize=0;opacity=10;flowAnimation=0;shadow=0;jumpStyle=none;dashed=1;dashPattern=1 1;curved=0;" parent="1" edge="1">
          <mxGeometry width="50" height="50" relative="1" as="geometry">
            <mxPoint x="80" y="160" as="sourcePoint" />
            <mxPoint x="100" y="80" as="targetPoint" />
          </mxGeometry>
        </mxCell>
        <mxCell id="gBEdq5ZTxUluI_XgzyKd-155" value="" style="endArrow=none;html=1;strokeWidth=1;rounded=0;jumpSize=0;opacity=10;flowAnimation=0;shadow=0;jumpStyle=none;dashed=1;dashPattern=1 1;curved=0;" parent="1" edge="1">
          <mxGeometry width="50" height="50" relative="1" as="geometry">
            <mxPoint x="100" y="160" as="sourcePoint" />
            <mxPoint x="120" y="80" as="targetPoint" />
          </mxGeometry>
        </mxCell>
        <mxCell id="gBEdq5ZTxUluI_XgzyKd-156" value="" style="endArrow=none;html=1;strokeWidth=1;rounded=0;jumpSize=0;opacity=10;flowAnimation=0;shadow=0;jumpStyle=none;dashed=1;dashPattern=1 1;curved=0;fontColor=#00CC00;" parent="1" source="gBEdq5ZTxUluI_XgzyKd-313" edge="1">
          <mxGeometry width="50" height="50" relative="1" as="geometry">
            <mxPoint x="169.95" y="160" as="sourcePoint" />
            <mxPoint x="189.95" y="80" as="targetPoint" />
          </mxGeometry>
        </mxCell>
        <mxCell id="gBEdq5ZTxUluI_XgzyKd-157" value="" style="endArrow=none;html=1;strokeWidth=1;rounded=0;jumpSize=0;opacity=10;flowAnimation=0;shadow=0;jumpStyle=none;dashed=1;dashPattern=1 1;curved=0;" parent="1" edge="1">
          <mxGeometry width="50" height="50" relative="1" as="geometry">
            <mxPoint x="140" y="160" as="sourcePoint" />
            <mxPoint x="160" y="80" as="targetPoint" />
          </mxGeometry>
        </mxCell>
        <mxCell id="gBEdq5ZTxUluI_XgzyKd-158" value="" style="endArrow=none;html=1;strokeWidth=1;rounded=0;jumpSize=0;opacity=10;flowAnimation=0;shadow=0;jumpStyle=none;dashed=1;dashPattern=1 1;curved=0;" parent="1" edge="1">
          <mxGeometry width="50" height="50" relative="1" as="geometry">
            <mxPoint x="160" y="160" as="sourcePoint" />
            <mxPoint x="180" y="80" as="targetPoint" />
          </mxGeometry>
        </mxCell>
        <mxCell id="gBEdq5ZTxUluI_XgzyKd-159" value="" style="endArrow=none;html=1;strokeWidth=1;rounded=0;jumpSize=0;opacity=10;flowAnimation=0;shadow=0;jumpStyle=none;dashed=1;dashPattern=1 1;curved=0;" parent="1" edge="1">
          <mxGeometry width="50" height="50" relative="1" as="geometry">
            <mxPoint x="180" y="160" as="sourcePoint" />
            <mxPoint x="200" y="80" as="targetPoint" />
          </mxGeometry>
        </mxCell>
        <mxCell id="gBEdq5ZTxUluI_XgzyKd-160" value="" style="endArrow=none;html=1;strokeWidth=1;rounded=0;jumpSize=0;opacity=10;flowAnimation=0;shadow=0;jumpStyle=none;dashed=1;dashPattern=1 1;curved=0;" parent="1" edge="1">
          <mxGeometry width="50" height="50" relative="1" as="geometry">
            <mxPoint x="200" y="160" as="sourcePoint" />
            <mxPoint x="220" y="80" as="targetPoint" />
          </mxGeometry>
        </mxCell>
        <mxCell id="gBEdq5ZTxUluI_XgzyKd-161" value="" style="endArrow=none;html=1;strokeWidth=1;rounded=0;jumpSize=0;opacity=10;flowAnimation=0;shadow=0;jumpStyle=none;dashed=1;dashPattern=1 1;curved=0;" parent="1" source="gBEdq5ZTxUluI_XgzyKd-277" edge="1">
          <mxGeometry width="50" height="50" relative="1" as="geometry">
            <mxPoint x="220" y="160" as="sourcePoint" />
            <mxPoint x="240" y="80" as="targetPoint" />
          </mxGeometry>
        </mxCell>
        <mxCell id="gBEdq5ZTxUluI_XgzyKd-162" value="" style="endArrow=none;html=1;strokeWidth=1;rounded=0;jumpSize=0;opacity=10;flowAnimation=0;shadow=0;jumpStyle=none;dashed=1;dashPattern=1 1;curved=0;" parent="1" edge="1">
          <mxGeometry width="50" height="50" relative="1" as="geometry">
            <mxPoint x="240" y="160" as="sourcePoint" />
            <mxPoint x="260" y="80" as="targetPoint" />
          </mxGeometry>
        </mxCell>
        <mxCell id="gBEdq5ZTxUluI_XgzyKd-164" value="" style="endArrow=none;html=1;strokeWidth=1;rounded=0;jumpSize=0;opacity=10;flowAnimation=0;shadow=0;jumpStyle=none;dashed=1;dashPattern=1 1;" parent="1" edge="1">
          <mxGeometry width="50" height="50" relative="1" as="geometry">
            <mxPoint x="110" y="160" as="sourcePoint" />
            <mxPoint x="90" y="80" as="targetPoint" />
          </mxGeometry>
        </mxCell>
        <mxCell id="gBEdq5ZTxUluI_XgzyKd-165" value="" style="endArrow=none;html=1;strokeWidth=1;rounded=0;jumpSize=0;opacity=10;flowAnimation=0;shadow=0;jumpStyle=none;dashed=1;dashPattern=1 1;" parent="1" edge="1">
          <mxGeometry width="50" height="50" relative="1" as="geometry">
            <mxPoint x="130" y="160" as="sourcePoint" />
            <mxPoint x="110" y="80" as="targetPoint" />
          </mxGeometry>
        </mxCell>
        <mxCell id="gBEdq5ZTxUluI_XgzyKd-166" value="" style="endArrow=none;html=1;strokeWidth=1;rounded=0;jumpSize=0;opacity=10;flowAnimation=0;shadow=0;jumpStyle=none;dashed=1;dashPattern=1 1;" parent="1" edge="1">
          <mxGeometry width="50" height="50" relative="1" as="geometry">
            <mxPoint x="150" y="160" as="sourcePoint" />
            <mxPoint x="130" y="80" as="targetPoint" />
          </mxGeometry>
        </mxCell>
        <mxCell id="gBEdq5ZTxUluI_XgzyKd-167" value="" style="endArrow=none;html=1;strokeWidth=1;rounded=0;jumpSize=0;opacity=10;flowAnimation=0;shadow=0;jumpStyle=none;dashed=1;dashPattern=1 1;" parent="1" edge="1">
          <mxGeometry width="50" height="50" relative="1" as="geometry">
            <mxPoint x="170" y="160" as="sourcePoint" />
            <mxPoint x="150" y="80" as="targetPoint" />
          </mxGeometry>
        </mxCell>
        <mxCell id="gBEdq5ZTxUluI_XgzyKd-168" value="" style="endArrow=none;html=1;strokeWidth=1;rounded=0;jumpSize=0;opacity=10;flowAnimation=0;shadow=0;jumpStyle=none;dashed=1;dashPattern=1 1;" parent="1" edge="1">
          <mxGeometry width="50" height="50" relative="1" as="geometry">
            <mxPoint x="190" y="160" as="sourcePoint" />
            <mxPoint x="170" y="80" as="targetPoint" />
          </mxGeometry>
        </mxCell>
        <mxCell id="gBEdq5ZTxUluI_XgzyKd-169" value="" style="endArrow=none;html=1;strokeWidth=1;rounded=0;jumpSize=0;opacity=10;flowAnimation=0;shadow=0;jumpStyle=none;dashed=1;dashPattern=1 1;" parent="1" edge="1">
          <mxGeometry width="50" height="50" relative="1" as="geometry">
            <mxPoint x="210" y="160" as="sourcePoint" />
            <mxPoint x="190" y="80" as="targetPoint" />
          </mxGeometry>
        </mxCell>
        <mxCell id="gBEdq5ZTxUluI_XgzyKd-170" value="" style="endArrow=none;html=1;strokeWidth=1;rounded=0;jumpSize=0;opacity=10;flowAnimation=0;shadow=0;jumpStyle=none;dashed=1;dashPattern=1 1;" parent="1" edge="1">
          <mxGeometry width="50" height="50" relative="1" as="geometry">
            <mxPoint x="230" y="160" as="sourcePoint" />
            <mxPoint x="210" y="80" as="targetPoint" />
          </mxGeometry>
        </mxCell>
        <mxCell id="gBEdq5ZTxUluI_XgzyKd-171" value="" style="endArrow=none;html=1;strokeWidth=1;rounded=0;jumpSize=0;opacity=10;flowAnimation=0;shadow=0;jumpStyle=none;dashed=1;dashPattern=1 1;" parent="1" edge="1">
          <mxGeometry width="50" height="50" relative="1" as="geometry">
            <mxPoint x="220" y="160" as="sourcePoint" />
            <mxPoint x="200" y="80" as="targetPoint" />
          </mxGeometry>
        </mxCell>
        <mxCell id="gBEdq5ZTxUluI_XgzyKd-172" value="" style="endArrow=none;html=1;strokeWidth=1;rounded=0;jumpSize=0;opacity=10;flowAnimation=0;shadow=0;jumpStyle=none;dashed=1;dashPattern=1 1;" parent="1" edge="1">
          <mxGeometry width="50" height="50" relative="1" as="geometry">
            <mxPoint x="120" y="160" as="sourcePoint" />
            <mxPoint x="100" y="80" as="targetPoint" />
          </mxGeometry>
        </mxCell>
        <mxCell id="gBEdq5ZTxUluI_XgzyKd-175" value="" style="endArrow=none;html=1;strokeWidth=1;rounded=0;jumpSize=0;opacity=10;flowAnimation=0;shadow=0;jumpStyle=none;dashed=1;dashPattern=1 1;" parent="1" source="gBEdq5ZTxUluI_XgzyKd-269" edge="1">
          <mxGeometry width="50" height="50" relative="1" as="geometry">
            <mxPoint x="140" y="160" as="sourcePoint" />
            <mxPoint x="120" y="80" as="targetPoint" />
          </mxGeometry>
        </mxCell>
        <mxCell id="gBEdq5ZTxUluI_XgzyKd-176" value="" style="endArrow=none;html=1;strokeWidth=1;rounded=0;jumpSize=0;opacity=10;flowAnimation=0;shadow=0;jumpStyle=none;dashed=1;dashPattern=1 1;" parent="1" source="gBEdq5ZTxUluI_XgzyKd-271" edge="1">
          <mxGeometry width="50" height="50" relative="1" as="geometry">
            <mxPoint x="160" y="160" as="sourcePoint" />
            <mxPoint x="140" y="80" as="targetPoint" />
          </mxGeometry>
        </mxCell>
        <mxCell id="gBEdq5ZTxUluI_XgzyKd-177" value="" style="endArrow=none;html=1;strokeWidth=1;rounded=0;jumpSize=0;opacity=10;flowAnimation=0;shadow=0;jumpStyle=none;dashed=1;dashPattern=1 1;" parent="1" source="gBEdq5ZTxUluI_XgzyKd-273" edge="1">
          <mxGeometry width="50" height="50" relative="1" as="geometry">
            <mxPoint x="180" y="160" as="sourcePoint" />
            <mxPoint x="160" y="80" as="targetPoint" />
          </mxGeometry>
        </mxCell>
        <mxCell id="gBEdq5ZTxUluI_XgzyKd-178" value="" style="endArrow=none;html=1;strokeWidth=1;rounded=0;jumpSize=0;opacity=10;flowAnimation=0;shadow=0;jumpStyle=none;dashed=1;dashPattern=1 1;" parent="1" source="gBEdq5ZTxUluI_XgzyKd-275" edge="1">
          <mxGeometry width="50" height="50" relative="1" as="geometry">
            <mxPoint x="200" y="160" as="sourcePoint" />
            <mxPoint x="180" y="80" as="targetPoint" />
          </mxGeometry>
        </mxCell>
        <mxCell id="gBEdq5ZTxUluI_XgzyKd-179" value="" style="endArrow=none;html=1;strokeWidth=1;rounded=0;jumpSize=0;opacity=10;flowAnimation=0;shadow=0;jumpStyle=none;dashed=1;dashPattern=1 1;fontColor=#00CC00;" parent="1" source="VE2V3sf3IiLMLohbHc8v-87" edge="1">
          <mxGeometry width="50" height="50" relative="1" as="geometry">
            <mxPoint x="240" y="160" as="sourcePoint" />
            <mxPoint x="220" y="80" as="targetPoint" />
          </mxGeometry>
        </mxCell>
        <mxCell id="gBEdq5ZTxUluI_XgzyKd-183" value="" style="endArrow=none;html=1;strokeWidth=1;rounded=0;jumpSize=0;opacity=10;flowAnimation=0;shadow=0;jumpStyle=none;dashed=1;dashPattern=1 1;" parent="1" edge="1">
          <mxGeometry width="50" height="50" relative="1" as="geometry">
            <mxPoint x="90" y="240" as="sourcePoint" />
            <mxPoint x="100" y="160" as="targetPoint" />
          </mxGeometry>
        </mxCell>
        <mxCell id="gBEdq5ZTxUluI_XgzyKd-184" value="" style="endArrow=none;html=1;strokeWidth=1;rounded=0;jumpSize=0;opacity=10;flowAnimation=0;shadow=0;jumpStyle=none;dashed=1;dashPattern=1 1;" parent="1" target="gBEdq5ZTxUluI_XgzyKd-182" edge="1">
          <mxGeometry width="50" height="50" relative="1" as="geometry">
            <mxPoint x="110" y="235" as="sourcePoint" />
            <mxPoint x="100" y="160" as="targetPoint" />
          </mxGeometry>
        </mxCell>
        <mxCell id="gBEdq5ZTxUluI_XgzyKd-182" value="&lt;font style=&quot;font-size: 5px;&quot;&gt;0&lt;/font&gt;" style="text;html=1;align=center;verticalAlign=middle;whiteSpace=wrap;rounded=0;fontColor=#00CC00;" parent="1" vertex="1">
          <mxGeometry x="100" y="160" as="geometry" />
        </mxCell>
        <mxCell id="gBEdq5ZTxUluI_XgzyKd-185" value="&lt;font style=&quot;font-size: 5px;&quot;&gt;p1x&lt;/font&gt;" style="text;html=1;align=center;verticalAlign=middle;whiteSpace=wrap;rounded=0;fontColor=#3399FF;" parent="1" vertex="1">
          <mxGeometry x="30" y="155" as="geometry" />
        </mxCell>
        <mxCell id="gBEdq5ZTxUluI_XgzyKd-186" value="&lt;font style=&quot;font-size: 5px;&quot;&gt;p2x&lt;/font&gt;" style="text;html=1;align=center;verticalAlign=middle;whiteSpace=wrap;rounded=0;fontColor=#00CC00;" parent="1" vertex="1">
          <mxGeometry x="30" y="160" as="geometry" />
        </mxCell>
        <mxCell id="gBEdq5ZTxUluI_XgzyKd-187" value="&lt;font style=&quot;font-size: 5px;&quot;&gt;14&lt;/font&gt;" style="text;html=1;align=center;verticalAlign=middle;whiteSpace=wrap;rounded=0;fontColor=#3399FF;" parent="1" vertex="1">
          <mxGeometry x="220" y="75" as="geometry" />
        </mxCell>
        <mxCell id="gBEdq5ZTxUluI_XgzyKd-188" value="&lt;font style=&quot;font-size: 5px;&quot;&gt;15&lt;/font&gt;" style="text;html=1;align=center;verticalAlign=middle;whiteSpace=wrap;rounded=0;fontColor=#3399FF;" parent="1" vertex="1">
          <mxGeometry x="230" y="75" as="geometry" />
        </mxCell>
        <mxCell id="gBEdq5ZTxUluI_XgzyKd-189" value="&lt;font style=&quot;font-size: 5px;&quot;&gt;client time&lt;br&gt;&lt;/font&gt;" style="text;html=1;align=center;verticalAlign=middle;whiteSpace=wrap;rounded=0;fontColor=#3399FF;" parent="1" vertex="1">
          <mxGeometry x="20" y="70" width="30" as="geometry" />
        </mxCell>
        <mxCell id="gBEdq5ZTxUluI_XgzyKd-190" value="&lt;font style=&quot;font-size: 5px;&quot;&gt;client time&lt;br&gt;&lt;/font&gt;" style="text;html=1;align=center;verticalAlign=middle;whiteSpace=wrap;rounded=0;fontColor=#00CC00;" parent="1" vertex="1">
          <mxGeometry x="20" y="250" width="30" as="geometry" />
        </mxCell>
        <mxCell id="gBEdq5ZTxUluI_XgzyKd-234" value="&lt;font style=&quot;font-size: 5px;&quot;&gt;170&lt;/font&gt;" style="text;html=1;align=center;verticalAlign=middle;whiteSpace=wrap;rounded=0;fontColor=#3399FF;" parent="1" vertex="1">
          <mxGeometry x="80" y="70" as="geometry" />
        </mxCell>
        <mxCell id="gBEdq5ZTxUluI_XgzyKd-235" value="&lt;font style=&quot;font-size: 5px;&quot;&gt;180&lt;/font&gt;" style="text;html=1;align=center;verticalAlign=middle;whiteSpace=wrap;rounded=0;fontColor=#3399FF;" parent="1" vertex="1">
          <mxGeometry x="90" y="70" as="geometry" />
        </mxCell>
        <mxCell id="gBEdq5ZTxUluI_XgzyKd-236" value="&lt;font style=&quot;font-size: 5px;&quot;&gt;190&lt;/font&gt;" style="text;html=1;align=center;verticalAlign=middle;whiteSpace=wrap;rounded=0;fontColor=#3399FF;" parent="1" vertex="1">
          <mxGeometry x="100" y="70" as="geometry" />
        </mxCell>
        <mxCell id="gBEdq5ZTxUluI_XgzyKd-237" value="&lt;font style=&quot;font-size: 5px;&quot;&gt;200&lt;/font&gt;" style="text;html=1;align=center;verticalAlign=middle;whiteSpace=wrap;rounded=0;fontColor=#3399FF;" parent="1" vertex="1">
          <mxGeometry x="110" y="70" as="geometry" />
        </mxCell>
        <mxCell id="gBEdq5ZTxUluI_XgzyKd-238" value="&lt;font style=&quot;font-size: 5px;&quot;&gt;210&lt;/font&gt;" style="text;html=1;align=center;verticalAlign=middle;whiteSpace=wrap;rounded=0;fontColor=#3399FF;" parent="1" vertex="1">
          <mxGeometry x="120" y="70" as="geometry" />
        </mxCell>
        <mxCell id="gBEdq5ZTxUluI_XgzyKd-239" value="&lt;font style=&quot;font-size: 5px;&quot;&gt;220&lt;/font&gt;" style="text;html=1;align=center;verticalAlign=middle;whiteSpace=wrap;rounded=0;fontColor=#3399FF;" parent="1" vertex="1">
          <mxGeometry x="130" y="70" as="geometry" />
        </mxCell>
        <mxCell id="gBEdq5ZTxUluI_XgzyKd-240" value="&lt;font style=&quot;font-size: 5px;&quot;&gt;230&lt;/font&gt;" style="text;html=1;align=center;verticalAlign=middle;whiteSpace=wrap;rounded=0;fontColor=#3399FF;" parent="1" vertex="1">
          <mxGeometry x="140" y="70" as="geometry" />
        </mxCell>
        <mxCell id="gBEdq5ZTxUluI_XgzyKd-241" value="&lt;font style=&quot;font-size: 5px;&quot;&gt;240&lt;/font&gt;" style="text;html=1;align=center;verticalAlign=middle;whiteSpace=wrap;rounded=0;fontColor=#3399FF;" parent="1" vertex="1">
          <mxGeometry x="150" y="70" as="geometry" />
        </mxCell>
        <mxCell id="gBEdq5ZTxUluI_XgzyKd-242" value="&lt;font style=&quot;font-size: 5px;&quot;&gt;250&lt;/font&gt;" style="text;html=1;align=center;verticalAlign=middle;whiteSpace=wrap;rounded=0;fontColor=#3399FF;" parent="1" vertex="1">
          <mxGeometry x="160" y="70" as="geometry" />
        </mxCell>
        <mxCell id="gBEdq5ZTxUluI_XgzyKd-243" value="&lt;font style=&quot;font-size: 5px;&quot;&gt;260&lt;/font&gt;" style="text;html=1;align=center;verticalAlign=middle;whiteSpace=wrap;rounded=0;fontColor=#3399FF;" parent="1" vertex="1">
          <mxGeometry x="170" y="70" as="geometry" />
        </mxCell>
        <mxCell id="gBEdq5ZTxUluI_XgzyKd-244" value="&lt;font style=&quot;font-size: 5px;&quot;&gt;270&lt;/font&gt;" style="text;html=1;align=center;verticalAlign=middle;whiteSpace=wrap;rounded=0;fontColor=#3399FF;" parent="1" vertex="1">
          <mxGeometry x="180" y="70" as="geometry" />
        </mxCell>
        <mxCell id="gBEdq5ZTxUluI_XgzyKd-245" value="&lt;font style=&quot;font-size: 5px;&quot;&gt;280&lt;/font&gt;" style="text;html=1;align=center;verticalAlign=middle;whiteSpace=wrap;rounded=0;fontColor=#3399FF;" parent="1" vertex="1">
          <mxGeometry x="190" y="70" as="geometry" />
        </mxCell>
        <mxCell id="gBEdq5ZTxUluI_XgzyKd-246" value="&lt;font style=&quot;font-size: 5px;&quot;&gt;290&lt;/font&gt;" style="text;html=1;align=center;verticalAlign=middle;whiteSpace=wrap;rounded=0;fontColor=#3399FF;" parent="1" vertex="1">
          <mxGeometry x="200" y="70" as="geometry" />
        </mxCell>
        <mxCell id="gBEdq5ZTxUluI_XgzyKd-247" value="&lt;font style=&quot;font-size: 5px;&quot;&gt;300&lt;/font&gt;" style="text;html=1;align=center;verticalAlign=middle;whiteSpace=wrap;rounded=0;fontColor=#3399FF;" parent="1" vertex="1">
          <mxGeometry x="210" y="70" as="geometry" />
        </mxCell>
        <mxCell id="gBEdq5ZTxUluI_XgzyKd-248" value="&lt;font style=&quot;font-size: 5px;&quot;&gt;310&lt;/font&gt;" style="text;html=1;align=center;verticalAlign=middle;whiteSpace=wrap;rounded=0;fontColor=#3399FF;" parent="1" vertex="1">
          <mxGeometry x="220" y="70" as="geometry" />
        </mxCell>
        <mxCell id="gBEdq5ZTxUluI_XgzyKd-249" value="&lt;font style=&quot;font-size: 5px;&quot;&gt;320&lt;/font&gt;" style="text;html=1;align=center;verticalAlign=middle;whiteSpace=wrap;rounded=0;fontColor=#3399FF;" parent="1" vertex="1">
          <mxGeometry x="230" y="70" as="geometry" />
        </mxCell>
        <mxCell id="gBEdq5ZTxUluI_XgzyKd-250" value="&lt;font style=&quot;font-size: 5px;&quot;&gt;330&lt;/font&gt;" style="text;html=1;align=center;verticalAlign=middle;whiteSpace=wrap;rounded=0;fontColor=#3399FF;" parent="1" vertex="1">
          <mxGeometry x="240" y="70" as="geometry" />
        </mxCell>
        <mxCell id="gBEdq5ZTxUluI_XgzyKd-251" value="&lt;font style=&quot;font-size: 5px;&quot;&gt;210&lt;/font&gt;" style="text;html=1;align=center;verticalAlign=middle;whiteSpace=wrap;rounded=0;fontColor=#00CC00;" parent="1" vertex="1">
          <mxGeometry x="110" y="250" as="geometry" />
        </mxCell>
        <mxCell id="gBEdq5ZTxUluI_XgzyKd-252" value="&lt;font style=&quot;font-size: 5px;&quot;&gt;220&lt;/font&gt;" style="text;html=1;align=center;verticalAlign=middle;whiteSpace=wrap;rounded=0;fontColor=#00CC00;" parent="1" vertex="1">
          <mxGeometry x="120" y="250" as="geometry" />
        </mxCell>
        <mxCell id="gBEdq5ZTxUluI_XgzyKd-253" value="&lt;font style=&quot;font-size: 5px;&quot;&gt;230&lt;/font&gt;" style="text;html=1;align=center;verticalAlign=middle;whiteSpace=wrap;rounded=0;fontColor=#00CC00;" parent="1" vertex="1">
          <mxGeometry x="130" y="250" as="geometry" />
        </mxCell>
        <mxCell id="gBEdq5ZTxUluI_XgzyKd-254" value="&lt;font style=&quot;font-size: 5px;&quot;&gt;240&lt;/font&gt;" style="text;html=1;align=center;verticalAlign=middle;whiteSpace=wrap;rounded=0;fontColor=#00CC00;" parent="1" vertex="1">
          <mxGeometry x="140" y="250" as="geometry" />
        </mxCell>
        <mxCell id="gBEdq5ZTxUluI_XgzyKd-255" value="&lt;font style=&quot;font-size: 5px;&quot;&gt;250&lt;/font&gt;" style="text;html=1;align=center;verticalAlign=middle;whiteSpace=wrap;rounded=0;fontColor=#00CC00;" parent="1" vertex="1">
          <mxGeometry x="150" y="250" as="geometry" />
        </mxCell>
        <mxCell id="gBEdq5ZTxUluI_XgzyKd-256" value="&lt;font style=&quot;font-size: 5px;&quot;&gt;260&lt;/font&gt;" style="text;html=1;align=center;verticalAlign=middle;whiteSpace=wrap;rounded=0;fontColor=#00CC00;" parent="1" vertex="1">
          <mxGeometry x="160" y="250" as="geometry" />
        </mxCell>
        <mxCell id="gBEdq5ZTxUluI_XgzyKd-257" value="&lt;font style=&quot;font-size: 5px;&quot;&gt;270&lt;/font&gt;" style="text;html=1;align=center;verticalAlign=middle;whiteSpace=wrap;rounded=0;fontColor=#00CC00;" parent="1" vertex="1">
          <mxGeometry x="170" y="250" as="geometry" />
        </mxCell>
        <mxCell id="gBEdq5ZTxUluI_XgzyKd-258" value="&lt;font style=&quot;font-size: 5px;&quot;&gt;280&lt;/font&gt;" style="text;html=1;align=center;verticalAlign=middle;whiteSpace=wrap;rounded=0;fontColor=#00CC00;" parent="1" vertex="1">
          <mxGeometry x="180" y="250" as="geometry" />
        </mxCell>
        <mxCell id="gBEdq5ZTxUluI_XgzyKd-259" value="&lt;font style=&quot;font-size: 5px;&quot;&gt;290&lt;/font&gt;" style="text;html=1;align=center;verticalAlign=middle;whiteSpace=wrap;rounded=0;fontColor=#00CC00;" parent="1" vertex="1">
          <mxGeometry x="190" y="250" as="geometry" />
        </mxCell>
        <mxCell id="gBEdq5ZTxUluI_XgzyKd-260" value="&lt;font style=&quot;font-size: 5px;&quot;&gt;300&lt;/font&gt;" style="text;html=1;align=center;verticalAlign=middle;whiteSpace=wrap;rounded=0;fontColor=#00CC00;" parent="1" vertex="1">
          <mxGeometry x="200" y="250" as="geometry" />
        </mxCell>
        <mxCell id="gBEdq5ZTxUluI_XgzyKd-261" value="&lt;font style=&quot;font-size: 5px;&quot;&gt;310&lt;/font&gt;" style="text;html=1;align=center;verticalAlign=middle;whiteSpace=wrap;rounded=0;fontColor=#00CC00;" parent="1" vertex="1">
          <mxGeometry x="210" y="250" as="geometry" />
        </mxCell>
        <mxCell id="gBEdq5ZTxUluI_XgzyKd-262" value="&lt;font style=&quot;font-size: 5px;&quot;&gt;320&lt;/font&gt;" style="text;html=1;align=center;verticalAlign=middle;whiteSpace=wrap;rounded=0;fontColor=#00CC00;" parent="1" vertex="1">
          <mxGeometry x="220" y="250" as="geometry" />
        </mxCell>
        <mxCell id="gBEdq5ZTxUluI_XgzyKd-263" value="&lt;font style=&quot;font-size: 5px;&quot;&gt;330&lt;/font&gt;" style="text;html=1;align=center;verticalAlign=middle;whiteSpace=wrap;rounded=0;fontColor=#00CC00;" parent="1" vertex="1">
          <mxGeometry x="230" y="250" as="geometry" />
        </mxCell>
        <mxCell id="gBEdq5ZTxUluI_XgzyKd-264" value="&lt;font style=&quot;font-size: 5px;&quot;&gt;340&lt;/font&gt;" style="text;html=1;align=center;verticalAlign=middle;whiteSpace=wrap;rounded=0;fontColor=#00CC00;" parent="1" vertex="1">
          <mxGeometry x="240" y="250" as="geometry" />
        </mxCell>
        <mxCell id="gBEdq5ZTxUluI_XgzyKd-265" value="&lt;font style=&quot;font-size: 5px;&quot;&gt;350&lt;/font&gt;" style="text;html=1;align=center;verticalAlign=middle;whiteSpace=wrap;rounded=0;fontColor=#00CC00;" parent="1" vertex="1">
          <mxGeometry x="250" y="250" as="geometry" />
        </mxCell>
        <mxCell id="gBEdq5ZTxUluI_XgzyKd-266" value="&lt;font style=&quot;font-size: 5px;&quot;&gt;360&lt;/font&gt;" style="text;html=1;align=center;verticalAlign=middle;whiteSpace=wrap;rounded=0;fontColor=#00CC00;" parent="1" vertex="1">
          <mxGeometry x="260" y="250" as="geometry" />
        </mxCell>
        <mxCell id="gBEdq5ZTxUluI_XgzyKd-268" value="" style="endArrow=none;html=1;strokeWidth=1;rounded=0;jumpSize=0;opacity=10;flowAnimation=0;shadow=0;jumpStyle=none;dashed=1;dashPattern=1 1;curved=0;" parent="1" target="gBEdq5ZTxUluI_XgzyKd-267" edge="1">
          <mxGeometry width="50" height="50" relative="1" as="geometry">
            <mxPoint x="120" y="160" as="sourcePoint" />
            <mxPoint x="140" y="80" as="targetPoint" />
          </mxGeometry>
        </mxCell>
        <mxCell id="gBEdq5ZTxUluI_XgzyKd-267" value="&lt;font style=&quot;font-size: 5px;&quot;&gt;1&lt;/font&gt;" style="text;html=1;align=center;verticalAlign=middle;whiteSpace=wrap;rounded=0;fontColor=#3399FF;" parent="1" vertex="1">
          <mxGeometry x="120" y="155" as="geometry" />
        </mxCell>
        <mxCell id="gBEdq5ZTxUluI_XgzyKd-270" value="" style="endArrow=none;html=1;strokeWidth=1;rounded=0;jumpSize=0;opacity=10;flowAnimation=0;shadow=0;jumpStyle=none;dashed=1;dashPattern=1 1;" parent="1" target="gBEdq5ZTxUluI_XgzyKd-269" edge="1">
          <mxGeometry width="50" height="50" relative="1" as="geometry">
            <mxPoint x="140" y="160" as="sourcePoint" />
            <mxPoint x="120" y="80" as="targetPoint" />
          </mxGeometry>
        </mxCell>
        <mxCell id="gBEdq5ZTxUluI_XgzyKd-269" value="&lt;font style=&quot;font-size: 5px;&quot;&gt;3&lt;/font&gt;" style="text;html=1;align=center;verticalAlign=middle;whiteSpace=wrap;rounded=0;fontColor=#3399FF;" parent="1" vertex="1">
          <mxGeometry x="140" y="155" as="geometry" />
        </mxCell>
        <mxCell id="gBEdq5ZTxUluI_XgzyKd-272" value="" style="endArrow=none;html=1;strokeWidth=1;rounded=0;jumpSize=0;opacity=10;flowAnimation=0;shadow=0;jumpStyle=none;dashed=1;dashPattern=1 1;" parent="1" target="gBEdq5ZTxUluI_XgzyKd-271" edge="1">
          <mxGeometry width="50" height="50" relative="1" as="geometry">
            <mxPoint x="160" y="160" as="sourcePoint" />
            <mxPoint x="140" y="80" as="targetPoint" />
          </mxGeometry>
        </mxCell>
        <mxCell id="gBEdq5ZTxUluI_XgzyKd-271" value="&lt;font style=&quot;font-size: 5px;&quot;&gt;5&lt;/font&gt;" style="text;html=1;align=center;verticalAlign=middle;whiteSpace=wrap;rounded=0;fontColor=#3399FF;" parent="1" vertex="1">
          <mxGeometry x="160" y="155" as="geometry" />
        </mxCell>
        <mxCell id="gBEdq5ZTxUluI_XgzyKd-274" value="" style="endArrow=none;html=1;strokeWidth=1;rounded=0;jumpSize=0;opacity=10;flowAnimation=0;shadow=0;jumpStyle=none;dashed=1;dashPattern=1 1;" parent="1" target="gBEdq5ZTxUluI_XgzyKd-273" edge="1">
          <mxGeometry width="50" height="50" relative="1" as="geometry">
            <mxPoint x="180" y="160" as="sourcePoint" />
            <mxPoint x="160" y="80" as="targetPoint" />
          </mxGeometry>
        </mxCell>
        <mxCell id="gBEdq5ZTxUluI_XgzyKd-273" value="&lt;font style=&quot;font-size: 5px;&quot;&gt;7&lt;/font&gt;" style="text;html=1;align=center;verticalAlign=middle;whiteSpace=wrap;rounded=0;fontColor=#3399FF;" parent="1" vertex="1">
          <mxGeometry x="180" y="155" as="geometry" />
        </mxCell>
        <mxCell id="gBEdq5ZTxUluI_XgzyKd-276" value="" style="endArrow=none;html=1;strokeWidth=1;rounded=0;jumpSize=0;opacity=10;flowAnimation=0;shadow=0;jumpStyle=none;dashed=1;dashPattern=1 1;" parent="1" target="gBEdq5ZTxUluI_XgzyKd-275" edge="1">
          <mxGeometry width="50" height="50" relative="1" as="geometry">
            <mxPoint x="200" y="160" as="sourcePoint" />
            <mxPoint x="180" y="80" as="targetPoint" />
          </mxGeometry>
        </mxCell>
        <mxCell id="gBEdq5ZTxUluI_XgzyKd-275" value="&lt;font style=&quot;font-size: 5px;&quot;&gt;9&lt;/font&gt;" style="text;html=1;align=center;verticalAlign=middle;whiteSpace=wrap;rounded=0;fontColor=#3399FF;" parent="1" vertex="1">
          <mxGeometry x="200" y="155" as="geometry" />
        </mxCell>
        <mxCell id="gBEdq5ZTxUluI_XgzyKd-278" value="" style="endArrow=none;html=1;strokeWidth=1;rounded=0;jumpSize=0;opacity=10;flowAnimation=0;shadow=0;jumpStyle=none;dashed=1;dashPattern=1 1;curved=0;" parent="1" target="gBEdq5ZTxUluI_XgzyKd-277" edge="1">
          <mxGeometry width="50" height="50" relative="1" as="geometry">
            <mxPoint x="220" y="160" as="sourcePoint" />
            <mxPoint x="240" y="80" as="targetPoint" />
          </mxGeometry>
        </mxCell>
        <mxCell id="gBEdq5ZTxUluI_XgzyKd-277" value="&lt;font style=&quot;font-size: 5px;&quot;&gt;11&lt;/font&gt;" style="text;html=1;align=center;verticalAlign=middle;whiteSpace=wrap;rounded=0;fontColor=#3399FF;" parent="1" vertex="1">
          <mxGeometry x="220" y="155" as="geometry" />
        </mxCell>
        <mxCell id="gBEdq5ZTxUluI_XgzyKd-280" value="" style="endArrow=none;html=1;strokeWidth=1;rounded=0;jumpSize=0;opacity=10;flowAnimation=0;shadow=0;jumpStyle=none;dashed=1;dashPattern=1 1;" parent="1" target="gBEdq5ZTxUluI_XgzyKd-279" edge="1">
          <mxGeometry width="50" height="50" relative="1" as="geometry">
            <mxPoint x="240" y="160" as="sourcePoint" />
            <mxPoint x="220" y="80" as="targetPoint" />
          </mxGeometry>
        </mxCell>
        <mxCell id="gBEdq5ZTxUluI_XgzyKd-279" value="&lt;font style=&quot;font-size: 5px;&quot;&gt;13&lt;/font&gt;" style="text;html=1;align=center;verticalAlign=middle;whiteSpace=wrap;rounded=0;fontColor=#3399FF;" parent="1" vertex="1">
          <mxGeometry x="240" y="155" as="geometry" />
        </mxCell>
        <mxCell id="gBEdq5ZTxUluI_XgzyKd-282" value="&lt;font style=&quot;font-size: 5px;&quot;&gt;0&lt;/font&gt;" style="text;html=1;align=center;verticalAlign=middle;whiteSpace=wrap;rounded=0;fontColor=#00CC00;" parent="1" vertex="1">
          <mxGeometry x="120" y="160" as="geometry" />
        </mxCell>
        <mxCell id="gBEdq5ZTxUluI_XgzyKd-283" value="&lt;font style=&quot;font-size: 5px;&quot;&gt;0&lt;/font&gt;" style="text;html=1;align=center;verticalAlign=middle;whiteSpace=wrap;rounded=0;fontColor=#00CC00;" parent="1" vertex="1">
          <mxGeometry x="140" y="160" as="geometry" />
        </mxCell>
        <mxCell id="gBEdq5ZTxUluI_XgzyKd-285" value="" style="endArrow=none;html=1;strokeWidth=1;rounded=0;jumpSize=0;opacity=10;flowAnimation=0;shadow=0;jumpStyle=none;dashed=1;dashPattern=1 1;" parent="1" target="gBEdq5ZTxUluI_XgzyKd-284" edge="1">
          <mxGeometry width="50" height="50" relative="1" as="geometry">
            <mxPoint x="150" y="235" as="sourcePoint" />
            <mxPoint x="160" y="160" as="targetPoint" />
          </mxGeometry>
        </mxCell>
        <mxCell id="gBEdq5ZTxUluI_XgzyKd-284" value="&lt;font style=&quot;font-size: 5px;&quot;&gt;1&lt;/font&gt;" style="text;html=1;align=center;verticalAlign=middle;whiteSpace=wrap;rounded=0;fontColor=#00CC00;" parent="1" vertex="1">
          <mxGeometry x="160" y="160" as="geometry" />
        </mxCell>
        <mxCell id="gBEdq5ZTxUluI_XgzyKd-287" value="" style="endArrow=none;html=1;strokeWidth=1;rounded=0;jumpSize=0;opacity=10;flowAnimation=0;shadow=0;jumpStyle=none;dashed=1;dashPattern=1 1;" parent="1" target="gBEdq5ZTxUluI_XgzyKd-286" edge="1">
          <mxGeometry width="50" height="50" relative="1" as="geometry">
            <mxPoint x="190" y="235" as="sourcePoint" />
            <mxPoint x="180" y="160" as="targetPoint" />
          </mxGeometry>
        </mxCell>
        <mxCell id="gBEdq5ZTxUluI_XgzyKd-286" value="&lt;font style=&quot;font-size: 5px;&quot;&gt;3&lt;/font&gt;" style="text;html=1;align=center;verticalAlign=middle;whiteSpace=wrap;rounded=0;fontColor=#00CC00;" parent="1" vertex="1">
          <mxGeometry x="180" y="160" as="geometry" />
        </mxCell>
        <mxCell id="gBEdq5ZTxUluI_XgzyKd-288" value="&lt;font style=&quot;font-size: 5px;&quot;&gt;5&lt;/font&gt;" style="text;html=1;align=center;verticalAlign=middle;whiteSpace=wrap;rounded=0;fontColor=#00CC00;" parent="1" vertex="1">
          <mxGeometry x="200" y="160" as="geometry" />
        </mxCell>
        <mxCell id="gBEdq5ZTxUluI_XgzyKd-291" value="" style="endArrow=none;html=1;strokeWidth=1;rounded=0;jumpSize=0;opacity=10;flowAnimation=0;shadow=0;jumpStyle=none;dashed=1;dashPattern=1 1;" parent="1" target="gBEdq5ZTxUluI_XgzyKd-290" edge="1">
          <mxGeometry width="50" height="50" relative="1" as="geometry">
            <mxPoint x="230" y="240" as="sourcePoint" />
            <mxPoint x="220" y="160" as="targetPoint" />
          </mxGeometry>
        </mxCell>
        <mxCell id="gBEdq5ZTxUluI_XgzyKd-293" value="" style="endArrow=none;html=1;strokeWidth=1;rounded=0;jumpSize=0;opacity=10;flowAnimation=0;shadow=0;jumpStyle=none;dashed=1;dashPattern=1 1;" parent="1" target="gBEdq5ZTxUluI_XgzyKd-292" edge="1">
          <mxGeometry width="50" height="50" relative="1" as="geometry">
            <mxPoint x="230" y="235" as="sourcePoint" />
            <mxPoint x="240" y="160" as="targetPoint" />
          </mxGeometry>
        </mxCell>
        <mxCell id="gBEdq5ZTxUluI_XgzyKd-292" value="&lt;font style=&quot;font-size: 5px;&quot;&gt;9&lt;/font&gt;" style="text;html=1;align=center;verticalAlign=middle;whiteSpace=wrap;rounded=0;fontColor=#00CC00;" parent="1" vertex="1">
          <mxGeometry x="240" y="160" as="geometry" />
        </mxCell>
        <mxCell id="gBEdq5ZTxUluI_XgzyKd-295" value="&lt;font style=&quot;font-size: 5px;&quot;&gt;1&lt;/font&gt;" style="text;html=1;align=center;verticalAlign=middle;whiteSpace=wrap;rounded=0;fontColor=#00CC00;" parent="1" vertex="1">
          <mxGeometry x="229.95" y="80" as="geometry" />
        </mxCell>
        <mxCell id="gBEdq5ZTxUluI_XgzyKd-297" value="&lt;font style=&quot;font-size: 5px;&quot;&gt;3&lt;/font&gt;" style="text;html=1;align=center;verticalAlign=middle;whiteSpace=wrap;rounded=0;fontColor=#00CC00;" parent="1" vertex="1">
          <mxGeometry x="249.95" y="80" as="geometry" />
        </mxCell>
        <mxCell id="gBEdq5ZTxUluI_XgzyKd-299" value="&lt;font style=&quot;font-size: 5px;&quot;&gt;5&lt;/font&gt;" style="text;html=1;align=center;verticalAlign=middle;whiteSpace=wrap;rounded=0;fontColor=#00CC00;" parent="1" vertex="1">
          <mxGeometry x="269.95" y="80" as="geometry" />
        </mxCell>
        <mxCell id="gBEdq5ZTxUluI_XgzyKd-301" value="&lt;font style=&quot;font-size: 5px;&quot;&gt;7&lt;/font&gt;" style="text;html=1;align=center;verticalAlign=middle;whiteSpace=wrap;rounded=0;fontColor=#00CC00;" parent="1" vertex="1">
          <mxGeometry x="289.95" y="80" as="geometry" />
        </mxCell>
        <mxCell id="gBEdq5ZTxUluI_XgzyKd-303" value="&lt;font style=&quot;font-size: 5px;&quot;&gt;9&lt;/font&gt;" style="text;html=1;align=center;verticalAlign=middle;whiteSpace=wrap;rounded=0;fontColor=#00CC00;" parent="1" vertex="1">
          <mxGeometry x="309.95" y="80" as="geometry" />
        </mxCell>
        <mxCell id="gBEdq5ZTxUluI_XgzyKd-310" value="&lt;font style=&quot;font-size: 5px;&quot;&gt;0&lt;/font&gt;" style="text;html=1;align=center;verticalAlign=middle;whiteSpace=wrap;rounded=0;fontColor=#00CC00;" parent="1" vertex="1">
          <mxGeometry x="209.95" y="80" as="geometry" />
        </mxCell>
        <mxCell id="gBEdq5ZTxUluI_XgzyKd-311" value="&lt;font style=&quot;font-size: 5px;&quot;&gt;0&lt;/font&gt;" style="text;html=1;align=center;verticalAlign=middle;whiteSpace=wrap;rounded=0;fontColor=#00CC00;" parent="1" vertex="1">
          <mxGeometry x="169.95" y="80" as="geometry" />
        </mxCell>
        <mxCell id="gBEdq5ZTxUluI_XgzyKd-314" value="" style="endArrow=none;html=1;strokeWidth=1;rounded=0;jumpSize=0;opacity=10;flowAnimation=0;shadow=0;jumpStyle=none;dashed=1;dashPattern=1 1;curved=0;" parent="1" source="gBEdq5ZTxUluI_XgzyKd-267" edge="1">
          <mxGeometry width="50" height="50" relative="1" as="geometry">
            <mxPoint x="120" y="155" as="sourcePoint" />
            <mxPoint x="140" y="80" as="targetPoint" />
          </mxGeometry>
        </mxCell>
        <mxCell id="gBEdq5ZTxUluI_XgzyKd-313" value="&lt;font style=&quot;font-size: 5px;&quot;&gt;0&lt;/font&gt;" style="text;html=1;align=center;verticalAlign=middle;whiteSpace=wrap;rounded=0;fontColor=#00CC00;" parent="1" vertex="1">
          <mxGeometry x="189.95" y="80" as="geometry" />
        </mxCell>
        <mxCell id="gBEdq5ZTxUluI_XgzyKd-333" value="" style="endArrow=none;html=1;strokeWidth=1;rounded=0;jumpSize=0;opacity=10;flowAnimation=0;shadow=0;jumpStyle=none;dashed=1;dashPattern=1 1;" parent="1" edge="1">
          <mxGeometry width="50" height="50" relative="1" as="geometry">
            <mxPoint x="110" y="240" as="sourcePoint" />
            <mxPoint x="110" y="235" as="targetPoint" />
          </mxGeometry>
        </mxCell>
        <mxCell id="gBEdq5ZTxUluI_XgzyKd-336" value="" style="ellipse;whiteSpace=wrap;html=1;aspect=fixed;fillColor=#f8cecc;strokeColor=#b85450;" parent="1" vertex="1">
          <mxGeometry x="187.45" y="65" width="5" height="5" as="geometry" />
        </mxCell>
        <mxCell id="gBEdq5ZTxUluI_XgzyKd-341" value="" style="ellipse;whiteSpace=wrap;html=1;aspect=fixed;fillColor=#f8cecc;strokeColor=#b85450;" parent="1" vertex="1">
          <mxGeometry x="217.5" y="145" width="5" height="5" as="geometry" />
        </mxCell>
        <mxCell id="gBEdq5ZTxUluI_XgzyKd-343" value="" style="endArrow=none;html=1;strokeWidth=1;rounded=0;jumpSize=0;opacity=10;flowAnimation=0;shadow=0;jumpStyle=none;dashed=1;dashPattern=1 1;" parent="1" edge="1">
          <mxGeometry width="50" height="50" relative="1" as="geometry">
            <mxPoint x="160" y="240" as="sourcePoint" />
            <mxPoint x="170" y="160" as="targetPoint" />
          </mxGeometry>
        </mxCell>
        <mxCell id="gBEdq5ZTxUluI_XgzyKd-347" value="" style="endArrow=none;html=1;strokeWidth=1;rounded=0;jumpSize=0;flowAnimation=0;shadow=0;jumpStyle=none;dashed=1;dashPattern=1 1;fillColor=#f8cecc;strokeColor=#b85450;" parent="1" edge="1">
          <mxGeometry width="50" height="50" relative="1" as="geometry">
            <mxPoint x="250" y="240" as="sourcePoint" />
            <mxPoint x="250" y="160" as="targetPoint" />
          </mxGeometry>
        </mxCell>
        <mxCell id="gBEdq5ZTxUluI_XgzyKd-348" value="" style="edgeStyle=segmentEdgeStyle;endArrow=openThin;html=1;curved=0;rounded=0;fillColor=#f8cecc;strokeColor=#b85450;startArrow=none;startFill=0;endFill=0;" parent="1" edge="1">
          <mxGeometry width="50" height="50" relative="1" as="geometry">
            <mxPoint x="220" y="170" as="sourcePoint" />
            <mxPoint x="120" y="170" as="targetPoint" />
            <Array as="points">
              <mxPoint x="220" y="180" />
              <mxPoint x="120" y="180" />
              <mxPoint x="120" y="170" />
            </Array>
          </mxGeometry>
        </mxCell>
        <mxCell id="gBEdq5ZTxUluI_XgzyKd-349" value="" style="endArrow=openThin;html=1;rounded=0;fillColor=#f8cecc;strokeColor=#b85450;startArrow=none;startFill=0;endFill=0;exitX=0;exitY=0;exitDx=0;exitDy=0;" parent="1" edge="1">
          <mxGeometry width="50" height="50" relative="1" as="geometry">
            <mxPoint x="190" y="80" as="sourcePoint" />
            <mxPoint x="210" y="160" as="targetPoint" />
          </mxGeometry>
        </mxCell>
        <mxCell id="gBEdq5ZTxUluI_XgzyKd-351" value="" style="endArrow=none;html=1;strokeWidth=1;rounded=0;jumpSize=0;opacity=10;flowAnimation=0;shadow=0;jumpStyle=none;dashed=1;dashPattern=1 1;" parent="1" source="VE2V3sf3IiLMLohbHc8v-159" edge="1">
          <mxGeometry width="50" height="50" relative="1" as="geometry">
            <mxPoint x="240" y="240" as="sourcePoint" />
            <mxPoint x="250" y="160" as="targetPoint" />
          </mxGeometry>
        </mxCell>
        <mxCell id="gBEdq5ZTxUluI_XgzyKd-356" value="" style="endArrow=none;html=1;strokeWidth=1;rounded=0;jumpSize=0;opacity=10;flowAnimation=0;shadow=0;jumpStyle=none;dashed=1;dashPattern=1 1;entryX=0;entryY=0;entryDx=0;entryDy=0;" parent="1" edge="1">
          <mxGeometry width="50" height="50" relative="1" as="geometry">
            <mxPoint x="250" y="160" as="sourcePoint" />
            <mxPoint x="230" y="80" as="targetPoint" />
          </mxGeometry>
        </mxCell>
        <mxCell id="gBEdq5ZTxUluI_XgzyKd-358" value="" style="endArrow=none;html=1;strokeWidth=1;rounded=0;jumpSize=0;opacity=10;flowAnimation=0;shadow=0;jumpStyle=none;dashed=1;dashPattern=1 1;" parent="1" edge="1">
          <mxGeometry width="50" height="50" relative="1" as="geometry">
            <mxPoint x="270" y="160" as="sourcePoint" />
            <mxPoint x="250" y="80" as="targetPoint" />
          </mxGeometry>
        </mxCell>
        <mxCell id="gBEdq5ZTxUluI_XgzyKd-359" value="" style="endArrow=none;html=1;strokeWidth=1;rounded=0;jumpSize=0;opacity=10;flowAnimation=0;shadow=0;jumpStyle=none;dashed=1;dashPattern=1 1;fontColor=#00CC00;" parent="1" source="VE2V3sf3IiLMLohbHc8v-90" edge="1">
          <mxGeometry width="50" height="50" relative="1" as="geometry">
            <mxPoint x="280" y="160" as="sourcePoint" />
            <mxPoint x="260" y="80" as="targetPoint" />
          </mxGeometry>
        </mxCell>
        <mxCell id="gBEdq5ZTxUluI_XgzyKd-360" value="&lt;font style=&quot;font-size: 5px;&quot;&gt;15&lt;/font&gt;" style="text;html=1;align=center;verticalAlign=middle;whiteSpace=wrap;rounded=0;fontColor=#3399FF;" parent="1" vertex="1">
          <mxGeometry x="260" y="155" as="geometry" />
        </mxCell>
        <mxCell id="gBEdq5ZTxUluI_XgzyKd-361" value="&lt;font style=&quot;font-size: 5px;&quot;&gt;17&lt;/font&gt;" style="text;html=1;align=center;verticalAlign=middle;whiteSpace=wrap;rounded=0;fontColor=#3399FF;" parent="1" vertex="1">
          <mxGeometry x="280" y="155" as="geometry" />
        </mxCell>
        <mxCell id="gBEdq5ZTxUluI_XgzyKd-362" value="" style="endArrow=none;html=1;strokeWidth=1;rounded=0;jumpSize=0;opacity=10;flowAnimation=0;shadow=0;jumpStyle=none;dashed=1;dashPattern=1 1;fontColor=#00CC00;" parent="1" source="gBEdq5ZTxUluI_XgzyKd-384" edge="1">
          <mxGeometry width="50" height="50" relative="1" as="geometry">
            <mxPoint x="290" y="240" as="sourcePoint" />
            <mxPoint x="260" y="160" as="targetPoint" />
          </mxGeometry>
        </mxCell>
        <mxCell id="gBEdq5ZTxUluI_XgzyKd-363" value="" style="endArrow=none;html=1;strokeWidth=1;rounded=0;jumpSize=0;opacity=10;flowAnimation=0;shadow=0;jumpStyle=none;dashed=1;dashPattern=1 1;fontColor=#00CC00;" parent="1" source="gBEdq5ZTxUluI_XgzyKd-386" edge="1">
          <mxGeometry width="50" height="50" relative="1" as="geometry">
            <mxPoint x="310" y="240" as="sourcePoint" />
            <mxPoint x="280" y="160" as="targetPoint" />
          </mxGeometry>
        </mxCell>
        <mxCell id="gBEdq5ZTxUluI_XgzyKd-364" value="" style="endArrow=none;html=1;strokeWidth=1;rounded=0;jumpSize=0;opacity=10;flowAnimation=0;shadow=0;jumpStyle=none;dashed=1;dashPattern=1 1;fontColor=#00CC00;" parent="1" source="gBEdq5ZTxUluI_XgzyKd-389" edge="1">
          <mxGeometry width="50" height="50" relative="1" as="geometry">
            <mxPoint x="330" y="240" as="sourcePoint" />
            <mxPoint x="300" y="160" as="targetPoint" />
          </mxGeometry>
        </mxCell>
        <mxCell id="gBEdq5ZTxUluI_XgzyKd-366" value="" style="endArrow=none;html=1;strokeWidth=1;rounded=0;jumpSize=0;opacity=10;flowAnimation=0;shadow=0;jumpStyle=none;dashed=1;dashPattern=1 1;entryX=0;entryY=0;entryDx=0;entryDy=0;" parent="1" target="gBEdq5ZTxUluI_XgzyKd-288" edge="1">
          <mxGeometry width="50" height="50" relative="1" as="geometry">
            <mxPoint x="190" y="240" as="sourcePoint" />
            <mxPoint x="200" y="160" as="targetPoint" />
          </mxGeometry>
        </mxCell>
        <mxCell id="gBEdq5ZTxUluI_XgzyKd-367" value="&lt;font style=&quot;font-size: 5px;&quot;&gt;14&lt;/font&gt;" style="text;html=1;align=center;verticalAlign=middle;whiteSpace=wrap;rounded=0;fontColor=#00CC00;" parent="1" vertex="1">
          <mxGeometry x="250" y="240" as="geometry" />
        </mxCell>
        <mxCell id="gBEdq5ZTxUluI_XgzyKd-368" value="&lt;font style=&quot;font-size: 5px;&quot;&gt;15&lt;/font&gt;" style="text;html=1;align=center;verticalAlign=middle;whiteSpace=wrap;rounded=0;fontColor=#00CC00;" parent="1" vertex="1">
          <mxGeometry x="260" y="240" as="geometry" />
        </mxCell>
        <mxCell id="gBEdq5ZTxUluI_XgzyKd-375" value="&lt;font style=&quot;font-size: 5px;&quot;&gt;16&lt;/font&gt;" style="text;html=1;align=center;verticalAlign=middle;whiteSpace=wrap;rounded=0;fontColor=#00CC00;" parent="1" vertex="1">
          <mxGeometry x="270" y="240" as="geometry" />
        </mxCell>
        <mxCell id="gBEdq5ZTxUluI_XgzyKd-385" value="" style="endArrow=none;html=1;strokeWidth=1;rounded=0;jumpSize=0;opacity=10;flowAnimation=0;shadow=0;jumpStyle=none;dashed=1;dashPattern=1 1;exitX=0;exitY=0;exitDx=0;exitDy=0;" parent="1" target="gBEdq5ZTxUluI_XgzyKd-384" edge="1">
          <mxGeometry width="50" height="50" relative="1" as="geometry">
            <mxPoint x="280" y="240" as="sourcePoint" />
            <mxPoint x="260" y="160" as="targetPoint" />
          </mxGeometry>
        </mxCell>
        <mxCell id="gBEdq5ZTxUluI_XgzyKd-384" value="&lt;font style=&quot;font-size: 5px;&quot;&gt;11&lt;/font&gt;" style="text;html=1;align=center;verticalAlign=middle;whiteSpace=wrap;rounded=0;fontColor=#00CC00;" parent="1" vertex="1">
          <mxGeometry x="260" y="160" as="geometry" />
        </mxCell>
        <mxCell id="gBEdq5ZTxUluI_XgzyKd-386" value="&lt;font style=&quot;font-size: 5px;&quot;&gt;13&lt;/font&gt;" style="text;html=1;align=center;verticalAlign=middle;whiteSpace=wrap;rounded=0;fontColor=#00CC00;" parent="1" vertex="1">
          <mxGeometry x="280" y="160" as="geometry" />
        </mxCell>
        <mxCell id="gBEdq5ZTxUluI_XgzyKd-389" value="&lt;font style=&quot;font-size: 5px;&quot;&gt;15&lt;/font&gt;" style="text;html=1;align=center;verticalAlign=middle;whiteSpace=wrap;rounded=0;fontColor=#00CC00;" parent="1" vertex="1">
          <mxGeometry x="300" y="160" as="geometry" />
        </mxCell>
        <mxCell id="gBEdq5ZTxUluI_XgzyKd-391" value="" style="endArrow=none;html=1;strokeWidth=1;rounded=0;jumpSize=0;opacity=10;flowAnimation=0;shadow=0;jumpStyle=none;dashed=1;dashPattern=1 1;" parent="1" edge="1">
          <mxGeometry width="50" height="50" relative="1" as="geometry">
            <mxPoint x="290" y="160" as="sourcePoint" />
            <mxPoint x="270" y="80" as="targetPoint" />
          </mxGeometry>
        </mxCell>
        <mxCell id="gBEdq5ZTxUluI_XgzyKd-392" value="" style="endArrow=none;html=1;strokeWidth=1;rounded=0;jumpSize=0;opacity=10;flowAnimation=0;shadow=0;jumpStyle=none;dashed=1;dashPattern=1 1;" parent="1" edge="1">
          <mxGeometry width="50" height="50" relative="1" as="geometry">
            <mxPoint x="300" y="160" as="sourcePoint" />
            <mxPoint x="280" y="80" as="targetPoint" />
          </mxGeometry>
        </mxCell>
        <mxCell id="gBEdq5ZTxUluI_XgzyKd-393" value="&lt;font style=&quot;font-size: 5px;&quot;&gt;16&lt;/font&gt;" style="text;html=1;align=center;verticalAlign=middle;whiteSpace=wrap;rounded=0;fontColor=#3399FF;" parent="1" vertex="1">
          <mxGeometry x="240" y="75" as="geometry" />
        </mxCell>
        <mxCell id="gBEdq5ZTxUluI_XgzyKd-394" value="&lt;font style=&quot;font-size: 5px;&quot;&gt;17&lt;/font&gt;" style="text;html=1;align=center;verticalAlign=middle;whiteSpace=wrap;rounded=0;fontColor=#3399FF;" parent="1" vertex="1">
          <mxGeometry x="250" y="75" as="geometry" />
        </mxCell>
        <mxCell id="gBEdq5ZTxUluI_XgzyKd-395" value="&lt;font style=&quot;font-size: 5px;&quot;&gt;18&lt;/font&gt;" style="text;html=1;align=center;verticalAlign=middle;whiteSpace=wrap;rounded=0;fontColor=#3399FF;" parent="1" vertex="1">
          <mxGeometry x="260" y="75" as="geometry" />
        </mxCell>
        <mxCell id="gBEdq5ZTxUluI_XgzyKd-397" value="" style="endArrow=none;html=1;strokeWidth=1;rounded=0;jumpSize=0;opacity=10;flowAnimation=0;shadow=0;jumpStyle=none;dashed=1;dashPattern=1 1;curved=0;" parent="1" edge="1">
          <mxGeometry width="50" height="50" relative="1" as="geometry">
            <mxPoint x="260" y="160" as="sourcePoint" />
            <mxPoint x="280" y="80" as="targetPoint" />
          </mxGeometry>
        </mxCell>
        <mxCell id="gBEdq5ZTxUluI_XgzyKd-398" value="" style="endArrow=none;html=1;strokeWidth=1;rounded=0;jumpSize=0;opacity=10;flowAnimation=0;shadow=0;jumpStyle=none;dashed=1;dashPattern=1 1;curved=0;fontColor=#00CC00;" parent="1" source="gBEdq5ZTxUluI_XgzyKd-441" edge="1">
          <mxGeometry width="50" height="50" relative="1" as="geometry">
            <mxPoint x="329.95" y="160" as="sourcePoint" />
            <mxPoint x="349.95" y="80" as="targetPoint" />
          </mxGeometry>
        </mxCell>
        <mxCell id="gBEdq5ZTxUluI_XgzyKd-399" value="" style="endArrow=none;html=1;strokeWidth=1;rounded=0;jumpSize=0;opacity=10;flowAnimation=0;shadow=0;jumpStyle=none;dashed=1;dashPattern=1 1;curved=0;" parent="1" edge="1">
          <mxGeometry width="50" height="50" relative="1" as="geometry">
            <mxPoint x="300" y="160" as="sourcePoint" />
            <mxPoint x="320" y="80" as="targetPoint" />
          </mxGeometry>
        </mxCell>
        <mxCell id="gBEdq5ZTxUluI_XgzyKd-400" value="&lt;font color=&quot;#b85450&quot; style=&quot;font-size: 5px;&quot;&gt;p2 rtt increase&lt;br&gt;&lt;/font&gt;" style="text;html=1;align=center;verticalAlign=middle;whiteSpace=wrap;rounded=0;rotation=-90;" parent="1" vertex="1">
          <mxGeometry x="222.5" y="200" width="60" as="geometry" />
        </mxCell>
        <mxCell id="gBEdq5ZTxUluI_XgzyKd-406" value="&lt;font style=&quot;font-size: 5px;&quot;&gt;19&lt;/font&gt;" style="text;html=1;align=center;verticalAlign=middle;whiteSpace=wrap;rounded=0;fontColor=#3399FF;" parent="1" vertex="1">
          <mxGeometry x="300" y="155" as="geometry" />
        </mxCell>
        <mxCell id="gBEdq5ZTxUluI_XgzyKd-416" value="" style="verticalLabelPosition=bottom;verticalAlign=top;html=1;shape=mxgraph.basic.flash;fillColor=#f8cecc;strokeColor=#b85450;" parent="1" vertex="1">
          <mxGeometry x="277.45" y="260" width="5" height="10" as="geometry" />
        </mxCell>
        <mxCell id="gBEdq5ZTxUluI_XgzyKd-419" value="P1" style="text;html=1;align=center;verticalAlign=middle;whiteSpace=wrap;rounded=0;fontColor=#3399FF;" parent="1" vertex="1">
          <mxGeometry y="70" width="20" height="10" as="geometry" />
        </mxCell>
        <mxCell id="gBEdq5ZTxUluI_XgzyKd-420" value="P2" style="text;html=1;align=center;verticalAlign=middle;whiteSpace=wrap;rounded=0;fontColor=#00CC00;" parent="1" vertex="1">
          <mxGeometry y="230" width="20" height="10" as="geometry" />
        </mxCell>
        <mxCell id="gBEdq5ZTxUluI_XgzyKd-421" value="S" style="text;html=1;align=center;verticalAlign=middle;whiteSpace=wrap;rounded=0;" parent="1" vertex="1">
          <mxGeometry y="155" width="20" height="10" as="geometry" />
        </mxCell>
        <mxCell id="gBEdq5ZTxUluI_XgzyKd-422" value="&lt;font style=&quot;font-size: 5px;&quot;&gt;21&lt;/font&gt;" style="text;html=1;align=center;verticalAlign=middle;whiteSpace=wrap;rounded=0;fontColor=#3399FF;" parent="1" vertex="1">
          <mxGeometry x="320" y="155" as="geometry" />
        </mxCell>
        <mxCell id="gBEdq5ZTxUluI_XgzyKd-424" value="&lt;font color=&quot;#b85450&quot; style=&quot;font-size: 5px;&quot;&gt;p1 shoots at p2 &lt;br&gt;&lt;/font&gt;" style="text;html=1;align=center;verticalAlign=middle;whiteSpace=wrap;rounded=0;" parent="1" vertex="1">
          <mxGeometry x="192.45" y="65" width="40" as="geometry" />
        </mxCell>
        <mxCell id="gBEdq5ZTxUluI_XgzyKd-425" value="&lt;font color=&quot;#b85450&quot; style=&quot;font-size: 5px;&quot;&gt;p1 joins &lt;br&gt;&lt;/font&gt;" style="text;html=1;align=center;verticalAlign=middle;whiteSpace=wrap;rounded=0;" parent="1" vertex="1">
          <mxGeometry x="40" y="165" width="40" as="geometry" />
        </mxCell>
        <mxCell id="gBEdq5ZTxUluI_XgzyKd-426" value="&lt;font color=&quot;#b85450&quot; style=&quot;font-size: 5px;&quot;&gt;p2 joins &lt;br&gt;&lt;/font&gt;" style="text;html=1;align=center;verticalAlign=middle;whiteSpace=wrap;rounded=0;" parent="1" vertex="1">
          <mxGeometry x="80" y="165" width="40" as="geometry" />
        </mxCell>
        <mxCell id="gBEdq5ZTxUluI_XgzyKd-429" value="&lt;font style=&quot;font-size: 5px;&quot;&gt;17&lt;/font&gt;" style="text;html=1;align=center;verticalAlign=middle;whiteSpace=wrap;rounded=0;fontColor=#00CC00;" parent="1" vertex="1">
          <mxGeometry x="320" y="160" as="geometry" />
        </mxCell>
        <mxCell id="gBEdq5ZTxUluI_XgzyKd-431" value="" style="endArrow=none;html=1;strokeWidth=1;rounded=0;jumpSize=0;opacity=10;flowAnimation=0;shadow=0;jumpStyle=none;dashed=1;dashPattern=1 1;" parent="1" edge="1">
          <mxGeometry width="50" height="50" relative="1" as="geometry">
            <mxPoint x="310" y="160" as="sourcePoint" />
            <mxPoint x="290" y="80" as="targetPoint" />
          </mxGeometry>
        </mxCell>
        <mxCell id="gBEdq5ZTxUluI_XgzyKd-432" value="" style="endArrow=none;html=1;strokeWidth=1;rounded=0;jumpSize=0;opacity=10;flowAnimation=0;shadow=0;jumpStyle=none;dashed=1;dashPattern=1 1;fontColor=#00CC00;" parent="1" source="VE2V3sf3IiLMLohbHc8v-93" edge="1">
          <mxGeometry width="50" height="50" relative="1" as="geometry">
            <mxPoint x="320" y="160" as="sourcePoint" />
            <mxPoint x="300" y="80" as="targetPoint" />
          </mxGeometry>
        </mxCell>
        <mxCell id="gBEdq5ZTxUluI_XgzyKd-433" value="" style="endArrow=none;html=1;strokeWidth=1;rounded=0;jumpSize=0;opacity=10;flowAnimation=0;shadow=0;jumpStyle=none;dashed=1;dashPattern=1 1;" parent="1" edge="1">
          <mxGeometry width="50" height="50" relative="1" as="geometry">
            <mxPoint x="330" y="160" as="sourcePoint" />
            <mxPoint x="310" y="80" as="targetPoint" />
          </mxGeometry>
        </mxCell>
        <mxCell id="gBEdq5ZTxUluI_XgzyKd-434" value="" style="endArrow=none;html=1;strokeWidth=1;rounded=0;jumpSize=0;opacity=10;flowAnimation=0;shadow=0;jumpStyle=none;dashed=1;dashPattern=1 1;fontColor=#00CC00;" parent="1" source="VE2V3sf3IiLMLohbHc8v-95" edge="1">
          <mxGeometry width="50" height="50" relative="1" as="geometry">
            <mxPoint x="340" y="160" as="sourcePoint" />
            <mxPoint x="320" y="80" as="targetPoint" />
          </mxGeometry>
        </mxCell>
        <mxCell id="gBEdq5ZTxUluI_XgzyKd-435" value="&lt;font style=&quot;font-size: 5px;&quot;&gt;19&lt;/font&gt;" style="text;html=1;align=center;verticalAlign=middle;whiteSpace=wrap;rounded=0;fontColor=#3399FF;" parent="1" vertex="1">
          <mxGeometry x="270" y="75" as="geometry" />
        </mxCell>
        <mxCell id="gBEdq5ZTxUluI_XgzyKd-436" value="&lt;font style=&quot;font-size: 5px;&quot;&gt;20&lt;/font&gt;" style="text;html=1;align=center;verticalAlign=middle;whiteSpace=wrap;rounded=0;fontColor=#3399FF;" parent="1" vertex="1">
          <mxGeometry x="280" y="75" as="geometry" />
        </mxCell>
        <mxCell id="gBEdq5ZTxUluI_XgzyKd-437" value="&lt;font style=&quot;font-size: 5px;&quot;&gt;21&lt;/font&gt;" style="text;html=1;align=center;verticalAlign=middle;whiteSpace=wrap;rounded=0;fontColor=#3399FF;" parent="1" vertex="1">
          <mxGeometry x="290" y="75" as="geometry" />
        </mxCell>
        <mxCell id="gBEdq5ZTxUluI_XgzyKd-438" value="&lt;font style=&quot;font-size: 5px;&quot;&gt;22&lt;/font&gt;" style="text;html=1;align=center;verticalAlign=middle;whiteSpace=wrap;rounded=0;fontColor=#3399FF;" parent="1" vertex="1">
          <mxGeometry x="300" y="75" as="geometry" />
        </mxCell>
        <mxCell id="gBEdq5ZTxUluI_XgzyKd-439" value="&lt;font style=&quot;font-size: 5px;&quot;&gt;23&lt;/font&gt;" style="text;html=1;align=center;verticalAlign=middle;whiteSpace=wrap;rounded=0;fontColor=#3399FF;" parent="1" vertex="1">
          <mxGeometry x="310" y="75" as="geometry" />
        </mxCell>
        <mxCell id="gBEdq5ZTxUluI_XgzyKd-440" value="&lt;font style=&quot;font-size: 5px;&quot;&gt;11&lt;/font&gt;" style="text;html=1;align=center;verticalAlign=middle;whiteSpace=wrap;rounded=0;fontColor=#00CC00;" parent="1" vertex="1">
          <mxGeometry x="329.95" y="80" as="geometry" />
        </mxCell>
        <mxCell id="gBEdq5ZTxUluI_XgzyKd-441" value="&lt;font style=&quot;font-size: 5px;&quot;&gt;13&lt;/font&gt;" style="text;html=1;align=center;verticalAlign=middle;whiteSpace=wrap;rounded=0;fontColor=#00CC00;" parent="1" vertex="1">
          <mxGeometry x="349.95" y="80" as="geometry" />
        </mxCell>
        <mxCell id="gBEdq5ZTxUluI_XgzyKd-444" value="&lt;font style=&quot;font-size: 5px;&quot;&gt;15&lt;/font&gt;" style="text;html=1;align=center;verticalAlign=middle;whiteSpace=wrap;rounded=0;fontColor=#00CC00;" parent="1" vertex="1">
          <mxGeometry x="369.95" y="80" as="geometry" />
        </mxCell>
        <mxCell id="gBEdq5ZTxUluI_XgzyKd-446" value="&lt;font style=&quot;font-size: 5px;&quot;&gt;17&lt;/font&gt;" style="text;html=1;align=center;verticalAlign=middle;whiteSpace=wrap;rounded=0;fontColor=#00CC00;" parent="1" vertex="1">
          <mxGeometry x="389.95" y="80" as="geometry" />
        </mxCell>
        <mxCell id="gBEdq5ZTxUluI_XgzyKd-447" value="&lt;font style=&quot;font-size: 5px;&quot;&gt;24&lt;/font&gt;" style="text;html=1;align=center;verticalAlign=middle;whiteSpace=wrap;rounded=0;fontColor=#3399FF;" parent="1" vertex="1">
          <mxGeometry x="320" y="75" as="geometry" />
        </mxCell>
        <mxCell id="gBEdq5ZTxUluI_XgzyKd-448" value="&lt;font style=&quot;font-size: 5px;&quot;&gt;25&lt;/font&gt;" style="text;html=1;align=center;verticalAlign=middle;whiteSpace=wrap;rounded=0;fontColor=#3399FF;" parent="1" vertex="1">
          <mxGeometry x="330" y="75" as="geometry" />
        </mxCell>
        <mxCell id="gBEdq5ZTxUluI_XgzyKd-449" value="&lt;font style=&quot;font-size: 5px;&quot;&gt;26&lt;/font&gt;" style="text;html=1;align=center;verticalAlign=middle;whiteSpace=wrap;rounded=0;fontColor=#3399FF;" parent="1" vertex="1">
          <mxGeometry x="340" y="75" as="geometry" />
        </mxCell>
        <mxCell id="gBEdq5ZTxUluI_XgzyKd-450" value="&lt;font style=&quot;font-size: 5px;&quot;&gt;27&lt;/font&gt;" style="text;html=1;align=center;verticalAlign=middle;whiteSpace=wrap;rounded=0;fontColor=#3399FF;" parent="1" vertex="1">
          <mxGeometry x="350" y="75" as="geometry" />
        </mxCell>
        <mxCell id="gBEdq5ZTxUluI_XgzyKd-451" value="&lt;font style=&quot;font-size: 5px;&quot;&gt;28&lt;/font&gt;" style="text;html=1;align=center;verticalAlign=middle;whiteSpace=wrap;rounded=0;fontColor=#3399FF;" parent="1" vertex="1">
          <mxGeometry x="360" y="75" as="geometry" />
        </mxCell>
        <mxCell id="gBEdq5ZTxUluI_XgzyKd-452" value="" style="endArrow=none;html=1;strokeWidth=1;rounded=0;jumpSize=0;opacity=10;flowAnimation=0;shadow=0;jumpStyle=none;dashed=1;dashPattern=1 1;curved=0;" parent="1" edge="1">
          <mxGeometry width="50" height="50" relative="1" as="geometry">
            <mxPoint x="320" y="160" as="sourcePoint" />
            <mxPoint x="340" y="80" as="targetPoint" />
          </mxGeometry>
        </mxCell>
        <mxCell id="gBEdq5ZTxUluI_XgzyKd-453" value="" style="endArrow=none;html=1;strokeWidth=1;rounded=0;jumpSize=0;opacity=10;flowAnimation=0;shadow=0;jumpStyle=none;dashed=1;dashPattern=1 1;curved=0;" parent="1" source="gBEdq5ZTxUluI_XgzyKd-461" edge="1">
          <mxGeometry width="50" height="50" relative="1" as="geometry">
            <mxPoint x="340" y="160" as="sourcePoint" />
            <mxPoint x="360" y="80" as="targetPoint" />
          </mxGeometry>
        </mxCell>
        <mxCell id="gBEdq5ZTxUluI_XgzyKd-454" value="" style="endArrow=none;html=1;strokeWidth=1;rounded=0;jumpSize=0;opacity=10;flowAnimation=0;shadow=0;jumpStyle=none;dashed=1;dashPattern=1 1;" parent="1" edge="1">
          <mxGeometry width="50" height="50" relative="1" as="geometry">
            <mxPoint x="350" y="160" as="sourcePoint" />
            <mxPoint x="330" y="80" as="targetPoint" />
          </mxGeometry>
        </mxCell>
        <mxCell id="gBEdq5ZTxUluI_XgzyKd-455" value="" style="endArrow=none;html=1;strokeWidth=1;rounded=0;jumpSize=0;opacity=10;flowAnimation=0;shadow=0;jumpStyle=none;dashed=1;dashPattern=1 1;" parent="1" edge="1">
          <mxGeometry width="50" height="50" relative="1" as="geometry">
            <mxPoint x="360" y="160" as="sourcePoint" />
            <mxPoint x="340" y="80" as="targetPoint" />
          </mxGeometry>
        </mxCell>
        <mxCell id="gBEdq5ZTxUluI_XgzyKd-456" value="" style="endArrow=none;html=1;strokeWidth=1;rounded=0;jumpSize=0;opacity=10;flowAnimation=0;shadow=0;jumpStyle=none;dashed=1;dashPattern=1 1;" parent="1" edge="1">
          <mxGeometry width="50" height="50" relative="1" as="geometry">
            <mxPoint x="370" y="160" as="sourcePoint" />
            <mxPoint x="350" y="80" as="targetPoint" />
          </mxGeometry>
        </mxCell>
        <mxCell id="gBEdq5ZTxUluI_XgzyKd-457" value="" style="endArrow=none;html=1;strokeWidth=1;rounded=0;jumpSize=0;opacity=10;flowAnimation=0;shadow=0;jumpStyle=none;dashed=1;dashPattern=1 1;fontColor=#00CC00;" parent="1" source="VE2V3sf3IiLMLohbHc8v-98" edge="1">
          <mxGeometry width="50" height="50" relative="1" as="geometry">
            <mxPoint x="380" y="160" as="sourcePoint" />
            <mxPoint x="360" y="80" as="targetPoint" />
          </mxGeometry>
        </mxCell>
        <mxCell id="gBEdq5ZTxUluI_XgzyKd-463" value="" style="endArrow=none;html=1;strokeWidth=1;rounded=0;jumpSize=0;opacity=10;flowAnimation=0;shadow=0;jumpStyle=none;dashed=1;dashPattern=1 1;curved=0;" parent="1" target="gBEdq5ZTxUluI_XgzyKd-461" edge="1">
          <mxGeometry width="50" height="50" relative="1" as="geometry">
            <mxPoint x="340" y="160" as="sourcePoint" />
            <mxPoint x="360" y="80" as="targetPoint" />
          </mxGeometry>
        </mxCell>
        <mxCell id="gBEdq5ZTxUluI_XgzyKd-461" value="&lt;font style=&quot;font-size: 5px;&quot;&gt;23&lt;/font&gt;" style="text;html=1;align=center;verticalAlign=middle;whiteSpace=wrap;rounded=0;fontColor=#3399FF;" parent="1" vertex="1">
          <mxGeometry x="340" y="155" as="geometry" />
        </mxCell>
        <mxCell id="gBEdq5ZTxUluI_XgzyKd-472" value="" style="endArrow=none;html=1;strokeWidth=1;rounded=0;jumpSize=0;opacity=10;flowAnimation=0;shadow=0;jumpStyle=none;dashed=1;dashPattern=1 1;" parent="1" edge="1">
          <mxGeometry width="50" height="50" relative="1" as="geometry">
            <mxPoint x="250" y="240" as="sourcePoint" />
            <mxPoint x="250" y="235" as="targetPoint" />
          </mxGeometry>
        </mxCell>
        <mxCell id="gBEdq5ZTxUluI_XgzyKd-473" value="" style="endArrow=none;html=1;strokeWidth=1;rounded=0;jumpSize=0;opacity=10;flowAnimation=0;shadow=0;jumpStyle=none;dashed=1;dashPattern=1 1;" parent="1" source="VE2V3sf3IiLMLohbHc8v-157" edge="1">
          <mxGeometry width="50" height="50" relative="1" as="geometry">
            <mxPoint x="230" y="240" as="sourcePoint" />
            <mxPoint x="230" y="235" as="targetPoint" />
          </mxGeometry>
        </mxCell>
        <mxCell id="gBEdq5ZTxUluI_XgzyKd-474" value="" style="endArrow=none;html=1;strokeWidth=1;rounded=0;jumpSize=0;opacity=10;flowAnimation=0;shadow=0;jumpStyle=none;dashed=1;dashPattern=1 1;" parent="1" edge="1">
          <mxGeometry width="50" height="50" relative="1" as="geometry">
            <mxPoint x="190" y="240" as="sourcePoint" />
            <mxPoint x="190" y="235" as="targetPoint" />
          </mxGeometry>
        </mxCell>
        <mxCell id="gBEdq5ZTxUluI_XgzyKd-475" value="" style="endArrow=none;html=1;strokeWidth=1;rounded=0;jumpSize=0;opacity=10;flowAnimation=0;shadow=0;jumpStyle=none;dashed=1;dashPattern=1 1;" parent="1" source="VE2V3sf3IiLMLohbHc8v-147" edge="1">
          <mxGeometry width="50" height="50" relative="1" as="geometry">
            <mxPoint x="170" y="240" as="sourcePoint" />
            <mxPoint x="170" y="235" as="targetPoint" />
          </mxGeometry>
        </mxCell>
        <mxCell id="gBEdq5ZTxUluI_XgzyKd-478" value="" style="endArrow=none;html=1;strokeWidth=1;rounded=0;jumpSize=0;opacity=10;flowAnimation=0;shadow=0;jumpStyle=none;dashed=1;dashPattern=1 1;" parent="1" edge="1">
          <mxGeometry width="50" height="50" relative="1" as="geometry">
            <mxPoint x="150" y="240" as="sourcePoint" />
            <mxPoint x="150" y="235" as="targetPoint" />
          </mxGeometry>
        </mxCell>
        <mxCell id="gBEdq5ZTxUluI_XgzyKd-479" value="" style="endArrow=none;html=1;strokeWidth=1;rounded=0;jumpSize=0;opacity=10;flowAnimation=0;shadow=0;jumpStyle=none;dashed=1;dashPattern=1 1;" parent="1" edge="1">
          <mxGeometry width="50" height="50" relative="1" as="geometry">
            <mxPoint x="130" y="240" as="sourcePoint" />
            <mxPoint x="130" y="235" as="targetPoint" />
          </mxGeometry>
        </mxCell>
        <mxCell id="gBEdq5ZTxUluI_XgzyKd-482" value="&lt;font style=&quot;font-size: 5px;&quot;&gt;340&lt;/font&gt;" style="text;html=1;align=center;verticalAlign=middle;whiteSpace=wrap;rounded=0;fontColor=#3399FF;" parent="1" vertex="1">
          <mxGeometry x="250" y="70" as="geometry" />
        </mxCell>
        <mxCell id="gBEdq5ZTxUluI_XgzyKd-483" value="&lt;font style=&quot;font-size: 5px;&quot;&gt;350&lt;/font&gt;" style="text;html=1;align=center;verticalAlign=middle;whiteSpace=wrap;rounded=0;fontColor=#3399FF;" parent="1" vertex="1">
          <mxGeometry x="260" y="70" as="geometry" />
        </mxCell>
        <mxCell id="gBEdq5ZTxUluI_XgzyKd-484" value="&lt;font style=&quot;font-size: 5px;&quot;&gt;370&lt;/font&gt;" style="text;html=1;align=center;verticalAlign=middle;whiteSpace=wrap;rounded=0;fontColor=#3399FF;" parent="1" vertex="1">
          <mxGeometry x="280" y="70" as="geometry" />
        </mxCell>
        <mxCell id="gBEdq5ZTxUluI_XgzyKd-485" value="&lt;font style=&quot;font-size: 5px;&quot;&gt;360&lt;/font&gt;" style="text;html=1;align=center;verticalAlign=middle;whiteSpace=wrap;rounded=0;fontColor=#3399FF;" parent="1" vertex="1">
          <mxGeometry x="270" y="70" as="geometry" />
        </mxCell>
        <mxCell id="gBEdq5ZTxUluI_XgzyKd-486" value="&lt;font style=&quot;font-size: 5px;&quot;&gt;380&lt;/font&gt;" style="text;html=1;align=center;verticalAlign=middle;whiteSpace=wrap;rounded=0;fontColor=#3399FF;" parent="1" vertex="1">
          <mxGeometry x="290" y="70" as="geometry" />
        </mxCell>
        <mxCell id="gBEdq5ZTxUluI_XgzyKd-487" value="&lt;font style=&quot;font-size: 5px;&quot;&gt;390&lt;/font&gt;" style="text;html=1;align=center;verticalAlign=middle;whiteSpace=wrap;rounded=0;fontColor=#3399FF;" parent="1" vertex="1">
          <mxGeometry x="300" y="70" as="geometry" />
        </mxCell>
        <mxCell id="gBEdq5ZTxUluI_XgzyKd-488" value="&lt;font style=&quot;font-size: 5px;&quot;&gt;400&lt;/font&gt;" style="text;html=1;align=center;verticalAlign=middle;whiteSpace=wrap;rounded=0;fontColor=#3399FF;" parent="1" vertex="1">
          <mxGeometry x="310" y="70" as="geometry" />
        </mxCell>
        <mxCell id="gBEdq5ZTxUluI_XgzyKd-489" value="&lt;font style=&quot;font-size: 5px;&quot;&gt;410&lt;/font&gt;" style="text;html=1;align=center;verticalAlign=middle;whiteSpace=wrap;rounded=0;fontColor=#3399FF;" parent="1" vertex="1">
          <mxGeometry x="320" y="70" as="geometry" />
        </mxCell>
        <mxCell id="gBEdq5ZTxUluI_XgzyKd-490" value="&lt;font style=&quot;font-size: 5px;&quot;&gt;420&lt;/font&gt;" style="text;html=1;align=center;verticalAlign=middle;whiteSpace=wrap;rounded=0;fontColor=#3399FF;" parent="1" vertex="1">
          <mxGeometry x="330" y="70" as="geometry" />
        </mxCell>
        <mxCell id="gBEdq5ZTxUluI_XgzyKd-491" value="&lt;font style=&quot;font-size: 5px;&quot;&gt;430&lt;/font&gt;" style="text;html=1;align=center;verticalAlign=middle;whiteSpace=wrap;rounded=0;fontColor=#3399FF;" parent="1" vertex="1">
          <mxGeometry x="340" y="70" as="geometry" />
        </mxCell>
        <mxCell id="gBEdq5ZTxUluI_XgzyKd-492" value="&lt;font style=&quot;font-size: 5px;&quot;&gt;440&lt;/font&gt;" style="text;html=1;align=center;verticalAlign=middle;whiteSpace=wrap;rounded=0;fontColor=#3399FF;" parent="1" vertex="1">
          <mxGeometry x="350" y="70" as="geometry" />
        </mxCell>
        <mxCell id="gBEdq5ZTxUluI_XgzyKd-493" value="&lt;font style=&quot;font-size: 5px;&quot;&gt;450&lt;/font&gt;" style="text;html=1;align=center;verticalAlign=middle;whiteSpace=wrap;rounded=0;fontColor=#3399FF;" parent="1" vertex="1">
          <mxGeometry x="360" y="70" as="geometry" />
        </mxCell>
        <mxCell id="gBEdq5ZTxUluI_XgzyKd-494" value="&lt;font style=&quot;font-size: 5px;&quot;&gt;460&lt;/font&gt;" style="text;html=1;align=center;verticalAlign=middle;whiteSpace=wrap;rounded=0;fontColor=#3399FF;" parent="1" vertex="1">
          <mxGeometry x="370" y="70" as="geometry" />
        </mxCell>
        <mxCell id="gBEdq5ZTxUluI_XgzyKd-495" value="&lt;font style=&quot;font-size: 5px;&quot;&gt;470&lt;/font&gt;" style="text;html=1;align=center;verticalAlign=middle;whiteSpace=wrap;rounded=0;fontColor=#3399FF;" parent="1" vertex="1">
          <mxGeometry x="380" y="70" as="geometry" />
        </mxCell>
        <mxCell id="gBEdq5ZTxUluI_XgzyKd-496" value="&lt;font style=&quot;font-size: 5px;&quot;&gt;480&lt;/font&gt;" style="text;html=1;align=center;verticalAlign=middle;whiteSpace=wrap;rounded=0;fontColor=#3399FF;" parent="1" vertex="1">
          <mxGeometry x="390" y="70" as="geometry" />
        </mxCell>
        <mxCell id="gBEdq5ZTxUluI_XgzyKd-497" value="&lt;font style=&quot;font-size: 5px;&quot;&gt;490&lt;/font&gt;" style="text;html=1;align=center;verticalAlign=middle;whiteSpace=wrap;rounded=0;fontColor=#3399FF;" parent="1" vertex="1">
          <mxGeometry x="400" y="70" as="geometry" />
        </mxCell>
        <mxCell id="gBEdq5ZTxUluI_XgzyKd-498" value="&lt;font style=&quot;font-size: 5px;&quot;&gt;500&lt;/font&gt;" style="text;html=1;align=center;verticalAlign=middle;whiteSpace=wrap;rounded=0;fontColor=#3399FF;" parent="1" vertex="1">
          <mxGeometry x="410" y="70" as="geometry" />
        </mxCell>
        <mxCell id="gBEdq5ZTxUluI_XgzyKd-519" value="&lt;font style=&quot;font-size: 5px;&quot;&gt;370&lt;/font&gt;" style="text;html=1;align=center;verticalAlign=middle;whiteSpace=wrap;rounded=0;fontColor=#00CC00;" parent="1" vertex="1">
          <mxGeometry x="270" y="250" as="geometry" />
        </mxCell>
        <mxCell id="gBEdq5ZTxUluI_XgzyKd-538" value="" style="endArrow=none;html=1;strokeWidth=1;rounded=0;jumpSize=0;opacity=10;flowAnimation=0;shadow=0;jumpStyle=none;dashed=1;dashPattern=1 1;" parent="1" edge="1">
          <mxGeometry width="50" height="50" relative="1" as="geometry">
            <mxPoint x="250" y="240" as="sourcePoint" />
            <mxPoint x="270" y="160" as="targetPoint" />
          </mxGeometry>
        </mxCell>
        <mxCell id="gBEdq5ZTxUluI_XgzyKd-539" value="" style="endArrow=none;html=1;strokeWidth=1;rounded=0;jumpSize=0;opacity=10;flowAnimation=0;shadow=0;jumpStyle=none;dashed=1;dashPattern=1 1;" parent="1" edge="1">
          <mxGeometry width="50" height="50" relative="1" as="geometry">
            <mxPoint x="260" y="240" as="sourcePoint" />
            <mxPoint x="280" y="160" as="targetPoint" />
          </mxGeometry>
        </mxCell>
        <mxCell id="gBEdq5ZTxUluI_XgzyKd-540" value="" style="endArrow=none;html=1;strokeWidth=1;rounded=0;jumpSize=0;opacity=10;flowAnimation=0;shadow=0;jumpStyle=none;dashed=1;dashPattern=1 1;exitX=0;exitY=0;exitDx=0;exitDy=0;" parent="1" edge="1">
          <mxGeometry width="50" height="50" relative="1" as="geometry">
            <mxPoint x="300" y="240" as="sourcePoint" />
            <mxPoint x="280" y="160" as="targetPoint" />
          </mxGeometry>
        </mxCell>
        <mxCell id="gBEdq5ZTxUluI_XgzyKd-541" value="" style="endArrow=none;html=1;strokeWidth=1;rounded=0;jumpSize=0;opacity=10;flowAnimation=0;shadow=0;jumpStyle=none;dashed=1;dashPattern=1 1;exitX=0;exitY=0;exitDx=0;exitDy=0;" parent="1" edge="1">
          <mxGeometry width="50" height="50" relative="1" as="geometry">
            <mxPoint x="320" y="240" as="sourcePoint" />
            <mxPoint x="300" y="160" as="targetPoint" />
          </mxGeometry>
        </mxCell>
        <mxCell id="gBEdq5ZTxUluI_XgzyKd-542" value="" style="endArrow=none;html=1;strokeWidth=1;rounded=0;jumpSize=0;opacity=10;flowAnimation=0;shadow=0;jumpStyle=none;dashed=1;dashPattern=1 1;" parent="1" edge="1">
          <mxGeometry width="50" height="50" relative="1" as="geometry">
            <mxPoint x="350" y="240" as="sourcePoint" />
            <mxPoint x="320" y="160" as="targetPoint" />
          </mxGeometry>
        </mxCell>
        <mxCell id="gBEdq5ZTxUluI_XgzyKd-545" value="" style="endArrow=none;html=1;strokeWidth=1;rounded=0;jumpSize=0;opacity=10;flowAnimation=0;shadow=0;jumpStyle=none;dashed=1;dashPattern=1 1;" parent="1" edge="1">
          <mxGeometry width="50" height="50" relative="1" as="geometry">
            <mxPoint x="290" y="240" as="sourcePoint" />
            <mxPoint x="310" y="160" as="targetPoint" />
          </mxGeometry>
        </mxCell>
        <mxCell id="gBEdq5ZTxUluI_XgzyKd-550" value="&lt;font style=&quot;font-size: 5px;&quot;&gt;19&lt;/font&gt;" style="text;html=1;align=center;verticalAlign=middle;whiteSpace=wrap;rounded=0;fontColor=#00CC00;" parent="1" vertex="1">
          <mxGeometry x="340" y="160" as="geometry" />
        </mxCell>
        <mxCell id="gBEdq5ZTxUluI_XgzyKd-552" value="&lt;font style=&quot;font-size: 5px;&quot;&gt;19&lt;/font&gt;" style="text;html=1;align=center;verticalAlign=middle;whiteSpace=wrap;rounded=0;fontColor=#00CC00;" parent="1" vertex="1">
          <mxGeometry x="409.95" y="80" as="geometry" />
        </mxCell>
        <mxCell id="gBEdq5ZTxUluI_XgzyKd-553" value="&lt;font style=&quot;font-size: 5px;&quot;&gt;510&lt;/font&gt;" style="text;html=1;align=center;verticalAlign=middle;whiteSpace=wrap;rounded=0;fontColor=#3399FF;" parent="1" vertex="1">
          <mxGeometry x="420" y="70" as="geometry" />
        </mxCell>
        <mxCell id="gBEdq5ZTxUluI_XgzyKd-554" value="&lt;font style=&quot;font-size: 5px;&quot;&gt;520&lt;/font&gt;" style="text;html=1;align=center;verticalAlign=middle;whiteSpace=wrap;rounded=0;fontColor=#3399FF;" parent="1" vertex="1">
          <mxGeometry x="430" y="70" as="geometry" />
        </mxCell>
        <mxCell id="gBEdq5ZTxUluI_XgzyKd-555" value="&lt;font style=&quot;font-size: 5px;&quot;&gt;530&lt;/font&gt;" style="text;html=1;align=center;verticalAlign=middle;whiteSpace=wrap;rounded=0;fontColor=#3399FF;" parent="1" vertex="1">
          <mxGeometry x="440" y="70" as="geometry" />
        </mxCell>
        <mxCell id="gBEdq5ZTxUluI_XgzyKd-559" value="" style="ellipse;whiteSpace=wrap;html=1;aspect=fixed;fillColor=#f8cecc;strokeColor=#b85450;" parent="1" vertex="1">
          <mxGeometry x="287.5" y="225" width="5" height="5" as="geometry" />
        </mxCell>
        <mxCell id="gBEdq5ZTxUluI_XgzyKd-560" value="&lt;font color=&quot;#b85450&quot; style=&quot;font-size: 5px;&quot;&gt;p2 rtt increase&lt;br&gt;&lt;/font&gt;" style="text;html=1;align=center;verticalAlign=middle;whiteSpace=wrap;rounded=0;rotation=-90;" parent="1" vertex="1">
          <mxGeometry x="300" y="200" width="60" as="geometry" />
        </mxCell>
        <mxCell id="gBEdq5ZTxUluI_XgzyKd-561" value="" style="endArrow=none;html=1;strokeWidth=1;rounded=0;jumpSize=0;flowAnimation=0;shadow=0;jumpStyle=none;dashed=1;dashPattern=1 1;fillColor=#f8cecc;strokeColor=#b85450;" parent="1" edge="1">
          <mxGeometry width="50" height="50" relative="1" as="geometry">
            <mxPoint x="330" y="240" as="sourcePoint" />
            <mxPoint x="330" y="160" as="targetPoint" />
          </mxGeometry>
        </mxCell>
        <mxCell id="gBEdq5ZTxUluI_XgzyKd-570" value="" style="endArrow=none;html=1;strokeWidth=1;rounded=0;jumpSize=0;opacity=10;flowAnimation=0;shadow=0;jumpStyle=none;dashed=1;dashPattern=1 1;" parent="1" edge="1">
          <mxGeometry width="50" height="50" relative="1" as="geometry">
            <mxPoint x="360" y="240" as="sourcePoint" />
            <mxPoint x="390" y="160" as="targetPoint" />
          </mxGeometry>
        </mxCell>
        <mxCell id="gBEdq5ZTxUluI_XgzyKd-571" value="" style="endArrow=none;html=1;strokeWidth=1;rounded=0;jumpSize=0;opacity=10;flowAnimation=0;shadow=0;jumpStyle=none;dashed=1;dashPattern=1 1;" parent="1" edge="1">
          <mxGeometry width="50" height="50" relative="1" as="geometry">
            <mxPoint x="370" y="235" as="sourcePoint" />
            <mxPoint x="400" y="160" as="targetPoint" />
          </mxGeometry>
        </mxCell>
        <mxCell id="gBEdq5ZTxUluI_XgzyKd-572" value="" style="endArrow=none;html=1;strokeWidth=1;rounded=0;jumpSize=0;opacity=10;flowAnimation=0;shadow=0;jumpStyle=none;dashed=1;dashPattern=1 1;" parent="1" source="gBEdq5ZTxUluI_XgzyKd-682" edge="1">
          <mxGeometry width="50" height="50" relative="1" as="geometry">
            <mxPoint x="380" y="240" as="sourcePoint" />
            <mxPoint x="410" y="160" as="targetPoint" />
          </mxGeometry>
        </mxCell>
        <mxCell id="gBEdq5ZTxUluI_XgzyKd-574" value="" style="endArrow=none;html=1;strokeWidth=1;rounded=0;jumpSize=0;opacity=10;flowAnimation=0;shadow=0;jumpStyle=none;dashed=1;dashPattern=1 1;curved=0;" parent="1" edge="1">
          <mxGeometry width="50" height="50" relative="1" as="geometry">
            <mxPoint x="360" y="160" as="sourcePoint" />
            <mxPoint x="380" y="80" as="targetPoint" />
          </mxGeometry>
        </mxCell>
        <mxCell id="gBEdq5ZTxUluI_XgzyKd-576" value="" style="endArrow=none;html=1;strokeWidth=1;rounded=0;jumpSize=0;opacity=10;flowAnimation=0;shadow=0;jumpStyle=none;dashed=1;dashPattern=1 1;curved=0;" parent="1" edge="1">
          <mxGeometry width="50" height="50" relative="1" as="geometry">
            <mxPoint x="380" y="160" as="sourcePoint" />
            <mxPoint x="400" y="80" as="targetPoint" />
          </mxGeometry>
        </mxCell>
        <mxCell id="gBEdq5ZTxUluI_XgzyKd-577" value="" style="endArrow=none;html=1;strokeWidth=1;rounded=0;jumpSize=0;opacity=10;flowAnimation=0;shadow=0;jumpStyle=none;dashed=1;dashPattern=1 1;curved=0;" parent="1" edge="1">
          <mxGeometry width="50" height="50" relative="1" as="geometry">
            <mxPoint x="400" y="160" as="sourcePoint" />
            <mxPoint x="420" y="80" as="targetPoint" />
          </mxGeometry>
        </mxCell>
        <mxCell id="gBEdq5ZTxUluI_XgzyKd-578" value="" style="endArrow=none;html=1;strokeWidth=1;rounded=0;jumpSize=0;opacity=10;flowAnimation=0;shadow=0;jumpStyle=none;dashed=1;dashPattern=1 1;curved=0;" parent="1" edge="1">
          <mxGeometry width="50" height="50" relative="1" as="geometry">
            <mxPoint x="420" y="160" as="sourcePoint" />
            <mxPoint x="440" y="80" as="targetPoint" />
          </mxGeometry>
        </mxCell>
        <mxCell id="gBEdq5ZTxUluI_XgzyKd-579" value="" style="endArrow=none;html=1;strokeWidth=1;rounded=0;jumpSize=0;opacity=10;flowAnimation=0;shadow=0;jumpStyle=none;dashed=1;dashPattern=1 1;" parent="1" edge="1">
          <mxGeometry width="50" height="50" relative="1" as="geometry">
            <mxPoint x="390" y="160" as="sourcePoint" />
            <mxPoint x="370" y="80" as="targetPoint" />
          </mxGeometry>
        </mxCell>
        <mxCell id="gBEdq5ZTxUluI_XgzyKd-580" value="" style="endArrow=none;html=1;strokeWidth=1;rounded=0;jumpSize=0;opacity=10;flowAnimation=0;shadow=0;jumpStyle=none;dashed=1;dashPattern=1 1;fontColor=#00CC00;" parent="1" source="gBEdq5ZTxUluI_XgzyKd-707" edge="1">
          <mxGeometry width="50" height="50" relative="1" as="geometry">
            <mxPoint x="449.95" y="160" as="sourcePoint" />
            <mxPoint x="429.95" y="80" as="targetPoint" />
          </mxGeometry>
        </mxCell>
        <mxCell id="gBEdq5ZTxUluI_XgzyKd-581" value="" style="endArrow=none;html=1;strokeWidth=1;rounded=0;jumpSize=0;opacity=10;flowAnimation=0;shadow=0;jumpStyle=none;dashed=1;dashPattern=1 1;" parent="1" edge="1">
          <mxGeometry width="50" height="50" relative="1" as="geometry">
            <mxPoint x="410" y="160" as="sourcePoint" />
            <mxPoint x="390" y="80" as="targetPoint" />
          </mxGeometry>
        </mxCell>
        <mxCell id="gBEdq5ZTxUluI_XgzyKd-582" value="" style="endArrow=none;html=1;strokeWidth=1;rounded=0;jumpSize=0;opacity=10;flowAnimation=0;shadow=0;jumpStyle=none;dashed=1;dashPattern=1 1;" parent="1" edge="1">
          <mxGeometry width="50" height="50" relative="1" as="geometry">
            <mxPoint x="430" y="160" as="sourcePoint" />
            <mxPoint x="410" y="80" as="targetPoint" />
          </mxGeometry>
        </mxCell>
        <mxCell id="gBEdq5ZTxUluI_XgzyKd-583" value="" style="endArrow=none;html=1;strokeWidth=1;rounded=0;jumpSize=0;opacity=10;flowAnimation=0;shadow=0;jumpStyle=none;dashed=1;dashPattern=1 1;fontColor=#00CC00;" parent="1" edge="1">
          <mxGeometry width="50" height="50" relative="1" as="geometry">
            <mxPoint x="449.95000000000005" y="80" as="sourcePoint" />
            <mxPoint x="449.95" y="80" as="targetPoint" />
          </mxGeometry>
        </mxCell>
        <mxCell id="gBEdq5ZTxUluI_XgzyKd-584" value="" style="endArrow=none;html=1;strokeWidth=1;rounded=0;jumpSize=0;opacity=10;flowAnimation=0;shadow=0;jumpStyle=none;dashed=1;dashPattern=1 1;" parent="1" edge="1">
          <mxGeometry width="50" height="50" relative="1" as="geometry">
            <mxPoint x="469.95000000000005" y="80" as="sourcePoint" />
            <mxPoint x="469.95" y="80" as="targetPoint" />
          </mxGeometry>
        </mxCell>
        <mxCell id="gBEdq5ZTxUluI_XgzyKd-585" value="" style="endArrow=none;html=1;strokeWidth=1;rounded=0;jumpSize=0;opacity=10;flowAnimation=0;shadow=0;jumpStyle=none;dashed=1;dashPattern=1 1;" parent="1" edge="1">
          <mxGeometry width="50" height="50" relative="1" as="geometry">
            <mxPoint x="450" y="160" as="sourcePoint" />
            <mxPoint x="430" y="80" as="targetPoint" />
          </mxGeometry>
        </mxCell>
        <mxCell id="gBEdq5ZTxUluI_XgzyKd-586" value="" style="endArrow=none;html=1;strokeWidth=1;rounded=0;jumpSize=0;opacity=10;flowAnimation=0;shadow=0;jumpStyle=none;dashed=1;dashPattern=1 1;" parent="1" edge="1">
          <mxGeometry width="50" height="50" relative="1" as="geometry">
            <mxPoint x="489.95000000000005" y="80" as="sourcePoint" />
            <mxPoint x="489.95" y="80" as="targetPoint" />
          </mxGeometry>
        </mxCell>
        <mxCell id="gBEdq5ZTxUluI_XgzyKd-604" value="&lt;div&gt;&lt;font style=&quot;font-size: 5px;&quot;&gt;29&lt;/font&gt;&lt;/div&gt;" style="text;html=1;align=center;verticalAlign=middle;whiteSpace=wrap;rounded=0;fontColor=#3399FF;" parent="1" vertex="1">
          <mxGeometry x="370" y="75" as="geometry" />
        </mxCell>
        <mxCell id="gBEdq5ZTxUluI_XgzyKd-605" value="&lt;font style=&quot;font-size: 5px;&quot;&gt;30&lt;/font&gt;" style="text;html=1;align=center;verticalAlign=middle;whiteSpace=wrap;rounded=0;fontColor=#3399FF;" parent="1" vertex="1">
          <mxGeometry x="380" y="75" as="geometry" />
        </mxCell>
        <mxCell id="gBEdq5ZTxUluI_XgzyKd-606" value="&lt;font style=&quot;font-size: 5px;&quot;&gt;31&lt;/font&gt;" style="text;html=1;align=center;verticalAlign=middle;whiteSpace=wrap;rounded=0;fontColor=#3399FF;" parent="1" vertex="1">
          <mxGeometry x="390" y="75" as="geometry" />
        </mxCell>
        <mxCell id="gBEdq5ZTxUluI_XgzyKd-607" value="&lt;font style=&quot;font-size: 5px;&quot;&gt;32&lt;/font&gt;" style="text;html=1;align=center;verticalAlign=middle;whiteSpace=wrap;rounded=0;fontColor=#3399FF;" parent="1" vertex="1">
          <mxGeometry x="400" y="75" as="geometry" />
        </mxCell>
        <mxCell id="gBEdq5ZTxUluI_XgzyKd-608" value="&lt;font style=&quot;font-size: 5px;&quot;&gt;33&lt;/font&gt;" style="text;html=1;align=center;verticalAlign=middle;whiteSpace=wrap;rounded=0;fontColor=#3399FF;" parent="1" vertex="1">
          <mxGeometry x="410" y="75" as="geometry" />
        </mxCell>
        <mxCell id="gBEdq5ZTxUluI_XgzyKd-609" value="&lt;font style=&quot;font-size: 5px;&quot;&gt;34&lt;/font&gt;" style="text;html=1;align=center;verticalAlign=middle;whiteSpace=wrap;rounded=0;fontColor=#3399FF;" parent="1" vertex="1">
          <mxGeometry x="420" y="75" as="geometry" />
        </mxCell>
        <mxCell id="gBEdq5ZTxUluI_XgzyKd-610" value="&lt;font style=&quot;font-size: 5px;&quot;&gt;35&lt;/font&gt;" style="text;html=1;align=center;verticalAlign=middle;whiteSpace=wrap;rounded=0;fontColor=#3399FF;" parent="1" vertex="1">
          <mxGeometry x="430" y="75" as="geometry" />
        </mxCell>
        <mxCell id="gBEdq5ZTxUluI_XgzyKd-611" value="&lt;font style=&quot;font-size: 5px;&quot;&gt;36&lt;/font&gt;" style="text;html=1;align=center;verticalAlign=middle;whiteSpace=wrap;rounded=0;fontColor=#3399FF;" parent="1" vertex="1">
          <mxGeometry x="440" y="75" as="geometry" />
        </mxCell>
        <mxCell id="gBEdq5ZTxUluI_XgzyKd-613" value="&lt;font style=&quot;font-size: 5px;&quot;&gt;25&lt;/font&gt;" style="text;html=1;align=center;verticalAlign=middle;whiteSpace=wrap;rounded=0;fontColor=#3399FF;" parent="1" vertex="1">
          <mxGeometry x="360" y="155" as="geometry" />
        </mxCell>
        <mxCell id="gBEdq5ZTxUluI_XgzyKd-615" value="&lt;font style=&quot;font-size: 5px;&quot;&gt;27&lt;/font&gt;" style="text;html=1;align=center;verticalAlign=middle;whiteSpace=wrap;rounded=0;fontColor=#3399FF;" parent="1" vertex="1">
          <mxGeometry x="380" y="155" as="geometry" />
        </mxCell>
        <mxCell id="gBEdq5ZTxUluI_XgzyKd-617" value="&lt;div&gt;&lt;font style=&quot;font-size: 5px;&quot;&gt;29&lt;/font&gt;&lt;/div&gt;" style="text;html=1;align=center;verticalAlign=middle;whiteSpace=wrap;rounded=0;fontColor=#3399FF;" parent="1" vertex="1">
          <mxGeometry x="400" y="155" as="geometry" />
        </mxCell>
        <mxCell id="gBEdq5ZTxUluI_XgzyKd-619" value="&lt;font style=&quot;font-size: 5px;&quot;&gt;31&lt;/font&gt;" style="text;html=1;align=center;verticalAlign=middle;whiteSpace=wrap;rounded=0;fontColor=#3399FF;" parent="1" vertex="1">
          <mxGeometry x="420" y="155" as="geometry" />
        </mxCell>
        <mxCell id="gBEdq5ZTxUluI_XgzyKd-621" value="&lt;font style=&quot;font-size: 5px;&quot;&gt;33&lt;/font&gt;" style="text;html=1;align=center;verticalAlign=middle;whiteSpace=wrap;rounded=0;fontColor=#3399FF;" parent="1" vertex="1">
          <mxGeometry x="440" y="155" as="geometry" />
        </mxCell>
        <mxCell id="gBEdq5ZTxUluI_XgzyKd-630" value="" style="verticalLabelPosition=bottom;verticalAlign=top;html=1;shape=mxgraph.basic.flash;fillColor=#f8cecc;strokeColor=#b85450;" parent="1" vertex="1">
          <mxGeometry x="347.57" y="260" width="5" height="10" as="geometry" />
        </mxCell>
        <mxCell id="gBEdq5ZTxUluI_XgzyKd-634" value="" style="endArrow=none;html=1;strokeWidth=1;rounded=0;jumpSize=0;opacity=10;flowAnimation=0;shadow=0;jumpStyle=none;dashed=1;dashPattern=1 1;" parent="1" edge="1">
          <mxGeometry width="50" height="50" relative="1" as="geometry">
            <mxPoint x="370" y="240" as="sourcePoint" />
            <mxPoint x="340" y="160" as="targetPoint" />
          </mxGeometry>
        </mxCell>
        <mxCell id="gBEdq5ZTxUluI_XgzyKd-635" value="" style="endArrow=none;html=1;strokeWidth=1;rounded=0;jumpSize=0;opacity=10;flowAnimation=0;shadow=0;jumpStyle=none;dashed=1;dashPattern=1 1;" parent="1" edge="1">
          <mxGeometry width="50" height="50" relative="1" as="geometry">
            <mxPoint x="390" y="240" as="sourcePoint" />
            <mxPoint x="360" y="160" as="targetPoint" />
          </mxGeometry>
        </mxCell>
        <mxCell id="gBEdq5ZTxUluI_XgzyKd-636" value="" style="endArrow=none;html=1;strokeWidth=1;rounded=0;jumpSize=0;opacity=10;flowAnimation=0;shadow=0;jumpStyle=none;dashed=1;dashPattern=1 1;" parent="1" source="gBEdq5ZTxUluI_XgzyKd-676" edge="1">
          <mxGeometry width="50" height="50" relative="1" as="geometry">
            <mxPoint x="410" y="240" as="sourcePoint" />
            <mxPoint x="380" y="160" as="targetPoint" />
          </mxGeometry>
        </mxCell>
        <mxCell id="gBEdq5ZTxUluI_XgzyKd-637" value="" style="endArrow=none;html=1;strokeWidth=1;rounded=0;jumpSize=0;opacity=10;flowAnimation=0;shadow=0;jumpStyle=none;dashed=1;dashPattern=1 1;" parent="1" source="gBEdq5ZTxUluI_XgzyKd-680" edge="1">
          <mxGeometry width="50" height="50" relative="1" as="geometry">
            <mxPoint x="430" y="240" as="sourcePoint" />
            <mxPoint x="400" y="160" as="targetPoint" />
          </mxGeometry>
        </mxCell>
        <mxCell id="gBEdq5ZTxUluI_XgzyKd-638" value="" style="endArrow=none;html=1;strokeWidth=1;rounded=0;jumpSize=0;opacity=10;flowAnimation=0;shadow=0;jumpStyle=none;dashed=1;dashPattern=1 1;" parent="1" source="gBEdq5ZTxUluI_XgzyKd-684" edge="1">
          <mxGeometry width="50" height="50" relative="1" as="geometry">
            <mxPoint x="450" y="240" as="sourcePoint" />
            <mxPoint x="420" y="160" as="targetPoint" />
          </mxGeometry>
        </mxCell>
        <mxCell id="gBEdq5ZTxUluI_XgzyKd-639" value="" style="endArrow=none;html=1;strokeWidth=1;rounded=0;jumpSize=0;opacity=10;flowAnimation=0;shadow=0;jumpStyle=none;dashed=1;dashPattern=1 1;" parent="1" source="gBEdq5ZTxUluI_XgzyKd-686" edge="1">
          <mxGeometry width="50" height="50" relative="1" as="geometry">
            <mxPoint x="470" y="240" as="sourcePoint" />
            <mxPoint x="440" y="160" as="targetPoint" />
          </mxGeometry>
        </mxCell>
        <mxCell id="gBEdq5ZTxUluI_XgzyKd-640" value="" style="endArrow=none;html=1;strokeWidth=1;rounded=0;jumpSize=0;opacity=10;flowAnimation=0;shadow=0;jumpStyle=none;dashed=1;dashPattern=1 1;" parent="1" edge="1">
          <mxGeometry width="50" height="50" relative="1" as="geometry">
            <mxPoint x="390" y="235" as="sourcePoint" />
            <mxPoint x="420" y="160" as="targetPoint" />
          </mxGeometry>
        </mxCell>
        <mxCell id="gBEdq5ZTxUluI_XgzyKd-641" value="" style="endArrow=none;html=1;strokeWidth=1;rounded=0;jumpSize=0;opacity=10;flowAnimation=0;shadow=0;jumpStyle=none;dashed=1;dashPattern=1 1;" parent="1" source="gBEdq5ZTxUluI_XgzyKd-689" edge="1">
          <mxGeometry width="50" height="50" relative="1" as="geometry">
            <mxPoint x="400" y="240" as="sourcePoint" />
            <mxPoint x="430" y="160" as="targetPoint" />
          </mxGeometry>
        </mxCell>
        <mxCell id="gBEdq5ZTxUluI_XgzyKd-642" value="" style="endArrow=none;html=1;strokeWidth=1;rounded=0;jumpSize=0;opacity=10;flowAnimation=0;shadow=0;jumpStyle=none;dashed=1;dashPattern=1 1;" parent="1" edge="1">
          <mxGeometry width="50" height="50" relative="1" as="geometry">
            <mxPoint x="410" y="240" as="sourcePoint" />
            <mxPoint x="440" y="160" as="targetPoint" />
          </mxGeometry>
        </mxCell>
        <mxCell id="gBEdq5ZTxUluI_XgzyKd-643" value="" style="endArrow=none;html=1;strokeWidth=1;rounded=0;jumpSize=0;opacity=10;flowAnimation=0;shadow=0;jumpStyle=none;dashed=1;dashPattern=1 1;" parent="1" edge="1">
          <mxGeometry width="50" height="50" relative="1" as="geometry">
            <mxPoint x="420" y="240" as="sourcePoint" />
            <mxPoint x="450" y="160" as="targetPoint" />
          </mxGeometry>
        </mxCell>
        <mxCell id="gBEdq5ZTxUluI_XgzyKd-662" value="&lt;font style=&quot;font-size: 5px;&quot;&gt;21&lt;/font&gt;" style="text;html=1;align=center;verticalAlign=middle;whiteSpace=wrap;rounded=0;fontColor=#00CC00;" parent="1" vertex="1">
          <mxGeometry x="360" y="160" as="geometry" />
        </mxCell>
        <mxCell id="gBEdq5ZTxUluI_XgzyKd-676" value="&lt;font style=&quot;font-size: 5px;&quot;&gt;22&lt;/font&gt;" style="text;html=1;align=center;verticalAlign=middle;whiteSpace=wrap;rounded=0;fontColor=#B85450;" parent="1" vertex="1">
          <mxGeometry x="380" y="160" as="geometry" />
        </mxCell>
        <mxCell id="gBEdq5ZTxUluI_XgzyKd-679" value="&lt;font style=&quot;font-size: 5px;&quot;&gt;x&lt;/font&gt;" style="text;html=1;align=center;verticalAlign=middle;whiteSpace=wrap;rounded=0;fontColor=#B85450;" parent="1" vertex="1">
          <mxGeometry x="390" y="160" as="geometry" />
        </mxCell>
        <mxCell id="gBEdq5ZTxUluI_XgzyKd-681" value="" style="endArrow=none;html=1;strokeWidth=1;rounded=0;jumpSize=0;opacity=10;flowAnimation=0;shadow=0;jumpStyle=none;dashed=1;dashPattern=1 1;" parent="1" target="gBEdq5ZTxUluI_XgzyKd-680" edge="1">
          <mxGeometry width="50" height="50" relative="1" as="geometry">
            <mxPoint x="430" y="240" as="sourcePoint" />
            <mxPoint x="400" y="160" as="targetPoint" />
          </mxGeometry>
        </mxCell>
        <mxCell id="gBEdq5ZTxUluI_XgzyKd-680" value="&lt;font style=&quot;font-size: 5px;&quot;&gt;23&lt;/font&gt;" style="text;html=1;align=center;verticalAlign=middle;whiteSpace=wrap;rounded=0;fontColor=#B85450;" parent="1" vertex="1">
          <mxGeometry x="400" y="160" as="geometry" />
        </mxCell>
        <mxCell id="gBEdq5ZTxUluI_XgzyKd-683" value="" style="endArrow=none;html=1;strokeWidth=1;rounded=0;jumpSize=0;opacity=10;flowAnimation=0;shadow=0;jumpStyle=none;dashed=1;dashPattern=1 1;" parent="1" target="gBEdq5ZTxUluI_XgzyKd-682" edge="1">
          <mxGeometry width="50" height="50" relative="1" as="geometry">
            <mxPoint x="380" y="240" as="sourcePoint" />
            <mxPoint x="410" y="160" as="targetPoint" />
          </mxGeometry>
        </mxCell>
        <mxCell id="gBEdq5ZTxUluI_XgzyKd-682" value="&lt;font style=&quot;font-size: 5px;&quot;&gt;x&lt;/font&gt;" style="text;html=1;align=center;verticalAlign=middle;whiteSpace=wrap;rounded=0;fontColor=#B85450;" parent="1" vertex="1">
          <mxGeometry x="410" y="160" as="geometry" />
        </mxCell>
        <mxCell id="gBEdq5ZTxUluI_XgzyKd-684" value="&lt;font style=&quot;font-size: 5px;&quot;&gt;24&lt;/font&gt;" style="text;html=1;align=center;verticalAlign=middle;whiteSpace=wrap;rounded=0;fontColor=#B85450;" parent="1" vertex="1">
          <mxGeometry x="420" y="160" as="geometry" />
        </mxCell>
        <mxCell id="gBEdq5ZTxUluI_XgzyKd-686" value="&lt;font style=&quot;font-size: 5px;&quot;&gt;25&lt;/font&gt;" style="text;html=1;align=center;verticalAlign=middle;whiteSpace=wrap;rounded=0;fontColor=#B85450;" parent="1" vertex="1">
          <mxGeometry x="440" y="160" as="geometry" />
        </mxCell>
        <mxCell id="gBEdq5ZTxUluI_XgzyKd-690" value="" style="endArrow=none;html=1;strokeWidth=1;rounded=0;jumpSize=0;opacity=10;flowAnimation=0;shadow=0;jumpStyle=none;dashed=1;dashPattern=1 1;" parent="1" target="gBEdq5ZTxUluI_XgzyKd-689" edge="1">
          <mxGeometry width="50" height="50" relative="1" as="geometry">
            <mxPoint x="400" y="240" as="sourcePoint" />
            <mxPoint x="430" y="160" as="targetPoint" />
          </mxGeometry>
        </mxCell>
        <mxCell id="gBEdq5ZTxUluI_XgzyKd-689" value="&lt;font style=&quot;font-size: 5px;&quot;&gt;x&lt;/font&gt;" style="text;html=1;align=center;verticalAlign=middle;whiteSpace=wrap;rounded=0;fontColor=#B85450;" parent="1" vertex="1">
          <mxGeometry x="430" y="160" as="geometry" />
        </mxCell>
        <mxCell id="gBEdq5ZTxUluI_XgzyKd-691" value="&lt;font style=&quot;font-size: 5px;&quot;&gt;x&lt;/font&gt;" style="text;html=1;align=center;verticalAlign=middle;whiteSpace=wrap;rounded=0;fontColor=#B85450;" parent="1" vertex="1">
          <mxGeometry x="450" y="160" as="geometry" />
        </mxCell>
        <mxCell id="gBEdq5ZTxUluI_XgzyKd-707" value="&lt;font style=&quot;font-size: 5px;&quot;&gt;21&lt;/font&gt;" style="text;html=1;align=center;verticalAlign=middle;whiteSpace=wrap;rounded=0;fontColor=#00CC00;" parent="1" vertex="1">
          <mxGeometry x="429.95" y="80" as="geometry" />
        </mxCell>
        <mxCell id="gBEdq5ZTxUluI_XgzyKd-714" value="" style="verticalLabelPosition=bottom;verticalAlign=top;html=1;shape=mxgraph.basic.flash;fillColor=#f8cecc;strokeColor=#b85450;" parent="1" vertex="1">
          <mxGeometry x="407.57" y="260" width="5" height="10" as="geometry" />
        </mxCell>
        <mxCell id="gBEdq5ZTxUluI_XgzyKd-716" value="" style="verticalLabelPosition=bottom;verticalAlign=top;html=1;shape=mxgraph.basic.flash;fillColor=#f8cecc;strokeColor=#b85450;" parent="1" vertex="1">
          <mxGeometry x="427.57" y="260" width="5" height="10" as="geometry" />
        </mxCell>
        <mxCell id="gBEdq5ZTxUluI_XgzyKd-718" value="&lt;font color=&quot;#b85450&quot; style=&quot;font-size: 5px;&quot;&gt;some p2 input is late&lt;br&gt;&lt;/font&gt;" style="text;html=1;align=center;verticalAlign=middle;whiteSpace=wrap;rounded=0;" parent="1" vertex="1">
          <mxGeometry x="380" y="170" width="60" as="geometry" />
        </mxCell>
        <mxCell id="gBEdq5ZTxUluI_XgzyKd-732" value="&lt;font style=&quot;font-size: 5px;&quot;&gt;world update interval = 20ms&lt;br&gt;&lt;/font&gt;" style="text;html=1;align=center;verticalAlign=middle;whiteSpace=wrap;rounded=0;" parent="1" vertex="1">
          <mxGeometry x="5.05" y="20" width="69.95" as="geometry" />
        </mxCell>
        <mxCell id="gBEdq5ZTxUluI_XgzyKd-733" value="&lt;font style=&quot;font-size: 5px;&quot;&gt;client simulation offset = 50ms&lt;br&gt;&lt;/font&gt;" style="text;html=1;align=center;verticalAlign=middle;whiteSpace=wrap;rounded=0;" parent="1" vertex="1">
          <mxGeometry x="5" y="30" width="70" as="geometry" />
        </mxCell>
        <mxCell id="gBEdq5ZTxUluI_XgzyKd-734" value="&lt;font style=&quot;font-size: 5px;&quot;&gt;client time = server time + &lt;font style=&quot;font-size: 5px;&quot;&gt;client simulation offset&lt;br&gt;&lt;/font&gt;&lt;/font&gt;" style="text;html=1;align=center;verticalAlign=middle;whiteSpace=wrap;rounded=0;" parent="1" vertex="1">
          <mxGeometry x="122.45" y="10" width="110" as="geometry" />
        </mxCell>
        <mxCell id="gBEdq5ZTxUluI_XgzyKd-736" value="&lt;font color=&quot;#b85450&quot; style=&quot;font-size: 5px;&quot;&gt;p1 rtt = 40ms &lt;br&gt;&lt;/font&gt;" style="text;html=1;align=center;verticalAlign=middle;whiteSpace=wrap;rounded=0;" parent="1" vertex="1">
          <mxGeometry x="40" y="120" width="40" as="geometry" />
        </mxCell>
        <mxCell id="gBEdq5ZTxUluI_XgzyKd-737" value="&lt;font color=&quot;#b85450&quot; style=&quot;font-size: 5px;&quot;&gt;p2 rtt = 20ms &lt;br&gt;&lt;/font&gt;" style="text;html=1;align=center;verticalAlign=middle;whiteSpace=wrap;rounded=0;" parent="1" vertex="1">
          <mxGeometry x="80" y="200" width="40" as="geometry" />
        </mxCell>
        <mxCell id="gBEdq5ZTxUluI_XgzyKd-739" value="&lt;font color=&quot;#b85450&quot; style=&quot;font-size: 5px;&quot;&gt;p2 rtt = 40ms &lt;br&gt;&lt;/font&gt;" style="text;html=1;align=center;verticalAlign=middle;whiteSpace=wrap;rounded=0;" parent="1" vertex="1">
          <mxGeometry x="272.5" y="190" width="40" as="geometry" />
        </mxCell>
        <mxCell id="gBEdq5ZTxUluI_XgzyKd-741" value="&lt;font color=&quot;#b85450&quot; style=&quot;font-size: 5px;&quot;&gt;p2 rtt = 60ms &lt;br&gt;&lt;/font&gt;" style="text;html=1;align=center;verticalAlign=middle;whiteSpace=wrap;rounded=0;" parent="1" vertex="1">
          <mxGeometry x="365" y="190" width="40" as="geometry" />
        </mxCell>
        <mxCell id="gBEdq5ZTxUluI_XgzyKd-744" value="&lt;font style=&quot;font-size: 5px;&quot;&gt;p1x and p2x are player positions on a 1D line&lt;font style=&quot;font-size: 5px;&quot;&gt;&lt;br&gt;&lt;/font&gt;&lt;/font&gt;" style="text;html=1;align=center;verticalAlign=middle;whiteSpace=wrap;rounded=0;" parent="1" vertex="1">
          <mxGeometry x="120" y="30" width="110" as="geometry" />
        </mxCell>
        <mxCell id="gBEdq5ZTxUluI_XgzyKd-745" value="" style="endArrow=none;html=1;strokeWidth=1;rounded=0;jumpSize=0;opacity=10;flowAnimation=0;shadow=0;jumpStyle=none;dashed=1;dashPattern=1 1;" parent="1" edge="1">
          <mxGeometry width="50" height="50" relative="1" as="geometry">
            <mxPoint x="410" y="240" as="sourcePoint" />
            <mxPoint x="380" y="160" as="targetPoint" />
          </mxGeometry>
        </mxCell>
        <mxCell id="gBEdq5ZTxUluI_XgzyKd-746" value="&lt;font style=&quot;font-size: 5px;&quot;&gt;100&lt;/font&gt;" style="text;html=1;align=center;verticalAlign=middle;whiteSpace=wrap;rounded=0;" parent="1" vertex="1">
          <mxGeometry x="40" y="150" as="geometry" />
        </mxCell>
        <mxCell id="gBEdq5ZTxUluI_XgzyKd-747" value="&lt;font style=&quot;font-size: 5px;&quot;&gt;110&lt;/font&gt;" style="text;html=1;align=center;verticalAlign=middle;whiteSpace=wrap;rounded=0;" parent="1" vertex="1">
          <mxGeometry x="50" y="150" as="geometry" />
        </mxCell>
        <mxCell id="gBEdq5ZTxUluI_XgzyKd-748" value="&lt;font style=&quot;font-size: 5px;&quot;&gt;120&lt;/font&gt;" style="text;html=1;align=center;verticalAlign=middle;whiteSpace=wrap;rounded=0;" parent="1" vertex="1">
          <mxGeometry x="60" y="150" as="geometry" />
        </mxCell>
        <mxCell id="gBEdq5ZTxUluI_XgzyKd-749" value="&lt;font style=&quot;font-size: 5px;&quot;&gt;130&lt;/font&gt;" style="text;html=1;align=center;verticalAlign=middle;whiteSpace=wrap;rounded=0;" parent="1" vertex="1">
          <mxGeometry x="70" y="150" as="geometry" />
        </mxCell>
        <mxCell id="gBEdq5ZTxUluI_XgzyKd-750" value="&lt;font style=&quot;font-size: 5px;&quot;&gt;140&lt;/font&gt;" style="text;html=1;align=center;verticalAlign=middle;whiteSpace=wrap;rounded=0;" parent="1" vertex="1">
          <mxGeometry x="80" y="150" as="geometry" />
        </mxCell>
        <mxCell id="gBEdq5ZTxUluI_XgzyKd-751" value="&lt;font style=&quot;font-size: 5px;&quot;&gt;150&lt;/font&gt;" style="text;html=1;align=center;verticalAlign=middle;whiteSpace=wrap;rounded=0;" parent="1" vertex="1">
          <mxGeometry x="90" y="150" as="geometry" />
        </mxCell>
        <mxCell id="gBEdq5ZTxUluI_XgzyKd-752" value="&lt;font style=&quot;font-size: 5px;&quot;&gt;160&lt;/font&gt;" style="text;html=1;align=center;verticalAlign=middle;whiteSpace=wrap;rounded=0;" parent="1" vertex="1">
          <mxGeometry x="100" y="150" as="geometry" />
        </mxCell>
        <mxCell id="gBEdq5ZTxUluI_XgzyKd-753" value="&lt;font style=&quot;font-size: 5px;&quot;&gt;170&lt;/font&gt;" style="text;html=1;align=center;verticalAlign=middle;whiteSpace=wrap;rounded=0;" parent="1" vertex="1">
          <mxGeometry x="110" y="150" as="geometry" />
        </mxCell>
        <mxCell id="gBEdq5ZTxUluI_XgzyKd-754" value="&lt;font style=&quot;font-size: 5px;&quot;&gt;180&lt;/font&gt;" style="text;html=1;align=center;verticalAlign=middle;whiteSpace=wrap;rounded=0;" parent="1" vertex="1">
          <mxGeometry x="120" y="150" as="geometry" />
        </mxCell>
        <mxCell id="gBEdq5ZTxUluI_XgzyKd-755" value="&lt;font style=&quot;font-size: 5px;&quot;&gt;190&lt;/font&gt;" style="text;html=1;align=center;verticalAlign=middle;whiteSpace=wrap;rounded=0;" parent="1" vertex="1">
          <mxGeometry x="130" y="150" as="geometry" />
        </mxCell>
        <mxCell id="gBEdq5ZTxUluI_XgzyKd-756" value="&lt;font style=&quot;font-size: 5px;&quot;&gt;200&lt;/font&gt;" style="text;html=1;align=center;verticalAlign=middle;whiteSpace=wrap;rounded=0;" parent="1" vertex="1">
          <mxGeometry x="140" y="150" as="geometry" />
        </mxCell>
        <mxCell id="gBEdq5ZTxUluI_XgzyKd-757" value="&lt;font style=&quot;font-size: 5px;&quot;&gt;210&lt;/font&gt;" style="text;html=1;align=center;verticalAlign=middle;whiteSpace=wrap;rounded=0;" parent="1" vertex="1">
          <mxGeometry x="150" y="150" as="geometry" />
        </mxCell>
        <mxCell id="gBEdq5ZTxUluI_XgzyKd-758" value="&lt;font style=&quot;font-size: 5px;&quot;&gt;220&lt;/font&gt;" style="text;html=1;align=center;verticalAlign=middle;whiteSpace=wrap;rounded=0;" parent="1" vertex="1">
          <mxGeometry x="160" y="150" as="geometry" />
        </mxCell>
        <mxCell id="gBEdq5ZTxUluI_XgzyKd-759" value="&lt;font style=&quot;font-size: 5px;&quot;&gt;230&lt;/font&gt;" style="text;html=1;align=center;verticalAlign=middle;whiteSpace=wrap;rounded=0;" parent="1" vertex="1">
          <mxGeometry x="170" y="150" as="geometry" />
        </mxCell>
        <mxCell id="gBEdq5ZTxUluI_XgzyKd-760" value="&lt;font style=&quot;font-size: 5px;&quot;&gt;240&lt;/font&gt;" style="text;html=1;align=center;verticalAlign=middle;whiteSpace=wrap;rounded=0;" parent="1" vertex="1">
          <mxGeometry x="180" y="150" as="geometry" />
        </mxCell>
        <mxCell id="gBEdq5ZTxUluI_XgzyKd-761" value="&lt;font style=&quot;font-size: 5px;&quot;&gt;250&lt;/font&gt;" style="text;html=1;align=center;verticalAlign=middle;whiteSpace=wrap;rounded=0;" parent="1" vertex="1">
          <mxGeometry x="190" y="150" as="geometry" />
        </mxCell>
        <mxCell id="gBEdq5ZTxUluI_XgzyKd-762" value="&lt;font style=&quot;font-size: 5px;&quot;&gt;260&lt;/font&gt;" style="text;html=1;align=center;verticalAlign=middle;whiteSpace=wrap;rounded=0;" parent="1" vertex="1">
          <mxGeometry x="200" y="150" as="geometry" />
        </mxCell>
        <mxCell id="gBEdq5ZTxUluI_XgzyKd-763" value="&lt;font style=&quot;font-size: 5px;&quot;&gt;270&lt;/font&gt;" style="text;html=1;align=center;verticalAlign=middle;whiteSpace=wrap;rounded=0;" parent="1" vertex="1">
          <mxGeometry x="210" y="150" as="geometry" />
        </mxCell>
        <mxCell id="gBEdq5ZTxUluI_XgzyKd-764" value="&lt;font style=&quot;font-size: 5px;&quot;&gt;280&lt;/font&gt;" style="text;html=1;align=center;verticalAlign=middle;whiteSpace=wrap;rounded=0;" parent="1" vertex="1">
          <mxGeometry x="220" y="150" as="geometry" />
        </mxCell>
        <mxCell id="gBEdq5ZTxUluI_XgzyKd-765" value="&lt;font style=&quot;font-size: 5px;&quot;&gt;290&lt;/font&gt;" style="text;html=1;align=center;verticalAlign=middle;whiteSpace=wrap;rounded=0;" parent="1" vertex="1">
          <mxGeometry x="230" y="150" as="geometry" />
        </mxCell>
        <mxCell id="gBEdq5ZTxUluI_XgzyKd-766" value="&lt;font style=&quot;font-size: 5px;&quot;&gt;300&lt;/font&gt;" style="text;html=1;align=center;verticalAlign=middle;whiteSpace=wrap;rounded=0;" parent="1" vertex="1">
          <mxGeometry x="240" y="150" as="geometry" />
        </mxCell>
        <mxCell id="gBEdq5ZTxUluI_XgzyKd-767" value="&lt;font style=&quot;font-size: 5px;&quot;&gt;310&lt;/font&gt;" style="text;html=1;align=center;verticalAlign=middle;whiteSpace=wrap;rounded=0;" parent="1" vertex="1">
          <mxGeometry x="250" y="150" as="geometry" />
        </mxCell>
        <mxCell id="gBEdq5ZTxUluI_XgzyKd-768" value="&lt;font style=&quot;font-size: 5px;&quot;&gt;320&lt;/font&gt;" style="text;html=1;align=center;verticalAlign=middle;whiteSpace=wrap;rounded=0;" parent="1" vertex="1">
          <mxGeometry x="260" y="150" as="geometry" />
        </mxCell>
        <mxCell id="gBEdq5ZTxUluI_XgzyKd-769" value="&lt;font style=&quot;font-size: 5px;&quot;&gt;330&lt;/font&gt;" style="text;html=1;align=center;verticalAlign=middle;whiteSpace=wrap;rounded=0;" parent="1" vertex="1">
          <mxGeometry x="270" y="150" as="geometry" />
        </mxCell>
        <mxCell id="gBEdq5ZTxUluI_XgzyKd-770" value="&lt;font style=&quot;font-size: 5px;&quot;&gt;340&lt;/font&gt;" style="text;html=1;align=center;verticalAlign=middle;whiteSpace=wrap;rounded=0;" parent="1" vertex="1">
          <mxGeometry x="280" y="150" as="geometry" />
        </mxCell>
        <mxCell id="gBEdq5ZTxUluI_XgzyKd-771" value="&lt;font style=&quot;font-size: 5px;&quot;&gt;350&lt;/font&gt;" style="text;html=1;align=center;verticalAlign=middle;whiteSpace=wrap;rounded=0;" parent="1" vertex="1">
          <mxGeometry x="290" y="150" as="geometry" />
        </mxCell>
        <mxCell id="gBEdq5ZTxUluI_XgzyKd-772" value="&lt;font style=&quot;font-size: 5px;&quot;&gt;370&lt;/font&gt;" style="text;html=1;align=center;verticalAlign=middle;whiteSpace=wrap;rounded=0;" parent="1" vertex="1">
          <mxGeometry x="310" y="150" as="geometry" />
        </mxCell>
        <mxCell id="gBEdq5ZTxUluI_XgzyKd-773" value="&lt;font style=&quot;font-size: 5px;&quot;&gt;360&lt;/font&gt;" style="text;html=1;align=center;verticalAlign=middle;whiteSpace=wrap;rounded=0;" parent="1" vertex="1">
          <mxGeometry x="300" y="150" as="geometry" />
        </mxCell>
        <mxCell id="gBEdq5ZTxUluI_XgzyKd-774" value="&lt;font style=&quot;font-size: 5px;&quot;&gt;380&lt;/font&gt;" style="text;html=1;align=center;verticalAlign=middle;whiteSpace=wrap;rounded=0;" parent="1" vertex="1">
          <mxGeometry x="320" y="150" as="geometry" />
        </mxCell>
        <mxCell id="gBEdq5ZTxUluI_XgzyKd-775" value="&lt;font style=&quot;font-size: 5px;&quot;&gt;390&lt;/font&gt;" style="text;html=1;align=center;verticalAlign=middle;whiteSpace=wrap;rounded=0;" parent="1" vertex="1">
          <mxGeometry x="330" y="150" as="geometry" />
        </mxCell>
        <mxCell id="gBEdq5ZTxUluI_XgzyKd-776" value="&lt;font style=&quot;font-size: 5px;&quot;&gt;400&lt;/font&gt;" style="text;html=1;align=center;verticalAlign=middle;whiteSpace=wrap;rounded=0;" parent="1" vertex="1">
          <mxGeometry x="340" y="150" as="geometry" />
        </mxCell>
        <mxCell id="gBEdq5ZTxUluI_XgzyKd-777" value="&lt;font style=&quot;font-size: 5px;&quot;&gt;410&lt;/font&gt;" style="text;html=1;align=center;verticalAlign=middle;whiteSpace=wrap;rounded=0;" parent="1" vertex="1">
          <mxGeometry x="350" y="150" as="geometry" />
        </mxCell>
        <mxCell id="gBEdq5ZTxUluI_XgzyKd-778" value="&lt;font style=&quot;font-size: 5px;&quot;&gt;420&lt;/font&gt;" style="text;html=1;align=center;verticalAlign=middle;whiteSpace=wrap;rounded=0;" parent="1" vertex="1">
          <mxGeometry x="360" y="150" as="geometry" />
        </mxCell>
        <mxCell id="gBEdq5ZTxUluI_XgzyKd-779" value="&lt;font style=&quot;font-size: 5px;&quot;&gt;430&lt;/font&gt;" style="text;html=1;align=center;verticalAlign=middle;whiteSpace=wrap;rounded=0;" parent="1" vertex="1">
          <mxGeometry x="370" y="150" as="geometry" />
        </mxCell>
        <mxCell id="gBEdq5ZTxUluI_XgzyKd-780" value="&lt;font style=&quot;font-size: 5px;&quot;&gt;440&lt;/font&gt;" style="text;html=1;align=center;verticalAlign=middle;whiteSpace=wrap;rounded=0;" parent="1" vertex="1">
          <mxGeometry x="380" y="150" as="geometry" />
        </mxCell>
        <mxCell id="gBEdq5ZTxUluI_XgzyKd-781" value="&lt;font style=&quot;font-size: 5px;&quot;&gt;450&lt;/font&gt;" style="text;html=1;align=center;verticalAlign=middle;whiteSpace=wrap;rounded=0;" parent="1" vertex="1">
          <mxGeometry x="390" y="150" as="geometry" />
        </mxCell>
        <mxCell id="gBEdq5ZTxUluI_XgzyKd-782" value="&lt;font style=&quot;font-size: 5px;&quot;&gt;460&lt;/font&gt;" style="text;html=1;align=center;verticalAlign=middle;whiteSpace=wrap;rounded=0;" parent="1" vertex="1">
          <mxGeometry x="400" y="150" as="geometry" />
        </mxCell>
        <mxCell id="gBEdq5ZTxUluI_XgzyKd-783" value="&lt;font style=&quot;font-size: 5px;&quot;&gt;470&lt;/font&gt;" style="text;html=1;align=center;verticalAlign=middle;whiteSpace=wrap;rounded=0;" parent="1" vertex="1">
          <mxGeometry x="410" y="150" as="geometry" />
        </mxCell>
        <mxCell id="gBEdq5ZTxUluI_XgzyKd-784" value="&lt;font style=&quot;font-size: 5px;&quot;&gt;480&lt;/font&gt;" style="text;html=1;align=center;verticalAlign=middle;whiteSpace=wrap;rounded=0;" parent="1" vertex="1">
          <mxGeometry x="420" y="150" as="geometry" />
        </mxCell>
        <mxCell id="gBEdq5ZTxUluI_XgzyKd-785" value="&lt;font style=&quot;font-size: 5px;&quot;&gt;490&lt;/font&gt;" style="text;html=1;align=center;verticalAlign=middle;whiteSpace=wrap;rounded=0;" parent="1" vertex="1">
          <mxGeometry x="430" y="150" as="geometry" />
        </mxCell>
        <mxCell id="gBEdq5ZTxUluI_XgzyKd-786" value="&lt;font style=&quot;font-size: 5px;&quot;&gt;500&lt;/font&gt;" style="text;html=1;align=center;verticalAlign=middle;whiteSpace=wrap;rounded=0;" parent="1" vertex="1">
          <mxGeometry x="440" y="150" as="geometry" />
        </mxCell>
        <mxCell id="gBEdq5ZTxUluI_XgzyKd-787" value="&lt;font style=&quot;font-size: 5px;&quot;&gt;server time&lt;br&gt;&lt;/font&gt;" style="text;html=1;align=center;verticalAlign=middle;whiteSpace=wrap;rounded=0;" parent="1" vertex="1">
          <mxGeometry x="0.05" y="150" width="30" as="geometry" />
        </mxCell>
        <mxCell id="gBEdq5ZTxUluI_XgzyKd-830" value="&lt;font style=&quot;font-size: 5px;&quot;&gt;physics step = 10ms&lt;br&gt;&lt;/font&gt;" style="text;html=1;align=center;verticalAlign=middle;whiteSpace=wrap;rounded=0;" parent="1" vertex="1">
          <mxGeometry x="15" y="10" width="50" as="geometry" />
        </mxCell>
        <mxCell id="gBEdq5ZTxUluI_XgzyKd-835" value="" style="endArrow=none;html=1;strokeWidth=1;rounded=0;jumpSize=0;opacity=10;flowAnimation=0;shadow=0;jumpStyle=none;dashed=1;dashPattern=1 1;entryX=0;entryY=0;entryDx=0;entryDy=0;exitX=0;exitY=0;exitDx=0;exitDy=0;exitPerimeter=0;" parent="1" target="gBEdq5ZTxUluI_XgzyKd-288" edge="1">
          <mxGeometry width="50" height="50" relative="1" as="geometry">
            <mxPoint x="210" y="235" as="sourcePoint" />
            <mxPoint x="190" y="170" as="targetPoint" />
          </mxGeometry>
        </mxCell>
        <mxCell id="gBEdq5ZTxUluI_XgzyKd-836" value="" style="endArrow=none;html=1;strokeWidth=1;rounded=0;jumpSize=0;opacity=10;flowAnimation=0;shadow=0;jumpStyle=none;dashed=1;dashPattern=1 1;" parent="1" source="VE2V3sf3IiLMLohbHc8v-163" edge="1">
          <mxGeometry width="50" height="50" relative="1" as="geometry">
            <mxPoint x="270" y="240" as="sourcePoint" />
            <mxPoint x="290" y="160" as="targetPoint" />
          </mxGeometry>
        </mxCell>
        <mxCell id="gBEdq5ZTxUluI_XgzyKd-838" value="" style="endArrow=none;html=1;strokeWidth=1;rounded=0;jumpSize=0;opacity=10;flowAnimation=0;shadow=0;jumpStyle=none;dashed=1;dashPattern=1 1;" parent="1" edge="1">
          <mxGeometry width="50" height="50" relative="1" as="geometry">
            <mxPoint x="340" y="240" as="sourcePoint" />
            <mxPoint x="370" y="160" as="targetPoint" />
          </mxGeometry>
        </mxCell>
        <mxCell id="VE2V3sf3IiLMLohbHc8v-1" value="&lt;font style=&quot;font-size: 5px;&quot;&gt;entity interpolation delay = 50ms&lt;br&gt;&lt;/font&gt;" style="text;html=1;align=center;verticalAlign=middle;whiteSpace=wrap;rounded=0;" parent="1" vertex="1">
          <mxGeometry y="40" width="80" as="geometry" />
        </mxCell>
        <mxCell id="VE2V3sf3IiLMLohbHc8v-2" value="&lt;font style=&quot;font-size: 5px;&quot;&gt;entity time&lt;br&gt;&lt;/font&gt;" style="text;html=1;align=center;verticalAlign=middle;whiteSpace=wrap;rounded=0;fontColor=#00CC00;" parent="1" vertex="1">
          <mxGeometry x="20" y="90" width="30" as="geometry" />
        </mxCell>
        <mxCell id="VE2V3sf3IiLMLohbHc8v-43" value="&lt;font style=&quot;font-size: 5px;&quot;&gt;110&lt;/font&gt;" style="text;html=1;align=center;verticalAlign=middle;whiteSpace=wrap;rounded=0;fontColor=#00CC00;" parent="1" vertex="1">
          <mxGeometry x="120" y="90" as="geometry" />
        </mxCell>
        <mxCell id="VE2V3sf3IiLMLohbHc8v-44" value="&lt;font style=&quot;font-size: 5px;&quot;&gt;120&lt;/font&gt;" style="text;html=1;align=center;verticalAlign=middle;whiteSpace=wrap;rounded=0;fontColor=#00CC00;" parent="1" vertex="1">
          <mxGeometry x="130" y="90" as="geometry" />
        </mxCell>
        <mxCell id="VE2V3sf3IiLMLohbHc8v-45" value="&lt;font style=&quot;font-size: 5px;&quot;&gt;130&lt;/font&gt;" style="text;html=1;align=center;verticalAlign=middle;whiteSpace=wrap;rounded=0;fontColor=#00CC00;" parent="1" vertex="1">
          <mxGeometry x="140" y="90" as="geometry" />
        </mxCell>
        <mxCell id="VE2V3sf3IiLMLohbHc8v-46" value="&lt;font style=&quot;font-size: 5px;&quot;&gt;140&lt;/font&gt;" style="text;html=1;align=center;verticalAlign=middle;whiteSpace=wrap;rounded=0;fontColor=#00CC00;" parent="1" vertex="1">
          <mxGeometry x="150" y="90" as="geometry" />
        </mxCell>
        <mxCell id="VE2V3sf3IiLMLohbHc8v-47" value="&lt;font style=&quot;font-size: 5px;&quot;&gt;150&lt;/font&gt;" style="text;html=1;align=center;verticalAlign=middle;whiteSpace=wrap;rounded=0;fontColor=#00CC00;" parent="1" vertex="1">
          <mxGeometry x="160" y="90" as="geometry" />
        </mxCell>
        <mxCell id="VE2V3sf3IiLMLohbHc8v-48" value="&lt;font style=&quot;font-size: 5px;&quot;&gt;160&lt;/font&gt;" style="text;html=1;align=center;verticalAlign=middle;whiteSpace=wrap;rounded=0;fontColor=#00CC00;" parent="1" vertex="1">
          <mxGeometry x="170" y="90" as="geometry" />
        </mxCell>
        <mxCell id="VE2V3sf3IiLMLohbHc8v-49" value="&lt;font style=&quot;font-size: 5px;&quot;&gt;170&lt;/font&gt;" style="text;html=1;align=center;verticalAlign=middle;whiteSpace=wrap;rounded=0;fontColor=#00CC00;" parent="1" vertex="1">
          <mxGeometry x="180" y="90" as="geometry" />
        </mxCell>
        <mxCell id="VE2V3sf3IiLMLohbHc8v-50" value="&lt;font style=&quot;font-size: 5px;&quot;&gt;180&lt;/font&gt;" style="text;html=1;align=center;verticalAlign=middle;whiteSpace=wrap;rounded=0;fontColor=#00CC00;" parent="1" vertex="1">
          <mxGeometry x="190" y="90" as="geometry" />
        </mxCell>
        <mxCell id="VE2V3sf3IiLMLohbHc8v-51" value="&lt;font style=&quot;font-size: 5px;&quot;&gt;190&lt;/font&gt;" style="text;html=1;align=center;verticalAlign=middle;whiteSpace=wrap;rounded=0;fontColor=#00CC00;" parent="1" vertex="1">
          <mxGeometry x="200" y="90" as="geometry" />
        </mxCell>
        <mxCell id="VE2V3sf3IiLMLohbHc8v-52" value="&lt;font style=&quot;font-size: 5px;&quot;&gt;200&lt;/font&gt;" style="text;html=1;align=center;verticalAlign=middle;whiteSpace=wrap;rounded=0;fontColor=#00CC00;" parent="1" vertex="1">
          <mxGeometry x="210" y="90" as="geometry" />
        </mxCell>
        <mxCell id="VE2V3sf3IiLMLohbHc8v-53" value="&lt;font style=&quot;font-size: 5px;&quot;&gt;210&lt;/font&gt;" style="text;html=1;align=center;verticalAlign=middle;whiteSpace=wrap;rounded=0;fontColor=#00CC00;" parent="1" vertex="1">
          <mxGeometry x="220" y="90" as="geometry" />
        </mxCell>
        <mxCell id="VE2V3sf3IiLMLohbHc8v-54" value="&lt;font style=&quot;font-size: 5px;&quot;&gt;220&lt;/font&gt;" style="text;html=1;align=center;verticalAlign=middle;whiteSpace=wrap;rounded=0;fontColor=#00CC00;" parent="1" vertex="1">
          <mxGeometry x="230" y="90" as="geometry" />
        </mxCell>
        <mxCell id="VE2V3sf3IiLMLohbHc8v-55" value="&lt;font style=&quot;font-size: 5px;&quot;&gt;230&lt;/font&gt;" style="text;html=1;align=center;verticalAlign=middle;whiteSpace=wrap;rounded=0;fontColor=#00CC00;" parent="1" vertex="1">
          <mxGeometry x="240" y="90" as="geometry" />
        </mxCell>
        <mxCell id="VE2V3sf3IiLMLohbHc8v-56" value="&lt;font style=&quot;font-size: 5px;&quot;&gt;240&lt;/font&gt;" style="text;html=1;align=center;verticalAlign=middle;whiteSpace=wrap;rounded=0;fontColor=#00CC00;" parent="1" vertex="1">
          <mxGeometry x="250" y="90" as="geometry" />
        </mxCell>
        <mxCell id="VE2V3sf3IiLMLohbHc8v-57" value="&lt;font style=&quot;font-size: 5px;&quot;&gt;250&lt;/font&gt;" style="text;html=1;align=center;verticalAlign=middle;whiteSpace=wrap;rounded=0;fontColor=#00CC00;" parent="1" vertex="1">
          <mxGeometry x="260" y="90" as="geometry" />
        </mxCell>
        <mxCell id="VE2V3sf3IiLMLohbHc8v-58" value="&lt;font style=&quot;font-size: 5px;&quot;&gt;260&lt;/font&gt;" style="text;html=1;align=center;verticalAlign=middle;whiteSpace=wrap;rounded=0;fontColor=#00CC00;" parent="1" vertex="1">
          <mxGeometry x="270" y="90" as="geometry" />
        </mxCell>
        <mxCell id="VE2V3sf3IiLMLohbHc8v-59" value="&lt;font style=&quot;font-size: 5px;&quot;&gt;270&lt;/font&gt;" style="text;html=1;align=center;verticalAlign=middle;whiteSpace=wrap;rounded=0;fontColor=#00CC00;" parent="1" vertex="1">
          <mxGeometry x="280" y="90" as="geometry" />
        </mxCell>
        <mxCell id="VE2V3sf3IiLMLohbHc8v-60" value="&lt;font style=&quot;font-size: 5px;&quot;&gt;280&lt;/font&gt;" style="text;html=1;align=center;verticalAlign=middle;whiteSpace=wrap;rounded=0;fontColor=#00CC00;" parent="1" vertex="1">
          <mxGeometry x="290" y="90" as="geometry" />
        </mxCell>
        <mxCell id="VE2V3sf3IiLMLohbHc8v-61" value="&lt;font style=&quot;font-size: 5px;&quot;&gt;290&lt;/font&gt;" style="text;html=1;align=center;verticalAlign=middle;whiteSpace=wrap;rounded=0;fontColor=#00CC00;" parent="1" vertex="1">
          <mxGeometry x="300" y="90" as="geometry" />
        </mxCell>
        <mxCell id="VE2V3sf3IiLMLohbHc8v-62" value="&lt;font style=&quot;font-size: 5px;&quot;&gt;300&lt;/font&gt;" style="text;html=1;align=center;verticalAlign=middle;whiteSpace=wrap;rounded=0;fontColor=#00CC00;" parent="1" vertex="1">
          <mxGeometry x="310" y="90" as="geometry" />
        </mxCell>
        <mxCell id="VE2V3sf3IiLMLohbHc8v-63" value="&lt;font style=&quot;font-size: 5px;&quot;&gt;310&lt;/font&gt;" style="text;html=1;align=center;verticalAlign=middle;whiteSpace=wrap;rounded=0;fontColor=#00CC00;" parent="1" vertex="1">
          <mxGeometry x="320" y="90" as="geometry" />
        </mxCell>
        <mxCell id="VE2V3sf3IiLMLohbHc8v-64" value="&lt;font style=&quot;font-size: 5px;&quot;&gt;320&lt;/font&gt;" style="text;html=1;align=center;verticalAlign=middle;whiteSpace=wrap;rounded=0;fontColor=#00CC00;" parent="1" vertex="1">
          <mxGeometry x="330" y="90" as="geometry" />
        </mxCell>
        <mxCell id="VE2V3sf3IiLMLohbHc8v-65" value="&lt;font style=&quot;font-size: 5px;&quot;&gt;330&lt;/font&gt;" style="text;html=1;align=center;verticalAlign=middle;whiteSpace=wrap;rounded=0;fontColor=#00CC00;" parent="1" vertex="1">
          <mxGeometry x="340" y="90" as="geometry" />
        </mxCell>
        <mxCell id="VE2V3sf3IiLMLohbHc8v-66" value="&lt;font style=&quot;font-size: 5px;&quot;&gt;340&lt;/font&gt;" style="text;html=1;align=center;verticalAlign=middle;whiteSpace=wrap;rounded=0;fontColor=#00CC00;" parent="1" vertex="1">
          <mxGeometry x="350" y="90" as="geometry" />
        </mxCell>
        <mxCell id="VE2V3sf3IiLMLohbHc8v-67" value="&lt;font style=&quot;font-size: 5px;&quot;&gt;350&lt;/font&gt;" style="text;html=1;align=center;verticalAlign=middle;whiteSpace=wrap;rounded=0;fontColor=#00CC00;" parent="1" vertex="1">
          <mxGeometry x="360" y="90" as="geometry" />
        </mxCell>
        <mxCell id="VE2V3sf3IiLMLohbHc8v-68" value="&lt;font style=&quot;font-size: 5px;&quot;&gt;370&lt;/font&gt;" style="text;html=1;align=center;verticalAlign=middle;whiteSpace=wrap;rounded=0;fontColor=#00CC00;" parent="1" vertex="1">
          <mxGeometry x="380" y="90" as="geometry" />
        </mxCell>
        <mxCell id="VE2V3sf3IiLMLohbHc8v-69" value="&lt;font style=&quot;font-size: 5px;&quot;&gt;360&lt;/font&gt;" style="text;html=1;align=center;verticalAlign=middle;whiteSpace=wrap;rounded=0;fontColor=#00CC00;" parent="1" vertex="1">
          <mxGeometry x="370" y="90" as="geometry" />
        </mxCell>
        <mxCell id="VE2V3sf3IiLMLohbHc8v-70" value="&lt;font style=&quot;font-size: 5px;&quot;&gt;380&lt;/font&gt;" style="text;html=1;align=center;verticalAlign=middle;whiteSpace=wrap;rounded=0;fontColor=#00CC00;" parent="1" vertex="1">
          <mxGeometry x="390" y="90" as="geometry" />
        </mxCell>
        <mxCell id="VE2V3sf3IiLMLohbHc8v-71" value="&lt;font style=&quot;font-size: 5px;&quot;&gt;390&lt;/font&gt;" style="text;html=1;align=center;verticalAlign=middle;whiteSpace=wrap;rounded=0;fontColor=#00CC00;" parent="1" vertex="1">
          <mxGeometry x="400" y="90" as="geometry" />
        </mxCell>
        <mxCell id="VE2V3sf3IiLMLohbHc8v-72" value="&lt;font style=&quot;font-size: 5px;&quot;&gt;400&lt;/font&gt;" style="text;html=1;align=center;verticalAlign=middle;whiteSpace=wrap;rounded=0;fontColor=#00CC00;" parent="1" vertex="1">
          <mxGeometry x="410" y="90" as="geometry" />
        </mxCell>
        <mxCell id="VE2V3sf3IiLMLohbHc8v-73" value="&lt;font style=&quot;font-size: 5px;&quot;&gt;410&lt;/font&gt;" style="text;html=1;align=center;verticalAlign=middle;whiteSpace=wrap;rounded=0;fontColor=#00CC00;" parent="1" vertex="1">
          <mxGeometry x="420" y="90" as="geometry" />
        </mxCell>
        <mxCell id="VE2V3sf3IiLMLohbHc8v-74" value="&lt;font style=&quot;font-size: 5px;&quot;&gt;420&lt;/font&gt;" style="text;html=1;align=center;verticalAlign=middle;whiteSpace=wrap;rounded=0;fontColor=#00CC00;" parent="1" vertex="1">
          <mxGeometry x="430" y="90" as="geometry" />
        </mxCell>
        <mxCell id="VE2V3sf3IiLMLohbHc8v-75" value="&lt;font style=&quot;font-size: 5px;&quot;&gt;430&lt;/font&gt;" style="text;html=1;align=center;verticalAlign=middle;whiteSpace=wrap;rounded=0;fontColor=#00CC00;" parent="1" vertex="1">
          <mxGeometry x="440" y="90" as="geometry" />
        </mxCell>
        <mxCell id="VE2V3sf3IiLMLohbHc8v-83" value="" style="endArrow=none;html=1;strokeWidth=1;rounded=0;jumpSize=0;opacity=10;flowAnimation=0;shadow=0;jumpStyle=none;dashed=1;dashPattern=1 1;curved=0;" parent="1" edge="1">
          <mxGeometry width="50" height="50" relative="1" as="geometry">
            <mxPoint x="280" y="160" as="sourcePoint" />
            <mxPoint x="300" y="80" as="targetPoint" />
          </mxGeometry>
        </mxCell>
        <mxCell id="VE2V3sf3IiLMLohbHc8v-85" value="&lt;font style=&quot;font-size: 5px;&quot;&gt;0&lt;/font&gt;" style="text;html=1;align=center;verticalAlign=middle;whiteSpace=wrap;rounded=0;fontColor=#00CC00;" parent="1" vertex="1">
          <mxGeometry x="180" y="80" as="geometry" />
        </mxCell>
        <mxCell id="VE2V3sf3IiLMLohbHc8v-86" value="&lt;font style=&quot;font-size: 5px;&quot;&gt;0&lt;/font&gt;" style="text;html=1;align=center;verticalAlign=middle;whiteSpace=wrap;rounded=0;fontColor=#00CC00;" parent="1" vertex="1">
          <mxGeometry x="200" y="80" as="geometry" />
        </mxCell>
        <mxCell id="VE2V3sf3IiLMLohbHc8v-88" value="" style="endArrow=none;html=1;strokeWidth=1;rounded=0;jumpSize=0;opacity=10;flowAnimation=0;shadow=0;jumpStyle=none;dashed=1;dashPattern=1 1;" parent="1" source="gBEdq5ZTxUluI_XgzyKd-279" target="VE2V3sf3IiLMLohbHc8v-87" edge="1">
          <mxGeometry width="50" height="50" relative="1" as="geometry">
            <mxPoint x="240" y="155" as="sourcePoint" />
            <mxPoint x="220" y="80" as="targetPoint" />
          </mxGeometry>
        </mxCell>
        <mxCell id="VE2V3sf3IiLMLohbHc8v-87" value="&lt;font style=&quot;font-size: 5px;&quot;&gt;0&lt;/font&gt;" style="text;html=1;align=center;verticalAlign=middle;whiteSpace=wrap;rounded=0;fontColor=#00CC00;" parent="1" vertex="1">
          <mxGeometry x="220" y="80" as="geometry" />
        </mxCell>
        <mxCell id="VE2V3sf3IiLMLohbHc8v-89" value="&lt;font style=&quot;font-size: 5px;&quot;&gt;2&lt;/font&gt;" style="text;html=1;align=center;verticalAlign=middle;whiteSpace=wrap;rounded=0;fontColor=#00CC00;" parent="1" vertex="1">
          <mxGeometry x="240" y="80" as="geometry" />
        </mxCell>
        <mxCell id="VE2V3sf3IiLMLohbHc8v-91" value="" style="endArrow=none;html=1;strokeWidth=1;rounded=0;jumpSize=0;opacity=10;flowAnimation=0;shadow=0;jumpStyle=none;dashed=1;dashPattern=1 1;" parent="1" target="VE2V3sf3IiLMLohbHc8v-90" edge="1">
          <mxGeometry width="50" height="50" relative="1" as="geometry">
            <mxPoint x="280" y="160" as="sourcePoint" />
            <mxPoint x="260" y="80" as="targetPoint" />
          </mxGeometry>
        </mxCell>
        <mxCell id="VE2V3sf3IiLMLohbHc8v-90" value="&lt;font style=&quot;font-size: 5px;&quot;&gt;4&lt;/font&gt;" style="text;html=1;align=center;verticalAlign=middle;whiteSpace=wrap;rounded=0;fontColor=#00CC00;" parent="1" vertex="1">
          <mxGeometry x="260" y="80" as="geometry" />
        </mxCell>
        <mxCell id="VE2V3sf3IiLMLohbHc8v-92" value="&lt;font style=&quot;font-size: 5px;&quot;&gt;6&lt;/font&gt;" style="text;html=1;align=center;verticalAlign=middle;whiteSpace=wrap;rounded=0;fontColor=#00CC00;" parent="1" vertex="1">
          <mxGeometry x="280" y="80" as="geometry" />
        </mxCell>
        <mxCell id="VE2V3sf3IiLMLohbHc8v-94" value="" style="endArrow=none;html=1;strokeWidth=1;rounded=0;jumpSize=0;opacity=10;flowAnimation=0;shadow=0;jumpStyle=none;dashed=1;dashPattern=1 1;" parent="1" target="VE2V3sf3IiLMLohbHc8v-93" edge="1">
          <mxGeometry width="50" height="50" relative="1" as="geometry">
            <mxPoint x="320" y="160" as="sourcePoint" />
            <mxPoint x="300" y="80" as="targetPoint" />
          </mxGeometry>
        </mxCell>
        <mxCell id="VE2V3sf3IiLMLohbHc8v-93" value="&lt;font style=&quot;font-size: 5px;&quot;&gt;8&lt;/font&gt;" style="text;html=1;align=center;verticalAlign=middle;whiteSpace=wrap;rounded=0;fontColor=#00CC00;" parent="1" vertex="1">
          <mxGeometry x="300" y="80" as="geometry" />
        </mxCell>
        <mxCell id="VE2V3sf3IiLMLohbHc8v-96" value="" style="endArrow=none;html=1;strokeWidth=1;rounded=0;jumpSize=0;opacity=10;flowAnimation=0;shadow=0;jumpStyle=none;dashed=1;dashPattern=1 1;" parent="1" target="VE2V3sf3IiLMLohbHc8v-95" edge="1">
          <mxGeometry width="50" height="50" relative="1" as="geometry">
            <mxPoint x="340" y="160" as="sourcePoint" />
            <mxPoint x="320" y="80" as="targetPoint" />
          </mxGeometry>
        </mxCell>
        <mxCell id="VE2V3sf3IiLMLohbHc8v-95" value="&lt;font style=&quot;font-size: 5px;&quot;&gt;10&lt;/font&gt;" style="text;html=1;align=center;verticalAlign=middle;whiteSpace=wrap;rounded=0;fontColor=#00CC00;" parent="1" vertex="1">
          <mxGeometry x="320" y="80" as="geometry" />
        </mxCell>
        <mxCell id="VE2V3sf3IiLMLohbHc8v-97" value="&lt;font style=&quot;font-size: 5px;&quot;&gt;12&lt;/font&gt;" style="text;html=1;align=center;verticalAlign=middle;whiteSpace=wrap;rounded=0;fontColor=#00CC00;" parent="1" vertex="1">
          <mxGeometry x="340" y="80" as="geometry" />
        </mxCell>
        <mxCell id="VE2V3sf3IiLMLohbHc8v-99" value="" style="endArrow=none;html=1;strokeWidth=1;rounded=0;jumpSize=0;opacity=10;flowAnimation=0;shadow=0;jumpStyle=none;dashed=1;dashPattern=1 1;" parent="1" target="VE2V3sf3IiLMLohbHc8v-98" edge="1">
          <mxGeometry width="50" height="50" relative="1" as="geometry">
            <mxPoint x="380" y="160" as="sourcePoint" />
            <mxPoint x="360" y="80" as="targetPoint" />
          </mxGeometry>
        </mxCell>
        <mxCell id="VE2V3sf3IiLMLohbHc8v-98" value="&lt;font style=&quot;font-size: 5px;&quot;&gt;14&lt;/font&gt;" style="text;html=1;align=center;verticalAlign=middle;whiteSpace=wrap;rounded=0;fontColor=#00CC00;" parent="1" vertex="1">
          <mxGeometry x="360" y="80" as="geometry" />
        </mxCell>
        <mxCell id="VE2V3sf3IiLMLohbHc8v-100" value="&lt;font style=&quot;font-size: 5px;&quot;&gt;16&lt;/font&gt;" style="text;html=1;align=center;verticalAlign=middle;whiteSpace=wrap;rounded=0;fontColor=#00CC00;" parent="1" vertex="1">
          <mxGeometry x="380" y="80" as="geometry" />
        </mxCell>
        <mxCell id="VE2V3sf3IiLMLohbHc8v-101" value="&lt;font style=&quot;font-size: 5px;&quot;&gt;18&lt;/font&gt;" style="text;html=1;align=center;verticalAlign=middle;whiteSpace=wrap;rounded=0;fontColor=#00CC00;" parent="1" vertex="1">
          <mxGeometry x="400" y="80" as="geometry" />
        </mxCell>
        <mxCell id="VE2V3sf3IiLMLohbHc8v-102" value="&lt;font style=&quot;font-size: 5px;&quot;&gt;20&lt;/font&gt;" style="text;html=1;align=center;verticalAlign=middle;whiteSpace=wrap;rounded=0;fontColor=#00CC00;" parent="1" vertex="1">
          <mxGeometry x="420" y="80" as="geometry" />
        </mxCell>
        <mxCell id="VE2V3sf3IiLMLohbHc8v-103" value="&lt;font style=&quot;font-size: 5px;&quot;&gt;22&lt;/font&gt;" style="text;html=1;align=center;verticalAlign=middle;whiteSpace=wrap;rounded=0;fontColor=#00CC00;" parent="1" vertex="1">
          <mxGeometry x="440" y="80" as="geometry" />
        </mxCell>
        <mxCell id="VE2V3sf3IiLMLohbHc8v-104" value="" style="endArrow=none;html=1;strokeWidth=1;rounded=0;jumpSize=0;opacity=10;flowAnimation=0;shadow=0;jumpStyle=none;dashed=1;dashPattern=1 1;entryX=0;entryY=0;entryDx=0;entryDy=0;" parent="1" edge="1">
          <mxGeometry width="50" height="50" relative="1" as="geometry">
            <mxPoint x="260" y="160" as="sourcePoint" />
            <mxPoint x="240" y="80" as="targetPoint" />
          </mxGeometry>
        </mxCell>
        <mxCell id="VE2V3sf3IiLMLohbHc8v-105" value="" style="endArrow=none;html=1;strokeWidth=1;rounded=0;jumpSize=0;opacity=10;flowAnimation=0;shadow=0;jumpStyle=none;dashed=1;dashPattern=1 1;" parent="1" edge="1">
          <mxGeometry width="50" height="50" relative="1" as="geometry">
            <mxPoint x="400" y="160" as="sourcePoint" />
            <mxPoint x="380" y="80" as="targetPoint" />
          </mxGeometry>
        </mxCell>
        <mxCell id="VE2V3sf3IiLMLohbHc8v-106" value="" style="endArrow=none;html=1;strokeWidth=1;rounded=0;jumpSize=0;opacity=10;flowAnimation=0;shadow=0;jumpStyle=none;dashed=1;dashPattern=1 1;" parent="1" edge="1">
          <mxGeometry width="50" height="50" relative="1" as="geometry">
            <mxPoint x="420" y="160" as="sourcePoint" />
            <mxPoint x="400" y="80" as="targetPoint" />
          </mxGeometry>
        </mxCell>
        <mxCell id="VE2V3sf3IiLMLohbHc8v-107" value="" style="endArrow=none;html=1;strokeWidth=1;rounded=0;jumpSize=0;opacity=10;flowAnimation=0;shadow=0;jumpStyle=none;dashed=1;dashPattern=1 1;" parent="1" edge="1">
          <mxGeometry width="50" height="50" relative="1" as="geometry">
            <mxPoint x="439.95" y="160" as="sourcePoint" />
            <mxPoint x="419.95" y="80" as="targetPoint" />
          </mxGeometry>
        </mxCell>
        <mxCell id="VE2V3sf3IiLMLohbHc8v-110" value="&lt;font style=&quot;font-size: 5px;&quot;&gt;110&lt;/font&gt;" style="text;html=1;align=center;verticalAlign=middle;whiteSpace=wrap;rounded=0;fontColor=#3399FF;" parent="1" vertex="1">
          <mxGeometry x="110" y="230" as="geometry" />
        </mxCell>
        <mxCell id="VE2V3sf3IiLMLohbHc8v-111" value="&lt;font style=&quot;font-size: 5px;&quot;&gt;120&lt;/font&gt;" style="text;html=1;align=center;verticalAlign=middle;whiteSpace=wrap;rounded=0;fontColor=#3399FF;" parent="1" vertex="1">
          <mxGeometry x="120" y="230" as="geometry" />
        </mxCell>
        <mxCell id="VE2V3sf3IiLMLohbHc8v-112" value="&lt;font style=&quot;font-size: 5px;&quot;&gt;130&lt;/font&gt;" style="text;html=1;align=center;verticalAlign=middle;whiteSpace=wrap;rounded=0;fontColor=#3399FF;" parent="1" vertex="1">
          <mxGeometry x="130" y="230" as="geometry" />
        </mxCell>
        <mxCell id="VE2V3sf3IiLMLohbHc8v-113" value="&lt;font style=&quot;font-size: 5px;&quot;&gt;140&lt;/font&gt;" style="text;html=1;align=center;verticalAlign=middle;whiteSpace=wrap;rounded=0;fontColor=#3399FF;" parent="1" vertex="1">
          <mxGeometry x="140" y="230" as="geometry" />
        </mxCell>
        <mxCell id="VE2V3sf3IiLMLohbHc8v-114" value="&lt;font style=&quot;font-size: 5px;&quot;&gt;150&lt;/font&gt;" style="text;html=1;align=center;verticalAlign=middle;whiteSpace=wrap;rounded=0;fontColor=#3399FF;" parent="1" vertex="1">
          <mxGeometry x="150" y="230" as="geometry" />
        </mxCell>
        <mxCell id="VE2V3sf3IiLMLohbHc8v-115" value="&lt;font style=&quot;font-size: 5px;&quot;&gt;160&lt;/font&gt;" style="text;html=1;align=center;verticalAlign=middle;whiteSpace=wrap;rounded=0;fontColor=#3399FF;" parent="1" vertex="1">
          <mxGeometry x="160" y="230" as="geometry" />
        </mxCell>
        <mxCell id="VE2V3sf3IiLMLohbHc8v-116" value="&lt;font style=&quot;font-size: 5px;&quot;&gt;170&lt;/font&gt;" style="text;html=1;align=center;verticalAlign=middle;whiteSpace=wrap;rounded=0;fontColor=#3399FF;" parent="1" vertex="1">
          <mxGeometry x="170" y="230" as="geometry" />
        </mxCell>
        <mxCell id="VE2V3sf3IiLMLohbHc8v-117" value="&lt;font style=&quot;font-size: 5px;&quot;&gt;180&lt;/font&gt;" style="text;html=1;align=center;verticalAlign=middle;whiteSpace=wrap;rounded=0;fontColor=#3399FF;" parent="1" vertex="1">
          <mxGeometry x="180" y="230" as="geometry" />
        </mxCell>
        <mxCell id="VE2V3sf3IiLMLohbHc8v-118" value="&lt;font style=&quot;font-size: 5px;&quot;&gt;190&lt;/font&gt;" style="text;html=1;align=center;verticalAlign=middle;whiteSpace=wrap;rounded=0;fontColor=#3399FF;" parent="1" vertex="1">
          <mxGeometry x="190" y="230" as="geometry" />
        </mxCell>
        <mxCell id="VE2V3sf3IiLMLohbHc8v-119" value="&lt;font style=&quot;font-size: 5px;&quot;&gt;200&lt;/font&gt;" style="text;html=1;align=center;verticalAlign=middle;whiteSpace=wrap;rounded=0;fontColor=#3399FF;" parent="1" vertex="1">
          <mxGeometry x="200" y="230" as="geometry" />
        </mxCell>
        <mxCell id="VE2V3sf3IiLMLohbHc8v-120" value="&lt;font style=&quot;font-size: 5px;&quot;&gt;210&lt;/font&gt;" style="text;html=1;align=center;verticalAlign=middle;whiteSpace=wrap;rounded=0;fontColor=#3399FF;" parent="1" vertex="1">
          <mxGeometry x="210" y="230" as="geometry" />
        </mxCell>
        <mxCell id="VE2V3sf3IiLMLohbHc8v-121" value="&lt;font style=&quot;font-size: 5px;&quot;&gt;220&lt;/font&gt;" style="text;html=1;align=center;verticalAlign=middle;whiteSpace=wrap;rounded=0;fontColor=#3399FF;" parent="1" vertex="1">
          <mxGeometry x="220" y="230" as="geometry" />
        </mxCell>
        <mxCell id="VE2V3sf3IiLMLohbHc8v-123" value="&lt;font style=&quot;font-size: 5px;&quot;&gt;240&lt;/font&gt;" style="text;html=1;align=center;verticalAlign=middle;whiteSpace=wrap;rounded=0;fontColor=#3399FF;" parent="1" vertex="1">
          <mxGeometry x="240" y="230" as="geometry" />
        </mxCell>
        <mxCell id="VE2V3sf3IiLMLohbHc8v-124" value="&lt;font style=&quot;font-size: 5px;&quot;&gt;250&lt;/font&gt;" style="text;html=1;align=center;verticalAlign=middle;whiteSpace=wrap;rounded=0;fontColor=#3399FF;" parent="1" vertex="1">
          <mxGeometry x="250" y="230" as="geometry" />
        </mxCell>
        <mxCell id="VE2V3sf3IiLMLohbHc8v-125" value="&lt;font style=&quot;font-size: 5px;&quot;&gt;260&lt;/font&gt;" style="text;html=1;align=center;verticalAlign=middle;whiteSpace=wrap;rounded=0;fontColor=#3399FF;" parent="1" vertex="1">
          <mxGeometry x="260" y="230" as="geometry" />
        </mxCell>
        <mxCell id="VE2V3sf3IiLMLohbHc8v-126" value="&lt;font style=&quot;font-size: 5px;&quot;&gt;270&lt;/font&gt;" style="text;html=1;align=center;verticalAlign=middle;whiteSpace=wrap;rounded=0;fontColor=#3399FF;" parent="1" vertex="1">
          <mxGeometry x="270" y="230" as="geometry" />
        </mxCell>
        <mxCell id="VE2V3sf3IiLMLohbHc8v-127" value="&lt;font style=&quot;font-size: 5px;&quot;&gt;280&lt;/font&gt;" style="text;html=1;align=center;verticalAlign=middle;whiteSpace=wrap;rounded=0;fontColor=#3399FF;" parent="1" vertex="1">
          <mxGeometry x="289.98" y="230" as="geometry" />
        </mxCell>
        <mxCell id="VE2V3sf3IiLMLohbHc8v-128" value="&lt;font style=&quot;font-size: 5px;&quot;&gt;290&lt;/font&gt;" style="text;html=1;align=center;verticalAlign=middle;whiteSpace=wrap;rounded=0;fontColor=#3399FF;" parent="1" vertex="1">
          <mxGeometry x="299.93" y="230" as="geometry" />
        </mxCell>
        <mxCell id="VE2V3sf3IiLMLohbHc8v-129" value="&lt;font style=&quot;font-size: 5px;&quot;&gt;300&lt;/font&gt;" style="text;html=1;align=center;verticalAlign=middle;whiteSpace=wrap;rounded=0;fontColor=#3399FF;" parent="1" vertex="1">
          <mxGeometry x="309.93" y="230" as="geometry" />
        </mxCell>
        <mxCell id="VE2V3sf3IiLMLohbHc8v-130" value="&lt;font style=&quot;font-size: 5px;&quot;&gt;310&lt;/font&gt;" style="text;html=1;align=center;verticalAlign=middle;whiteSpace=wrap;rounded=0;fontColor=#3399FF;" parent="1" vertex="1">
          <mxGeometry x="319.93" y="230" as="geometry" />
        </mxCell>
        <mxCell id="VE2V3sf3IiLMLohbHc8v-131" value="&lt;font style=&quot;font-size: 5px;&quot;&gt;320&lt;/font&gt;" style="text;html=1;align=center;verticalAlign=middle;whiteSpace=wrap;rounded=0;fontColor=#3399FF;" parent="1" vertex="1">
          <mxGeometry x="329.93" y="230" as="geometry" />
        </mxCell>
        <mxCell id="VE2V3sf3IiLMLohbHc8v-132" value="&lt;font style=&quot;font-size: 5px;&quot;&gt;330&lt;/font&gt;" style="text;html=1;align=center;verticalAlign=middle;whiteSpace=wrap;rounded=0;fontColor=#3399FF;" parent="1" vertex="1">
          <mxGeometry x="339.93" y="230" as="geometry" />
        </mxCell>
        <mxCell id="VE2V3sf3IiLMLohbHc8v-144" value="&lt;font style=&quot;font-size: 5px;&quot;&gt;entity time&lt;br&gt;&lt;/font&gt;" style="text;html=1;align=center;verticalAlign=middle;whiteSpace=wrap;rounded=0;fontColor=#3399FF;" parent="1" vertex="1">
          <mxGeometry x="20" y="230" width="30" as="geometry" />
        </mxCell>
        <mxCell id="VE2V3sf3IiLMLohbHc8v-146" value="&lt;font style=&quot;font-size: 5px;&quot;&gt;0&lt;/font&gt;" style="text;html=1;align=center;verticalAlign=middle;whiteSpace=wrap;rounded=0;fontColor=#3399FF;" parent="1" vertex="1">
          <mxGeometry x="160" y="235" as="geometry" />
        </mxCell>
        <mxCell id="VE2V3sf3IiLMLohbHc8v-149" value="" style="endArrow=none;html=1;strokeWidth=1;rounded=0;jumpSize=0;opacity=10;flowAnimation=0;shadow=0;jumpStyle=none;dashed=1;dashPattern=1 1;" parent="1" target="VE2V3sf3IiLMLohbHc8v-147" edge="1">
          <mxGeometry width="50" height="50" relative="1" as="geometry">
            <mxPoint x="170" y="240" as="sourcePoint" />
            <mxPoint x="170" y="235" as="targetPoint" />
          </mxGeometry>
        </mxCell>
        <mxCell id="VE2V3sf3IiLMLohbHc8v-147" value="&lt;font style=&quot;font-size: 5px;&quot;&gt;0&lt;/font&gt;" style="text;html=1;align=center;verticalAlign=middle;whiteSpace=wrap;rounded=0;fontColor=#3399FF;" parent="1" vertex="1">
          <mxGeometry x="169.95" y="235" as="geometry" />
        </mxCell>
        <mxCell id="VE2V3sf3IiLMLohbHc8v-150" value="&lt;font style=&quot;font-size: 5px;&quot;&gt;1&lt;/font&gt;" style="text;html=1;align=center;verticalAlign=middle;whiteSpace=wrap;rounded=0;fontColor=#3399FF;" parent="1" vertex="1">
          <mxGeometry x="180" y="235" as="geometry" />
        </mxCell>
        <mxCell id="VE2V3sf3IiLMLohbHc8v-152" value="&lt;font style=&quot;font-size: 5px;&quot;&gt;2&lt;/font&gt;" style="text;html=1;align=center;verticalAlign=middle;whiteSpace=wrap;rounded=0;fontColor=#3399FF;" parent="1" vertex="1">
          <mxGeometry x="190" y="235" as="geometry" />
        </mxCell>
        <mxCell id="VE2V3sf3IiLMLohbHc8v-153" value="&lt;font style=&quot;font-size: 5px;&quot;&gt;3&lt;/font&gt;" style="text;html=1;align=center;verticalAlign=middle;whiteSpace=wrap;rounded=0;fontColor=#3399FF;" parent="1" vertex="1">
          <mxGeometry x="200" y="235" as="geometry" />
        </mxCell>
        <mxCell id="VE2V3sf3IiLMLohbHc8v-155" value="" style="endArrow=none;html=1;strokeWidth=1;rounded=0;jumpSize=0;opacity=10;flowAnimation=0;shadow=0;jumpStyle=none;dashed=1;dashPattern=1 1;" parent="1" target="VE2V3sf3IiLMLohbHc8v-154" edge="1">
          <mxGeometry width="50" height="50" relative="1" as="geometry">
            <mxPoint x="210" y="240" as="sourcePoint" />
            <mxPoint x="220" y="160" as="targetPoint" />
          </mxGeometry>
        </mxCell>
        <mxCell id="VE2V3sf3IiLMLohbHc8v-154" value="&lt;font style=&quot;font-size: 5px;&quot;&gt;4&lt;/font&gt;" style="text;html=1;align=center;verticalAlign=middle;whiteSpace=wrap;rounded=0;fontColor=#3399FF;" parent="1" vertex="1">
          <mxGeometry x="209.95" y="235" as="geometry" />
        </mxCell>
        <mxCell id="VE2V3sf3IiLMLohbHc8v-156" value="&lt;font style=&quot;font-size: 5px;&quot;&gt;5&lt;/font&gt;" style="text;html=1;align=center;verticalAlign=middle;whiteSpace=wrap;rounded=0;fontColor=#3399FF;" parent="1" vertex="1">
          <mxGeometry x="220" y="235" as="geometry" />
        </mxCell>
        <mxCell id="VE2V3sf3IiLMLohbHc8v-158" value="" style="endArrow=none;html=1;strokeWidth=1;rounded=0;jumpSize=0;opacity=10;flowAnimation=0;shadow=0;jumpStyle=none;dashed=1;dashPattern=1 1;" parent="1" target="VE2V3sf3IiLMLohbHc8v-157" edge="1">
          <mxGeometry width="50" height="50" relative="1" as="geometry">
            <mxPoint x="230" y="240" as="sourcePoint" />
            <mxPoint x="230" y="235" as="targetPoint" />
          </mxGeometry>
        </mxCell>
        <mxCell id="VE2V3sf3IiLMLohbHc8v-160" value="" style="endArrow=none;html=1;strokeWidth=1;rounded=0;jumpSize=0;opacity=10;flowAnimation=0;shadow=0;jumpStyle=none;dashed=1;dashPattern=1 1;" parent="1" target="VE2V3sf3IiLMLohbHc8v-159" edge="1">
          <mxGeometry width="50" height="50" relative="1" as="geometry">
            <mxPoint x="240" y="240" as="sourcePoint" />
            <mxPoint x="250" y="160" as="targetPoint" />
          </mxGeometry>
        </mxCell>
        <mxCell id="VE2V3sf3IiLMLohbHc8v-159" value="&lt;font style=&quot;font-size: 5px;&quot;&gt;7&lt;/font&gt;" style="text;html=1;align=center;verticalAlign=middle;whiteSpace=wrap;rounded=0;fontColor=#3399FF;" parent="1" vertex="1">
          <mxGeometry x="240" y="235" as="geometry" />
        </mxCell>
        <mxCell id="VE2V3sf3IiLMLohbHc8v-161" value="&lt;font style=&quot;font-size: 5px;&quot;&gt;8&lt;/font&gt;" style="text;html=1;align=center;verticalAlign=middle;whiteSpace=wrap;rounded=0;fontColor=#3399FF;" parent="1" vertex="1">
          <mxGeometry x="250" y="235" as="geometry" />
        </mxCell>
        <mxCell id="VE2V3sf3IiLMLohbHc8v-162" value="&lt;font style=&quot;font-size: 5px;&quot;&gt;9&lt;/font&gt;" style="text;html=1;align=center;verticalAlign=middle;whiteSpace=wrap;rounded=0;fontColor=#3399FF;" parent="1" vertex="1">
          <mxGeometry x="260" y="235" as="geometry" />
        </mxCell>
        <mxCell id="VE2V3sf3IiLMLohbHc8v-164" value="" style="endArrow=none;html=1;strokeWidth=1;rounded=0;jumpSize=0;opacity=10;flowAnimation=0;shadow=0;jumpStyle=none;dashed=1;dashPattern=1 1;" parent="1" target="VE2V3sf3IiLMLohbHc8v-163" edge="1">
          <mxGeometry width="50" height="50" relative="1" as="geometry">
            <mxPoint x="270" y="240" as="sourcePoint" />
            <mxPoint x="290" y="160" as="targetPoint" />
          </mxGeometry>
        </mxCell>
        <mxCell id="VE2V3sf3IiLMLohbHc8v-163" value="&lt;font style=&quot;font-size: 5px;&quot;&gt;10&lt;/font&gt;" style="text;html=1;align=center;verticalAlign=middle;whiteSpace=wrap;rounded=0;fontColor=#3399FF;" parent="1" vertex="1">
          <mxGeometry x="270" y="235" as="geometry" />
        </mxCell>
        <mxCell id="VE2V3sf3IiLMLohbHc8v-165" value="&lt;font style=&quot;font-size: 5px;&quot;&gt;11&lt;/font&gt;" style="text;html=1;align=center;verticalAlign=middle;whiteSpace=wrap;rounded=0;fontColor=#3399FF;" parent="1" vertex="1">
          <mxGeometry x="289.88" y="235" as="geometry" />
        </mxCell>
        <mxCell id="VE2V3sf3IiLMLohbHc8v-166" value="&lt;font style=&quot;font-size: 5px;&quot;&gt;12&lt;/font&gt;" style="text;html=1;align=center;verticalAlign=middle;whiteSpace=wrap;rounded=0;fontColor=#3399FF;" parent="1" vertex="1">
          <mxGeometry x="299.88" y="235" as="geometry" />
        </mxCell>
        <mxCell id="VE2V3sf3IiLMLohbHc8v-167" value="&lt;font style=&quot;font-size: 5px;&quot;&gt;13&lt;/font&gt;" style="text;html=1;align=center;verticalAlign=middle;whiteSpace=wrap;rounded=0;fontColor=#3399FF;" parent="1" vertex="1">
          <mxGeometry x="309.88" y="235" as="geometry" />
        </mxCell>
        <mxCell id="VE2V3sf3IiLMLohbHc8v-169" value="&lt;font style=&quot;font-size: 5px;&quot;&gt;14&lt;/font&gt;" style="text;html=1;align=center;verticalAlign=middle;whiteSpace=wrap;rounded=0;fontColor=#3399FF;" parent="1" vertex="1">
          <mxGeometry x="319.88" y="235" as="geometry" />
        </mxCell>
        <mxCell id="VE2V3sf3IiLMLohbHc8v-170" value="&lt;font style=&quot;font-size: 5px;&quot;&gt;15&lt;/font&gt;" style="text;html=1;align=center;verticalAlign=middle;whiteSpace=wrap;rounded=0;fontColor=#3399FF;" parent="1" vertex="1">
          <mxGeometry x="329.88" y="235" as="geometry" />
        </mxCell>
        <mxCell id="VE2V3sf3IiLMLohbHc8v-172" value="&lt;font style=&quot;font-size: 5px;&quot;&gt;16&lt;/font&gt;" style="text;html=1;align=center;verticalAlign=middle;whiteSpace=wrap;rounded=0;fontColor=#3399FF;" parent="1" vertex="1">
          <mxGeometry x="339.88" y="235" as="geometry" />
        </mxCell>
        <mxCell id="VE2V3sf3IiLMLohbHc8v-185" value="&lt;font style=&quot;font-size: 5px;&quot;&gt;100&lt;/font&gt;" style="text;html=1;align=center;verticalAlign=middle;whiteSpace=wrap;rounded=0;fontColor=#00CC00;" parent="1" vertex="1">
          <mxGeometry x="110" y="90" as="geometry" />
        </mxCell>
        <mxCell id="VE2V3sf3IiLMLohbHc8v-187" value="&lt;font style=&quot;font-size: 5px;&quot;&gt;90&lt;/font&gt;" style="text;html=1;align=center;verticalAlign=middle;whiteSpace=wrap;rounded=0;fontColor=#00CC00;" parent="1" vertex="1">
          <mxGeometry x="100" y="90" as="geometry" />
        </mxCell>
        <mxCell id="VE2V3sf3IiLMLohbHc8v-188" value="&lt;font style=&quot;font-size: 5px;&quot;&gt;80&lt;/font&gt;" style="text;html=1;align=center;verticalAlign=middle;whiteSpace=wrap;rounded=0;fontColor=#00CC00;" parent="1" vertex="1">
          <mxGeometry x="90" y="90" as="geometry" />
        </mxCell>
        <mxCell id="VE2V3sf3IiLMLohbHc8v-189" value="&lt;font style=&quot;font-size: 5px;&quot;&gt;70&lt;/font&gt;" style="text;html=1;align=center;verticalAlign=middle;whiteSpace=wrap;rounded=0;fontColor=#00CC00;" parent="1" vertex="1">
          <mxGeometry x="80" y="90" as="geometry" />
        </mxCell>
        <mxCell id="JsPG5FyjdLOV1rNwX6f0-1" value="&lt;font style=&quot;font-size: 5px;&quot;&gt;370&lt;/font&gt;" style="text;html=1;align=center;verticalAlign=middle;whiteSpace=wrap;rounded=0;fontColor=#B85450;" vertex="1" parent="1">
          <mxGeometry x="280.05" y="250" as="geometry" />
        </mxCell>
        <mxCell id="JsPG5FyjdLOV1rNwX6f0-2" value="&lt;font style=&quot;font-size: 5px;&quot;&gt;380&lt;/font&gt;" style="text;html=1;align=center;verticalAlign=middle;whiteSpace=wrap;rounded=0;fontColor=#00CC00;" vertex="1" parent="1">
          <mxGeometry x="290" y="250" as="geometry" />
        </mxCell>
        <mxCell id="JsPG5FyjdLOV1rNwX6f0-3" value="&lt;font style=&quot;font-size: 5px;&quot;&gt;390&lt;/font&gt;" style="text;html=1;align=center;verticalAlign=middle;whiteSpace=wrap;rounded=0;fontColor=#00CC00;" vertex="1" parent="1">
          <mxGeometry x="300" y="250" as="geometry" />
        </mxCell>
        <mxCell id="JsPG5FyjdLOV1rNwX6f0-4" value="&lt;font style=&quot;font-size: 5px;&quot;&gt;400&lt;/font&gt;" style="text;html=1;align=center;verticalAlign=middle;whiteSpace=wrap;rounded=0;fontColor=#00CC00;" vertex="1" parent="1">
          <mxGeometry x="310" y="250" as="geometry" />
        </mxCell>
        <mxCell id="JsPG5FyjdLOV1rNwX6f0-5" value="&lt;font style=&quot;font-size: 5px;&quot;&gt;410&lt;/font&gt;" style="text;html=1;align=center;verticalAlign=middle;whiteSpace=wrap;rounded=0;fontColor=#00CC00;" vertex="1" parent="1">
          <mxGeometry x="320" y="250" as="geometry" />
        </mxCell>
        <mxCell id="JsPG5FyjdLOV1rNwX6f0-6" value="&lt;font style=&quot;font-size: 5px;&quot;&gt;420&lt;/font&gt;" style="text;html=1;align=center;verticalAlign=middle;whiteSpace=wrap;rounded=0;fontColor=#00CC00;" vertex="1" parent="1">
          <mxGeometry x="330" y="250" as="geometry" />
        </mxCell>
        <mxCell id="JsPG5FyjdLOV1rNwX6f0-7" value="&lt;font style=&quot;font-size: 5px;&quot;&gt;430&lt;/font&gt;" style="text;html=1;align=center;verticalAlign=middle;whiteSpace=wrap;rounded=0;fontColor=#00CC00;" vertex="1" parent="1">
          <mxGeometry x="340" y="250" as="geometry" />
        </mxCell>
        <mxCell id="JsPG5FyjdLOV1rNwX6f0-17" value="&lt;font style=&quot;font-size: 5px;&quot;&gt;16&lt;/font&gt;" style="text;html=1;align=center;verticalAlign=middle;whiteSpace=wrap;rounded=0;fontColor=#B85450;" vertex="1" parent="1">
          <mxGeometry x="279.95" y="240" as="geometry" />
        </mxCell>
        <mxCell id="JsPG5FyjdLOV1rNwX6f0-18" value="&lt;font style=&quot;font-size: 5px;&quot;&gt;17&lt;/font&gt;" style="text;html=1;align=center;verticalAlign=middle;whiteSpace=wrap;rounded=0;fontColor=#00CC00;" vertex="1" parent="1">
          <mxGeometry x="289.9" y="240" as="geometry" />
        </mxCell>
        <mxCell id="JsPG5FyjdLOV1rNwX6f0-19" value="&lt;font style=&quot;font-size: 5px;&quot;&gt;18&lt;/font&gt;" style="text;html=1;align=center;verticalAlign=middle;whiteSpace=wrap;rounded=0;fontColor=#00CC00;" vertex="1" parent="1">
          <mxGeometry x="299.9" y="240" as="geometry" />
        </mxCell>
        <mxCell id="JsPG5FyjdLOV1rNwX6f0-20" value="&lt;font style=&quot;font-size: 5px;&quot;&gt;19&lt;/font&gt;" style="text;html=1;align=center;verticalAlign=middle;whiteSpace=wrap;rounded=0;fontColor=#00CC00;" vertex="1" parent="1">
          <mxGeometry x="309.9" y="240" as="geometry" />
        </mxCell>
        <mxCell id="JsPG5FyjdLOV1rNwX6f0-21" value="&lt;font style=&quot;font-size: 5px;&quot;&gt;20&lt;/font&gt;" style="text;html=1;align=center;verticalAlign=middle;whiteSpace=wrap;rounded=0;fontColor=#00CC00;" vertex="1" parent="1">
          <mxGeometry x="319.9" y="240" as="geometry" />
        </mxCell>
        <mxCell id="JsPG5FyjdLOV1rNwX6f0-22" value="&lt;font style=&quot;font-size: 5px;&quot;&gt;21&lt;/font&gt;" style="text;html=1;align=center;verticalAlign=middle;whiteSpace=wrap;rounded=0;fontColor=#00CC00;" vertex="1" parent="1">
          <mxGeometry x="329.9" y="240" as="geometry" />
        </mxCell>
        <mxCell id="JsPG5FyjdLOV1rNwX6f0-24" value="&lt;font style=&quot;font-size: 5px;&quot;&gt;22&lt;/font&gt;" style="text;html=1;align=center;verticalAlign=middle;whiteSpace=wrap;rounded=0;fontColor=#00CC00;" vertex="1" parent="1">
          <mxGeometry x="339.9" y="240" as="geometry" />
        </mxCell>
        <mxCell id="JsPG5FyjdLOV1rNwX6f0-35" value="&lt;font style=&quot;font-size: 5px;&quot;&gt;270&lt;/font&gt;" style="text;html=1;align=center;verticalAlign=middle;whiteSpace=wrap;rounded=0;fontColor=#B85450;" vertex="1" parent="1">
          <mxGeometry x="280.05" y="230" as="geometry" />
        </mxCell>
        <mxCell id="JsPG5FyjdLOV1rNwX6f0-36" value="&lt;font style=&quot;font-size: 5px;&quot;&gt;10&lt;/font&gt;" style="text;html=1;align=center;verticalAlign=middle;whiteSpace=wrap;rounded=0;fontColor=#B85450;" vertex="1" parent="1">
          <mxGeometry x="280.05" y="235" as="geometry" />
        </mxCell>
        <mxCell id="JsPG5FyjdLOV1rNwX6f0-37" value="" style="endArrow=none;html=1;strokeWidth=1;rounded=0;jumpSize=0;opacity=10;flowAnimation=0;shadow=0;jumpStyle=none;dashed=1;dashPattern=1 1;" edge="1" parent="1">
          <mxGeometry width="50" height="50" relative="1" as="geometry">
            <mxPoint x="300" y="240" as="sourcePoint" />
            <mxPoint x="320" y="160" as="targetPoint" />
          </mxGeometry>
        </mxCell>
        <mxCell id="JsPG5FyjdLOV1rNwX6f0-38" value="" style="endArrow=none;html=1;strokeWidth=1;rounded=0;jumpSize=0;opacity=10;flowAnimation=0;shadow=0;jumpStyle=none;dashed=1;dashPattern=1 1;" edge="1" parent="1">
          <mxGeometry width="50" height="50" relative="1" as="geometry">
            <mxPoint x="309.93" y="240" as="sourcePoint" />
            <mxPoint x="329.93" y="160" as="targetPoint" />
          </mxGeometry>
        </mxCell>
        <mxCell id="JsPG5FyjdLOV1rNwX6f0-39" value="" style="endArrow=none;html=1;strokeWidth=1;rounded=0;jumpSize=0;opacity=10;flowAnimation=0;shadow=0;jumpStyle=none;dashed=1;dashPattern=1 1;" edge="1" parent="1">
          <mxGeometry width="50" height="50" relative="1" as="geometry">
            <mxPoint x="319.88" y="240" as="sourcePoint" />
            <mxPoint x="350" y="160" as="targetPoint" />
          </mxGeometry>
        </mxCell>
        <mxCell id="JsPG5FyjdLOV1rNwX6f0-41" value="" style="endArrow=none;html=1;strokeWidth=1;rounded=0;jumpSize=0;opacity=10;flowAnimation=0;shadow=0;jumpStyle=none;dashed=1;dashPattern=1 1;" edge="1" parent="1">
          <mxGeometry width="50" height="50" relative="1" as="geometry">
            <mxPoint x="330" y="240" as="sourcePoint" />
            <mxPoint x="360.12" y="160" as="targetPoint" />
          </mxGeometry>
        </mxCell>
        <mxCell id="JsPG5FyjdLOV1rNwX6f0-43" value="" style="endArrow=none;html=1;strokeWidth=1;rounded=0;jumpSize=0;opacity=10;flowAnimation=0;shadow=0;jumpStyle=none;dashed=1;dashPattern=1 1;" edge="1" parent="1">
          <mxGeometry width="50" height="50" relative="1" as="geometry">
            <mxPoint x="360.07" y="240" as="sourcePoint" />
            <mxPoint x="360.07" y="235" as="targetPoint" />
          </mxGeometry>
        </mxCell>
        <mxCell id="JsPG5FyjdLOV1rNwX6f0-44" value="" style="endArrow=none;html=1;strokeWidth=1;rounded=0;jumpSize=0;opacity=10;flowAnimation=0;shadow=0;jumpStyle=none;dashed=1;dashPattern=1 1;" edge="1" parent="1">
          <mxGeometry width="50" height="50" relative="1" as="geometry">
            <mxPoint x="400.07" y="240" as="sourcePoint" />
            <mxPoint x="400.07" y="235" as="targetPoint" />
          </mxGeometry>
        </mxCell>
        <mxCell id="JsPG5FyjdLOV1rNwX6f0-45" value="" style="endArrow=none;html=1;strokeWidth=1;rounded=0;jumpSize=0;opacity=10;flowAnimation=0;shadow=0;jumpStyle=none;dashed=1;dashPattern=1 1;" edge="1" parent="1">
          <mxGeometry width="50" height="50" relative="1" as="geometry">
            <mxPoint x="380.07" y="240" as="sourcePoint" />
            <mxPoint x="380.07" y="235" as="targetPoint" />
          </mxGeometry>
        </mxCell>
        <mxCell id="JsPG5FyjdLOV1rNwX6f0-46" value="&lt;font style=&quot;font-size: 5px;&quot;&gt;330&lt;/font&gt;" style="text;html=1;align=center;verticalAlign=middle;whiteSpace=wrap;rounded=0;fontColor=#B85450;" vertex="1" parent="1">
          <mxGeometry x="350" y="230" as="geometry" />
        </mxCell>
        <mxCell id="JsPG5FyjdLOV1rNwX6f0-47" value="&lt;font style=&quot;font-size: 5px;&quot;&gt;340&lt;/font&gt;" style="text;html=1;align=center;verticalAlign=middle;whiteSpace=wrap;rounded=0;fontColor=#3399FF;" vertex="1" parent="1">
          <mxGeometry x="360" y="230" as="geometry" />
        </mxCell>
        <mxCell id="JsPG5FyjdLOV1rNwX6f0-48" value="&lt;font style=&quot;font-size: 5px;&quot;&gt;350&lt;/font&gt;" style="text;html=1;align=center;verticalAlign=middle;whiteSpace=wrap;rounded=0;fontColor=#3399FF;" vertex="1" parent="1">
          <mxGeometry x="370" y="230" as="geometry" />
        </mxCell>
        <mxCell id="JsPG5FyjdLOV1rNwX6f0-49" value="&lt;font style=&quot;font-size: 5px;&quot;&gt;370&lt;/font&gt;" style="text;html=1;align=center;verticalAlign=middle;whiteSpace=wrap;rounded=0;fontColor=#3399FF;" vertex="1" parent="1">
          <mxGeometry x="390" y="230" as="geometry" />
        </mxCell>
        <mxCell id="JsPG5FyjdLOV1rNwX6f0-50" value="&lt;font style=&quot;font-size: 5px;&quot;&gt;360&lt;/font&gt;" style="text;html=1;align=center;verticalAlign=middle;whiteSpace=wrap;rounded=0;fontColor=#3399FF;" vertex="1" parent="1">
          <mxGeometry x="380" y="230" as="geometry" />
        </mxCell>
        <mxCell id="JsPG5FyjdLOV1rNwX6f0-51" value="&lt;font style=&quot;font-size: 5px;&quot;&gt;380&lt;/font&gt;" style="text;html=1;align=center;verticalAlign=middle;whiteSpace=wrap;rounded=0;fontColor=#3399FF;" vertex="1" parent="1">
          <mxGeometry x="400" y="230" as="geometry" />
        </mxCell>
        <mxCell id="JsPG5FyjdLOV1rNwX6f0-52" value="&lt;font style=&quot;font-size: 5px;&quot;&gt;390&lt;/font&gt;" style="text;html=1;align=center;verticalAlign=middle;whiteSpace=wrap;rounded=0;fontColor=#3399FF;" vertex="1" parent="1">
          <mxGeometry x="410" y="230" as="geometry" />
        </mxCell>
        <mxCell id="JsPG5FyjdLOV1rNwX6f0-53" value="&lt;font style=&quot;font-size: 5px;&quot;&gt;400&lt;/font&gt;" style="text;html=1;align=center;verticalAlign=middle;whiteSpace=wrap;rounded=0;fontColor=#3399FF;" vertex="1" parent="1">
          <mxGeometry x="420" y="230" as="geometry" />
        </mxCell>
        <mxCell id="JsPG5FyjdLOV1rNwX6f0-54" value="&lt;font style=&quot;font-size: 5px;&quot;&gt;410&lt;/font&gt;" style="text;html=1;align=center;verticalAlign=middle;whiteSpace=wrap;rounded=0;fontColor=#3399FF;" vertex="1" parent="1">
          <mxGeometry x="430" y="230" as="geometry" />
        </mxCell>
        <mxCell id="JsPG5FyjdLOV1rNwX6f0-55" value="&lt;font style=&quot;font-size: 5px;&quot;&gt;420&lt;/font&gt;" style="text;html=1;align=center;verticalAlign=middle;whiteSpace=wrap;rounded=0;fontColor=#3399FF;" vertex="1" parent="1">
          <mxGeometry x="440" y="230" as="geometry" />
        </mxCell>
        <mxCell id="JsPG5FyjdLOV1rNwX6f0-58" value="&lt;font style=&quot;font-size: 5px;&quot;&gt;16&lt;/font&gt;" style="text;html=1;align=center;verticalAlign=middle;whiteSpace=wrap;rounded=0;fontColor=#B85450;" vertex="1" parent="1">
          <mxGeometry x="349.95" y="235" as="geometry" />
        </mxCell>
        <mxCell id="JsPG5FyjdLOV1rNwX6f0-59" value="&lt;font style=&quot;font-size: 5px;&quot;&gt;17&lt;/font&gt;" style="text;html=1;align=center;verticalAlign=middle;whiteSpace=wrap;rounded=0;fontColor=#3399FF;" vertex="1" parent="1">
          <mxGeometry x="359.95" y="235" as="geometry" />
        </mxCell>
        <mxCell id="JsPG5FyjdLOV1rNwX6f0-60" value="&lt;font style=&quot;font-size: 5px;&quot;&gt;18&lt;/font&gt;" style="text;html=1;align=center;verticalAlign=middle;whiteSpace=wrap;rounded=0;fontColor=#3399FF;" vertex="1" parent="1">
          <mxGeometry x="370" y="235" as="geometry" />
        </mxCell>
        <mxCell id="JsPG5FyjdLOV1rNwX6f0-61" value="&lt;font style=&quot;font-size: 5px;&quot;&gt;19&lt;/font&gt;" style="text;html=1;align=center;verticalAlign=middle;whiteSpace=wrap;rounded=0;fontColor=#3399FF;" vertex="1" parent="1">
          <mxGeometry x="379.95" y="235" as="geometry" />
        </mxCell>
        <mxCell id="JsPG5FyjdLOV1rNwX6f0-62" value="&lt;font style=&quot;font-size: 5px;&quot;&gt;20&lt;/font&gt;" style="text;html=1;align=center;verticalAlign=middle;whiteSpace=wrap;rounded=0;fontColor=#3399FF;" vertex="1" parent="1">
          <mxGeometry x="389.95" y="235" as="geometry" />
        </mxCell>
        <mxCell id="JsPG5FyjdLOV1rNwX6f0-63" value="&lt;font style=&quot;font-size: 5px;&quot;&gt;21&lt;/font&gt;" style="text;html=1;align=center;verticalAlign=middle;whiteSpace=wrap;rounded=0;fontColor=#3399FF;" vertex="1" parent="1">
          <mxGeometry x="399.95" y="235" as="geometry" />
        </mxCell>
        <mxCell id="JsPG5FyjdLOV1rNwX6f0-64" value="&lt;font style=&quot;font-size: 5px;&quot;&gt;22&lt;/font&gt;" style="text;html=1;align=center;verticalAlign=middle;whiteSpace=wrap;rounded=0;fontColor=#3399FF;" vertex="1" parent="1">
          <mxGeometry x="409.95" y="235" as="geometry" />
        </mxCell>
        <mxCell id="JsPG5FyjdLOV1rNwX6f0-65" value="&lt;font style=&quot;font-size: 5px;&quot;&gt;23&lt;/font&gt;" style="text;html=1;align=center;verticalAlign=middle;whiteSpace=wrap;rounded=0;fontColor=#3399FF;" vertex="1" parent="1">
          <mxGeometry x="419.95" y="235" as="geometry" />
        </mxCell>
        <mxCell id="JsPG5FyjdLOV1rNwX6f0-66" value="&lt;font style=&quot;font-size: 5px;&quot;&gt;24&lt;/font&gt;" style="text;html=1;align=center;verticalAlign=middle;whiteSpace=wrap;rounded=0;fontColor=#3399FF;" vertex="1" parent="1">
          <mxGeometry x="429.95" y="235" as="geometry" />
        </mxCell>
        <mxCell id="JsPG5FyjdLOV1rNwX6f0-67" value="&lt;font style=&quot;font-size: 5px;&quot;&gt;25&lt;/font&gt;" style="text;html=1;align=center;verticalAlign=middle;whiteSpace=wrap;rounded=0;fontColor=#3399FF;" vertex="1" parent="1">
          <mxGeometry x="439.95" y="235" as="geometry" />
        </mxCell>
        <mxCell id="JsPG5FyjdLOV1rNwX6f0-70" value="&lt;font style=&quot;font-size: 5px;&quot;&gt;430&lt;/font&gt;" style="text;html=1;align=center;verticalAlign=middle;whiteSpace=wrap;rounded=0;fontColor=#B85450;" vertex="1" parent="1">
          <mxGeometry x="350.07" y="250" as="geometry" />
        </mxCell>
        <mxCell id="JsPG5FyjdLOV1rNwX6f0-71" value="&lt;font style=&quot;font-size: 5px;&quot;&gt;440&lt;/font&gt;" style="text;html=1;align=center;verticalAlign=middle;whiteSpace=wrap;rounded=0;fontColor=#00CC00;" vertex="1" parent="1">
          <mxGeometry x="360.07" y="250" as="geometry" />
        </mxCell>
        <mxCell id="JsPG5FyjdLOV1rNwX6f0-72" value="&lt;font style=&quot;font-size: 5px;&quot;&gt;450&lt;/font&gt;" style="text;html=1;align=center;verticalAlign=middle;whiteSpace=wrap;rounded=0;fontColor=#00CC00;" vertex="1" parent="1">
          <mxGeometry x="370.07" y="250" as="geometry" />
        </mxCell>
        <mxCell id="JsPG5FyjdLOV1rNwX6f0-73" value="&lt;font style=&quot;font-size: 5px;&quot;&gt;460&lt;/font&gt;" style="text;html=1;align=center;verticalAlign=middle;whiteSpace=wrap;rounded=0;fontColor=#00CC00;" vertex="1" parent="1">
          <mxGeometry x="380.07" y="250" as="geometry" />
        </mxCell>
        <mxCell id="JsPG5FyjdLOV1rNwX6f0-74" value="&lt;font style=&quot;font-size: 5px;&quot;&gt;470&lt;/font&gt;" style="text;html=1;align=center;verticalAlign=middle;whiteSpace=wrap;rounded=0;fontColor=#00CC00;" vertex="1" parent="1">
          <mxGeometry x="390.07" y="250" as="geometry" />
        </mxCell>
        <mxCell id="JsPG5FyjdLOV1rNwX6f0-75" value="&lt;font style=&quot;font-size: 5px;&quot;&gt;480&lt;/font&gt;" style="text;html=1;align=center;verticalAlign=middle;whiteSpace=wrap;rounded=0;fontColor=#00CC00;" vertex="1" parent="1">
          <mxGeometry x="400.07" y="250" as="geometry" />
        </mxCell>
        <mxCell id="JsPG5FyjdLOV1rNwX6f0-76" value="&lt;font style=&quot;font-size: 5px;&quot;&gt;490&lt;/font&gt;" style="text;html=1;align=center;verticalAlign=middle;whiteSpace=wrap;rounded=0;fontColor=#00CC00;" vertex="1" parent="1">
          <mxGeometry x="410.07" y="250" as="geometry" />
        </mxCell>
        <mxCell id="JsPG5FyjdLOV1rNwX6f0-77" value="&lt;font style=&quot;font-size: 5px;&quot;&gt;500&lt;/font&gt;" style="text;html=1;align=center;verticalAlign=middle;whiteSpace=wrap;rounded=0;fontColor=#00CC00;" vertex="1" parent="1">
          <mxGeometry x="420.07" y="250" as="geometry" />
        </mxCell>
        <mxCell id="JsPG5FyjdLOV1rNwX6f0-78" value="&lt;font style=&quot;font-size: 5px;&quot;&gt;510&lt;/font&gt;" style="text;html=1;align=center;verticalAlign=middle;whiteSpace=wrap;rounded=0;fontColor=#00CC00;" vertex="1" parent="1">
          <mxGeometry x="430.07" y="250" as="geometry" />
        </mxCell>
        <mxCell id="JsPG5FyjdLOV1rNwX6f0-79" value="&lt;font style=&quot;font-size: 5px;&quot;&gt;520&lt;/font&gt;" style="text;html=1;align=center;verticalAlign=middle;whiteSpace=wrap;rounded=0;fontColor=#00CC00;" vertex="1" parent="1">
          <mxGeometry x="440.07" y="250" as="geometry" />
        </mxCell>
        <mxCell id="JsPG5FyjdLOV1rNwX6f0-81" value="&lt;font style=&quot;font-size: 5px;&quot;&gt;22&lt;/font&gt;" style="text;html=1;align=center;verticalAlign=middle;whiteSpace=wrap;rounded=0;fontColor=#B85450;" vertex="1" parent="1">
          <mxGeometry x="349.96999999999997" y="240" as="geometry" />
        </mxCell>
        <mxCell id="JsPG5FyjdLOV1rNwX6f0-82" value="&lt;font style=&quot;font-size: 5px;&quot;&gt;23&lt;/font&gt;" style="text;html=1;align=center;verticalAlign=middle;whiteSpace=wrap;rounded=0;fontColor=#00CC00;" vertex="1" parent="1">
          <mxGeometry x="359.95" y="240" as="geometry" />
        </mxCell>
        <mxCell id="JsPG5FyjdLOV1rNwX6f0-83" value="&lt;font style=&quot;font-size: 5px;&quot;&gt;24&lt;/font&gt;" style="text;html=1;align=center;verticalAlign=middle;whiteSpace=wrap;rounded=0;fontColor=#00CC00;" vertex="1" parent="1">
          <mxGeometry x="369.95" y="240" as="geometry" />
        </mxCell>
        <mxCell id="JsPG5FyjdLOV1rNwX6f0-84" value="&lt;font style=&quot;font-size: 5px;&quot;&gt;25&lt;/font&gt;" style="text;html=1;align=center;verticalAlign=middle;whiteSpace=wrap;rounded=0;fontColor=#00CC00;" vertex="1" parent="1">
          <mxGeometry x="379.95" y="240" as="geometry" />
        </mxCell>
        <mxCell id="JsPG5FyjdLOV1rNwX6f0-85" value="&lt;font style=&quot;font-size: 5px;&quot;&gt;26&lt;/font&gt;" style="text;html=1;align=center;verticalAlign=middle;whiteSpace=wrap;rounded=0;fontColor=#00CC00;" vertex="1" parent="1">
          <mxGeometry x="389.95" y="240" as="geometry" />
        </mxCell>
        <mxCell id="JsPG5FyjdLOV1rNwX6f0-86" value="&lt;font style=&quot;font-size: 5px;&quot;&gt;27&lt;/font&gt;" style="text;html=1;align=center;verticalAlign=middle;whiteSpace=wrap;rounded=0;fontColor=#00CC00;" vertex="1" parent="1">
          <mxGeometry x="399.95" y="240" as="geometry" />
        </mxCell>
        <mxCell id="JsPG5FyjdLOV1rNwX6f0-87" value="&lt;div&gt;&lt;font style=&quot;font-size: 5px;&quot;&gt;28&lt;/font&gt;&lt;/div&gt;" style="text;html=1;align=center;verticalAlign=middle;whiteSpace=wrap;rounded=0;fontColor=#00CC00;" vertex="1" parent="1">
          <mxGeometry x="419.95" y="240" as="geometry" />
        </mxCell>
        <mxCell id="JsPG5FyjdLOV1rNwX6f0-88" value="&lt;font style=&quot;font-size: 5px;&quot;&gt;29&lt;/font&gt;" style="text;html=1;align=center;verticalAlign=middle;whiteSpace=wrap;rounded=0;fontColor=#00CC00;" vertex="1" parent="1">
          <mxGeometry x="439.95" y="240" as="geometry" />
        </mxCell>
        <mxCell id="JsPG5FyjdLOV1rNwX6f0-89" value="&lt;font style=&quot;font-size: 5px;&quot;&gt;27&lt;/font&gt;" style="text;html=1;align=center;verticalAlign=middle;whiteSpace=wrap;rounded=0;fontColor=#B85450;" vertex="1" parent="1">
          <mxGeometry x="409.95" y="240" as="geometry" />
        </mxCell>
        <mxCell id="JsPG5FyjdLOV1rNwX6f0-90" value="&lt;font style=&quot;font-size: 5px;&quot;&gt;28&lt;/font&gt;" style="text;html=1;align=center;verticalAlign=middle;whiteSpace=wrap;rounded=0;fontColor=#B85450;" vertex="1" parent="1">
          <mxGeometry x="429.95" y="240" as="geometry" />
        </mxCell>
        <mxCell id="JsPG5FyjdLOV1rNwX6f0-91" value="&lt;font style=&quot;font-size: 5px;&quot;&gt;entity time = server time - &lt;font style=&quot;font-size: 5px;&quot;&gt;entity interpolation delay&lt;br&gt;&lt;/font&gt;&lt;/font&gt;" style="text;html=1;align=center;verticalAlign=middle;whiteSpace=wrap;rounded=0;" vertex="1" parent="1">
          <mxGeometry x="120" y="20" width="120" as="geometry" />
        </mxCell>
        <mxCell id="JsPG5FyjdLOV1rNwX6f0-92" value="" style="endArrow=openThin;html=1;rounded=0;fillColor=#f8cecc;strokeColor=#b85450;startArrow=none;startFill=0;endFill=0;exitX=0;exitY=0;exitDx=0;exitDy=0;entryX=0;entryY=0;entryDx=0;entryDy=0;" edge="1" parent="1" source="gBEdq5ZTxUluI_XgzyKd-290" target="gBEdq5ZTxUluI_XgzyKd-129">
          <mxGeometry width="50" height="50" relative="1" as="geometry">
            <mxPoint x="220" y="160" as="sourcePoint" />
            <mxPoint x="240" y="240" as="targetPoint" />
          </mxGeometry>
        </mxCell>
        <mxCell id="JsPG5FyjdLOV1rNwX6f0-93" value="" style="endArrow=openThin;html=1;rounded=0;fillColor=#f8cecc;strokeColor=#b85450;startArrow=none;startFill=0;endFill=0;exitX=0;exitY=0;exitDx=0;exitDy=0;entryX=0;entryY=0;entryDx=0;entryDy=0;" edge="1" parent="1" target="gBEdq5ZTxUluI_XgzyKd-290">
          <mxGeometry width="50" height="50" relative="1" as="geometry">
            <mxPoint x="220" y="160" as="sourcePoint" />
            <mxPoint x="230" y="240" as="targetPoint" />
          </mxGeometry>
        </mxCell>
        <mxCell id="gBEdq5ZTxUluI_XgzyKd-290" value="&lt;font style=&quot;font-size: 5px;&quot;&gt;7&lt;/font&gt;" style="text;html=1;align=center;verticalAlign=middle;whiteSpace=wrap;rounded=0;fontColor=#00CC00;" parent="1" vertex="1">
          <mxGeometry x="220" y="160" as="geometry" />
        </mxCell>
        <mxCell id="VE2V3sf3IiLMLohbHc8v-157" value="&lt;font style=&quot;font-size: 5px;&quot;&gt;6&lt;/font&gt;" style="text;html=1;align=center;verticalAlign=middle;whiteSpace=wrap;rounded=0;fontColor=#3399FF;" parent="1" vertex="1">
          <mxGeometry x="229.95" y="235" as="geometry" />
        </mxCell>
        <mxCell id="VE2V3sf3IiLMLohbHc8v-122" value="&lt;font style=&quot;font-size: 5px;&quot;&gt;230&lt;/font&gt;" style="text;html=1;align=center;verticalAlign=middle;whiteSpace=wrap;rounded=0;fontColor=#3399FF;" parent="1" vertex="1">
          <mxGeometry x="230" y="230" as="geometry" />
        </mxCell>
        <mxCell id="gBEdq5ZTxUluI_XgzyKd-365" value="&lt;font color=&quot;#b85450&quot; style=&quot;font-size: 5px;&quot;&gt;client simulation offset + entity interpolation delay&lt;br&gt;&lt;/font&gt;" style="text;html=1;align=center;verticalAlign=middle;whiteSpace=wrap;rounded=0;" parent="1" vertex="1">
          <mxGeometry x="105" y="180" width="117.5" as="geometry" />
        </mxCell>
      </root>
    </mxGraphModel>
  </diagram>
</mxfile>
